<?xml version="1.0" encoding="UTF-8" standalone="no"?>
<!DOCTYPE svg PUBLIC "-//W3C//DTD SVG 1.1//EN"
 "http://www.w3.org/Graphics/SVG/1.1/DTD/svg11.dtd">
<!-- Generated by graphviz version 2.40.1 (20161225.0304)
 -->
<!-- Title: %3 Pages: 1 -->
<svg width="254pt" height="219pt"
 viewBox="0.00 0.00 253.93 218.96" xmlns="http://www.w3.org/2000/svg" xmlns:xlink="http://www.w3.org/1999/xlink">
<g id="graph0" class="graph" transform="scale(1 1) rotate(0) translate(4 214.9565)">
<title>%3</title>
<polygon fill="#ffffff" stroke="transparent" points="-4,4 -4,-214.9565 249.9346,-214.9565 249.9346,4 -4,4"/>
<!-- bus1 -->
<g id="node1" class="node">
<title>bus1</title>
<ellipse fill="none" stroke="#000000" cx="118.4289" cy="-138.5921" rx="27" ry="18"/>
<text text-anchor="middle" x="118.4289" y="-134.8921" font-family="Times,serif" font-size="14.00" fill="#000000">1</text>
</g>
<!-- bus2 -->
<g id="node2" class="node">
<title>bus2</title>
<ellipse fill="none" stroke="#000000" cx="90.344" cy="-77.9524" rx="27" ry="18"/>
<text text-anchor="middle" x="90.344" y="-74.2524" font-family="Times,serif" font-size="14.00" fill="#000000">2</text>
</g>
<!-- bus1&#45;&#45;bus2 -->
<g id="edge2" class="edge">
<title>bus1&#45;&#45;bus2</title>
<path fill="none" stroke="#000000" d="M110.456,-121.3774C106.6936,-113.2539 102.2115,-103.5762 98.4343,-95.4207"/>
<text text-anchor="middle" x="100.9451" y="-97.1991" font-family="Times,serif" font-size="14.00" fill="#000000">3</text>
</g>
<!-- bus3 -->
<g id="node3" class="node">
<title>bus3</title>
<ellipse fill="none" stroke="#000000" cx="156.9284" cy="-84.0512" rx="27" ry="18"/>
<text text-anchor="middle" x="156.9284" y="-80.3512" font-family="Times,serif" font-size="14.00" fill="#000000">3</text>
</g>
<!-- bus1&#45;&#45;bus3 -->
<g id="edge1" class="edge">
<title>bus1&#45;&#45;bus3</title>
<path fill="none" stroke="#000000" d="M129.98,-122.228C134.8528,-115.3249 140.5135,-107.3055 145.3854,-100.4037"/>
<text text-anchor="middle" x="134.1827" y="-115.1158" font-family="Times,serif" font-size="14.00" fill="#000000">1</text>
</g>
<!-- bus3&#45;&#45;bus2 -->
<g id="edge3" class="edge">
<title>bus3&#45;&#45;bus2</title>
<path fill="none" stroke="#000000" d="M129.846,-81.5706C125.6695,-81.188 121.3578,-80.7931 117.1865,-80.4111"/>
<text text-anchor="middle" x="125.2662" y="-69.7908" font-family="Times,serif" font-size="14.00" fill="#000000">2</text>
</g>
<!-- load1 -->
<g id="node4" class="node">
<title>load1</title>
<polygon fill="none" stroke="#b03060" points="103.716,-204.2264 49.716,-204.2264 49.716,-168.2264 103.716,-168.2264 103.716,-204.2264"/>
<text text-anchor="middle" x="76.716" y="-182.5264" font-family="Times,serif" font-size="14.00" fill="#000000">1</text>
</g>
<!-- load1&#45;&#45;bus1 -->
<g id="edge4" class="edge">
<title>load1&#45;&#45;bus1</title>
<path fill="none" stroke="#b03060" stroke-dasharray="1,5" d="M92.4858,-168.2179C96.454,-163.6864 100.6839,-158.8561 104.5517,-154.4391"/>
</g>
<!-- load2 -->
<g id="node5" class="node">
<title>load2</title>
<polygon fill="none" stroke="#b03060" points="97.0077,-36 43.0077,-36 43.0077,0 97.0077,0 97.0077,-36"/>
<text text-anchor="middle" x="70.0077" y="-14.3" font-family="Times,serif" font-size="14.00" fill="#000000">2</text>
</g>
<!-- load2&#45;&#45;bus2 -->
<g id="edge5" class="edge">
<title>load2&#45;&#45;bus2</title>
<path fill="none" stroke="#b03060" stroke-dasharray="1,5" d="M76.2198,-36.3135C78.7895,-43.8893 81.7587,-52.6425 84.3095,-60.1625"/>
</g>
<!-- load3 -->
<g id="node6" class="node">
<title>load3</title>
<polygon fill="none" stroke="#b03060" points="245.9346,-114.2921 191.9346,-114.2921 191.9346,-78.2921 245.9346,-78.2921 245.9346,-114.2921"/>
<text text-anchor="middle" x="218.9346" y="-92.5921" font-family="Times,serif" font-size="14.00" fill="#000000">3</text>
</g>
<!-- load3&#45;&#45;bus3 -->
<g id="edge6" class="edge">
<title>load3&#45;&#45;bus3</title>
<path fill="none" stroke="#b03060" stroke-dasharray="1,5" d="M191.9182,-90.9587C188.9157,-90.3659 185.8625,-89.7632 182.8738,-89.1732"/>
</g>
<!-- thermal1 -->
<g id="node7" class="node">
<title>thermal1</title>
<polygon fill="none" stroke="#cd853f" points="150.7843,-210.9565 123.7843,-192.9565 150.7843,-174.9565 177.7843,-192.9565 150.7843,-210.9565"/>
<text text-anchor="middle" x="150.7843" y="-189.2565" font-family="Times,serif" font-size="14.00" fill="#000000">1</text>
</g>
<!-- thermal1&#45;&#45;bus1 -->
<g id="edge7" class="edge">
<title>thermal1&#45;&#45;bus1</title>
<path fill="none" stroke="#cd853f" stroke-dasharray="5,2" d="M142.952,-179.7964C138.613,-172.5059 133.1711,-163.3623 128.5166,-155.5418"/>
</g>
<!-- thermal2 -->
<g id="node8" class="node">
<title>thermal2</title>
<polygon fill="none" stroke="#cd853f" points="27,-96.8273 0,-78.8273 27,-60.8273 54,-78.8273 27,-96.8273"/>
<text text-anchor="middle" x="27" y="-75.1273" font-family="Times,serif" font-size="14.00" fill="#000000">2</text>
</g>
<!-- thermal2&#45;&#45;bus2 -->
<g id="edge8" class="edge">
<title>thermal2&#45;&#45;bus2</title>
<path fill="none" stroke="#cd853f" stroke-dasharray="5,2" d="M53.4965,-78.4613C56.7511,-78.4164 60.0807,-78.3704 63.3426,-78.3253"/>
</g>
<!-- thermal3 -->
<g id="node9" class="node">
<title>thermal3</title>
<polygon fill="none" stroke="#cd853f" points="187.8398,-46.7725 160.8398,-28.7725 187.8398,-10.7725 214.8398,-28.7725 187.8398,-46.7725"/>
<text text-anchor="middle" x="187.8398" y="-25.0725" font-family="Times,serif" font-size="14.00" fill="#000000">3</text>
</g>
<!-- thermal3&#45;&#45;bus3 -->
<g id="edge9" class="edge">
<title>thermal3&#45;&#45;bus3</title>
<path fill="none" stroke="#cd853f" stroke-dasharray="5,2" d="M180.357,-42.1539C176.2117,-49.567 171.0127,-58.8644 166.566,-66.8164"/>
</g>
</g>
</svg>
