<?xml version="1.0" encoding="UTF-8" standalone="no"?>
<!DOCTYPE svg PUBLIC "-//W3C//DTD SVG 1.1//EN"
 "http://www.w3.org/Graphics/SVG/1.1/DTD/svg11.dtd">
<!-- Generated by graphviz version 2.40.1 (20161225.0304)
 -->
<!-- Title: %3 Pages: 1 -->
<svg width="874pt" height="709pt"
 viewBox="0.00 0.00 874.18 709.43" xmlns="http://www.w3.org/2000/svg" xmlns:xlink="http://www.w3.org/1999/xlink">
<g id="graph0" class="graph" transform="scale(1 1) rotate(0) translate(4 705.4264)">
<title>%3</title>
<polygon fill="#ffffff" stroke="transparent" points="-4,4 -4,-705.4264 870.1805,-705.4264 870.1805,4 -4,4"/>
<!-- bus1 -->
<g id="node1" class="node">
<title>bus1</title>
<ellipse fill="none" stroke="#000000" cx="517.7204" cy="-177.2737" rx="27" ry="18"/>
<text text-anchor="middle" x="517.7204" y="-173.5737" font-family="Times,serif" font-size="14.00" fill="#000000">24</text>
</g>
<!-- bus9 -->
<g id="node9" class="node">
<title>bus9</title>
<ellipse fill="none" stroke="#000000" cx="624.7509" cy="-253.2591" rx="27" ry="18"/>
<text text-anchor="middle" x="624.7509" y="-249.5591" font-family="Times,serif" font-size="14.00" fill="#000000">25</text>
</g>
<!-- bus1&#45;&#45;bus9 -->
<g id="edge1" class="edge">
<title>bus1&#45;&#45;bus9</title>
<path fill="none" stroke="#000000" d="M536.3637,-190.5093C555.8886,-204.3709 586.3829,-226.02 605.9622,-239.9201"/>
<text text-anchor="middle" x="564.1629" y="-219.0147" font-family="Times,serif" font-size="14.00" fill="#000000">33</text>
</g>
<!-- bus2 -->
<g id="node2" class="node">
<title>bus2</title>
<ellipse fill="none" stroke="#000000" cx="283.0603" cy="-467.8884" rx="27" ry="18"/>
<text text-anchor="middle" x="283.0603" y="-464.1884" font-family="Times,serif" font-size="14.00" fill="#000000">4</text>
</g>
<!-- bus4 -->
<g id="node4" class="node">
<title>bus4</title>
<ellipse fill="none" stroke="#000000" cx="200.9539" cy="-324.6744" rx="27" ry="18"/>
<text text-anchor="middle" x="200.9539" y="-320.9744" font-family="Times,serif" font-size="14.00" fill="#000000">12</text>
</g>
<!-- bus2&#45;&#45;bus4 -->
<g id="edge2" class="edge">
<title>bus2&#45;&#45;bus4</title>
<path fill="none" stroke="#000000" d="M273.3192,-450.8974C257.5171,-423.3346 226.4763,-369.1917 210.6823,-341.6432"/>
<text text-anchor="middle" x="235.0008" y="-385.0703" font-family="Times,serif" font-size="14.00" fill="#000000">15</text>
</g>
<!-- bus8 -->
<g id="node8" class="node">
<title>bus8</title>
<ellipse fill="none" stroke="#000000" cx="413.311" cy="-475.148" rx="27" ry="18"/>
<text text-anchor="middle" x="413.311" y="-471.448" font-family="Times,serif" font-size="14.00" fill="#000000">6</text>
</g>
<!-- bus2&#45;&#45;bus8 -->
<g id="edge3" class="edge">
<title>bus2&#45;&#45;bus8</title>
<path fill="none" stroke="#000000" d="M310.0483,-469.3926C332.4026,-470.6385 364.0128,-472.4003 386.3575,-473.6457"/>
<text text-anchor="middle" x="344.7029" y="-475.3191" font-family="Times,serif" font-size="14.00" fill="#000000">7</text>
</g>
<!-- bus3 -->
<g id="node3" class="node">
<title>bus3</title>
<ellipse fill="none" stroke="#000000" cx="237.5203" cy="-609.8898" rx="27" ry="18"/>
<text text-anchor="middle" x="237.5203" y="-606.1898" font-family="Times,serif" font-size="14.00" fill="#000000">1</text>
</g>
<!-- bus7 -->
<g id="node7" class="node">
<title>bus7</title>
<ellipse fill="none" stroke="#000000" cx="329.5365" cy="-565.1081" rx="27" ry="18"/>
<text text-anchor="middle" x="329.5365" y="-561.4081" font-family="Times,serif" font-size="14.00" fill="#000000">2</text>
</g>
<!-- bus3&#45;&#45;bus7 -->
<g id="edge4" class="edge">
<title>bus3&#45;&#45;bus7</title>
<path fill="none" stroke="#000000" d="M259.7948,-599.0494C274.2621,-592.0086 293.0408,-582.8695 307.467,-575.8486"/>
<text text-anchor="middle" x="280.1309" y="-591.249" font-family="Times,serif" font-size="14.00" fill="#000000">1</text>
</g>
<!-- bus30 -->
<g id="node30" class="node">
<title>bus30</title>
<ellipse fill="none" stroke="#000000" cx="207.9311" cy="-554.1916" rx="27" ry="18"/>
<text text-anchor="middle" x="207.9311" y="-550.4916" font-family="Times,serif" font-size="14.00" fill="#000000">3</text>
</g>
<!-- bus3&#45;&#45;bus30 -->
<g id="edge5" class="edge">
<title>bus3&#45;&#45;bus30</title>
<path fill="none" stroke="#000000" d="M228.4817,-592.8759C224.8787,-586.0936 220.7361,-578.2956 217.1184,-571.4857"/>
<text text-anchor="middle" x="219.3001" y="-570.9808" font-family="Times,serif" font-size="14.00" fill="#000000">2</text>
</g>
<!-- bus13 -->
<g id="node13" class="node">
<title>bus13</title>
<ellipse fill="none" stroke="#000000" cx="103.9782" cy="-392.9103" rx="27" ry="18"/>
<text text-anchor="middle" x="103.9782" y="-389.2103" font-family="Times,serif" font-size="14.00" fill="#000000">13</text>
</g>
<!-- bus4&#45;&#45;bus13 -->
<g id="edge6" class="edge">
<title>bus4&#45;&#45;bus13</title>
<path fill="none" stroke="#000000" d="M182.256,-337.8309C165.0838,-349.9139 139.7727,-367.7238 122.6187,-379.7941"/>
<text text-anchor="middle" x="145.4373" y="-347.6125" font-family="Times,serif" font-size="14.00" fill="#000000">16</text>
</g>
<!-- bus15 -->
<g id="node15" class="node">
<title>bus15</title>
<ellipse fill="none" stroke="#000000" cx="246.711" cy="-198.4588" rx="27" ry="18"/>
<text text-anchor="middle" x="246.711" y="-194.7588" font-family="Times,serif" font-size="14.00" fill="#000000">15</text>
</g>
<!-- bus4&#45;&#45;bus15 -->
<g id="edge9" class="edge">
<title>bus4&#45;&#45;bus15</title>
<path fill="none" stroke="#000000" d="M207.3162,-307.1246C216.0092,-283.1462 231.5138,-240.3786 240.2552,-216.2663"/>
<text text-anchor="middle" x="216.7857" y="-265.4955" font-family="Times,serif" font-size="14.00" fill="#000000">18</text>
</g>
<!-- bus18 -->
<g id="node18" class="node">
<title>bus18</title>
<ellipse fill="none" stroke="#000000" cx="171.5797" cy="-368.7159" rx="27" ry="18"/>
<text text-anchor="middle" x="171.5797" y="-365.0159" font-family="Times,serif" font-size="14.00" fill="#000000">16</text>
</g>
<!-- bus4&#45;&#45;bus18 -->
<g id="edge8" class="edge">
<title>bus4&#45;&#45;bus18</title>
<path fill="none" stroke="#000000" d="M189.8488,-341.3246C187.5093,-344.8323 185.0406,-348.5336 182.7005,-352.0421"/>
<text text-anchor="middle" x="193.2746" y="-350.4833" font-family="Times,serif" font-size="14.00" fill="#000000">19</text>
</g>
<!-- bus19 -->
<g id="node19" class="node">
<title>bus19</title>
<ellipse fill="none" stroke="#000000" cx="168.7196" cy="-239.3975" rx="27" ry="18"/>
<text text-anchor="middle" x="168.7196" y="-235.6975" font-family="Times,serif" font-size="14.00" fill="#000000">14</text>
</g>
<!-- bus4&#45;&#45;bus19 -->
<g id="edge7" class="edge">
<title>bus4&#45;&#45;bus19</title>
<path fill="none" stroke="#000000" d="M194.2749,-307.0049C188.7427,-292.3693 180.9199,-271.6736 175.39,-257.0443"/>
<text text-anchor="middle" x="177.8325" y="-285.8246" font-family="Times,serif" font-size="14.00" fill="#000000">17</text>
</g>
<!-- bus5 -->
<g id="node5" class="node">
<title>bus5</title>
<ellipse fill="none" stroke="#000000" cx="762.1606" cy="-384.4727" rx="27" ry="18"/>
<text text-anchor="middle" x="762.1606" y="-380.7727" font-family="Times,serif" font-size="14.00" fill="#000000">29</text>
</g>
<!-- bus29 -->
<g id="node29" class="node">
<title>bus29</title>
<ellipse fill="none" stroke="#000000" cx="737.8809" cy="-433.7502" rx="27" ry="18"/>
<text text-anchor="middle" x="737.8809" y="-430.0502" font-family="Times,serif" font-size="14.00" fill="#000000">30</text>
</g>
<!-- bus5&#45;&#45;bus29 -->
<g id="edge10" class="edge">
<title>bus5&#45;&#45;bus29</title>
<path fill="none" stroke="#000000" d="M753.6687,-401.7076C751.3166,-406.4814 748.7631,-411.6639 746.409,-416.4418"/>
<text text-anchor="middle" x="743.0389" y="-397.8747" font-family="Times,serif" font-size="14.00" fill="#000000">39</text>
</g>
<!-- bus6 -->
<g id="node6" class="node">
<title>bus6</title>
<ellipse fill="none" stroke="#000000" cx="329.5886" cy="-239.514" rx="27" ry="18"/>
<text text-anchor="middle" x="329.5886" y="-235.814" font-family="Times,serif" font-size="14.00" fill="#000000">20</text>
</g>
<!-- bus7&#45;&#45;bus2 -->
<g id="edge13" class="edge">
<title>bus7&#45;&#45;bus2</title>
<path fill="none" stroke="#000000" d="M321.2275,-547.7271C312.7679,-530.0313 299.7309,-502.7602 291.2974,-485.1188"/>
<text text-anchor="middle" x="302.7624" y="-520.223" font-family="Times,serif" font-size="14.00" fill="#000000">3</text>
</g>
<!-- bus7&#45;&#45;bus8 -->
<g id="edge11" class="edge">
<title>bus7&#45;&#45;bus8</title>
<path fill="none" stroke="#000000" d="M344.1289,-549.4382C359.5051,-532.9266 383.5729,-507.0818 398.8858,-490.6383"/>
<text text-anchor="middle" x="368.0073" y="-523.8382" font-family="Times,serif" font-size="14.00" fill="#000000">6</text>
</g>
<!-- bus14 -->
<g id="node14" class="node">
<title>bus14</title>
<ellipse fill="none" stroke="#000000" cx="394.6908" cy="-598.5137" rx="27" ry="18"/>
<text text-anchor="middle" x="394.6908" y="-594.8137" font-family="Times,serif" font-size="14.00" fill="#000000">5</text>
</g>
<!-- bus7&#45;&#45;bus14 -->
<g id="edge12" class="edge">
<title>bus7&#45;&#45;bus14</title>
<path fill="none" stroke="#000000" d="M351.2319,-576.2317C358.1914,-579.7999 365.8994,-583.7519 372.868,-587.3248"/>
<text text-anchor="middle" x="363.7999" y="-570.5782" font-family="Times,serif" font-size="14.00" fill="#000000">5</text>
</g>
<!-- bus17 -->
<g id="node17" class="node">
<title>bus17</title>
<ellipse fill="none" stroke="#000000" cx="547.7021" cy="-445.5676" rx="27" ry="18"/>
<text text-anchor="middle" x="547.7021" y="-441.8676" font-family="Times,serif" font-size="14.00" fill="#000000">28</text>
</g>
<!-- bus8&#45;&#45;bus17 -->
<g id="edge16" class="edge">
<title>bus8&#45;&#45;bus17</title>
<path fill="none" stroke="#000000" d="M439.2229,-469.4446C463.0206,-464.2066 498.0972,-456.486 521.8697,-451.2535"/>
<text text-anchor="middle" x="473.5463" y="-464.149" font-family="Times,serif" font-size="14.00" fill="#000000">41</text>
</g>
<!-- bus21 -->
<g id="node21" class="node">
<title>bus21</title>
<ellipse fill="none" stroke="#000000" cx="456.7498" cy="-567.7886" rx="27" ry="18"/>
<text text-anchor="middle" x="456.7498" y="-564.0886" font-family="Times,serif" font-size="14.00" fill="#000000">7</text>
</g>
<!-- bus8&#45;&#45;bus21 -->
<g id="edge18" class="edge">
<title>bus8&#45;&#45;bus21</title>
<path fill="none" stroke="#000000" d="M421.4815,-492.573C429.2477,-509.1357 440.8619,-533.905 448.6159,-550.4418"/>
<text text-anchor="middle" x="431.5487" y="-525.3074" font-family="Times,serif" font-size="14.00" fill="#000000">9</text>
</g>
<!-- bus22 -->
<g id="node22" class="node">
<title>bus22</title>
<ellipse fill="none" stroke="#000000" cx="507.6838" cy="-505.2548" rx="27" ry="18"/>
<text text-anchor="middle" x="507.6838" y="-501.5548" font-family="Times,serif" font-size="14.00" fill="#000000">8</text>
</g>
<!-- bus8&#45;&#45;bus22 -->
<g id="edge17" class="edge">
<title>bus8&#45;&#45;bus22</title>
<path fill="none" stroke="#000000" d="M438.1063,-483.0582C451.9776,-487.4834 469.2096,-492.9808 483.054,-497.3974"/>
<text text-anchor="middle" x="453.5802" y="-494.0278" font-family="Times,serif" font-size="14.00" fill="#000000">10</text>
</g>
<!-- bus25 -->
<g id="node25" class="node">
<title>bus25</title>
<ellipse fill="none" stroke="#000000" cx="388.2619" cy="-347.6224" rx="27" ry="18"/>
<text text-anchor="middle" x="388.2619" y="-343.9224" font-family="Times,serif" font-size="14.00" fill="#000000">10</text>
</g>
<!-- bus8&#45;&#45;bus25 -->
<g id="edge14" class="edge">
<title>bus8&#45;&#45;bus25</title>
<path fill="none" stroke="#000000" d="M409.7752,-457.1472C405.0012,-432.8425 396.5445,-389.7891 391.7797,-365.5317"/>
<text text-anchor="middle" x="393.7775" y="-415.1394" font-family="Times,serif" font-size="14.00" fill="#000000">12</text>
</g>
<!-- bus27 -->
<g id="node27" class="node">
<title>bus27</title>
<ellipse fill="none" stroke="#000000" cx="416.9006" cy="-409.5407" rx="27" ry="18"/>
<text text-anchor="middle" x="416.9006" y="-405.8407" font-family="Times,serif" font-size="14.00" fill="#000000">9</text>
</g>
<!-- bus8&#45;&#45;bus27 -->
<g id="edge15" class="edge">
<title>bus8&#45;&#45;bus27</title>
<path fill="none" stroke="#000000" d="M414.3109,-456.8727C414.8088,-447.773 415.4089,-436.8042 415.906,-427.718"/>
<text text-anchor="middle" x="408.1085" y="-446.0953" font-family="Times,serif" font-size="14.00" fill="#000000">11</text>
</g>
<!-- bus16 -->
<g id="node16" class="node">
<title>bus16</title>
<ellipse fill="none" stroke="#000000" cx="660.2332" cy="-375.97" rx="27" ry="18"/>
<text text-anchor="middle" x="660.2332" y="-372.27" font-family="Times,serif" font-size="14.00" fill="#000000">27</text>
</g>
<!-- bus9&#45;&#45;bus16 -->
<g id="edge19" class="edge">
<title>bus9&#45;&#45;bus16</title>
<path fill="none" stroke="#000000" d="M629.9104,-271.1023C636.6376,-294.3674 648.3373,-334.8295 655.0676,-358.1052"/>
<text text-anchor="middle" x="635.489" y="-318.4038" font-family="Times,serif" font-size="14.00" fill="#000000">35</text>
</g>
<!-- bus23 -->
<g id="node23" class="node">
<title>bus23</title>
<ellipse fill="none" stroke="#000000" cx="699.3613" cy="-200.7972" rx="27" ry="18"/>
<text text-anchor="middle" x="699.3613" y="-197.0972" font-family="Times,serif" font-size="14.00" fill="#000000">26</text>
</g>
<!-- bus9&#45;&#45;bus23 -->
<g id="edge20" class="edge">
<title>bus9&#45;&#45;bus23</title>
<path fill="none" stroke="#000000" d="M643.5783,-240.0207C654.8886,-232.0679 669.2307,-221.9834 680.54,-214.0313"/>
<text text-anchor="middle" x="655.0591" y="-215.826" font-family="Times,serif" font-size="14.00" fill="#000000">34</text>
</g>
<!-- bus10 -->
<g id="node10" class="node">
<title>bus10</title>
<ellipse fill="none" stroke="#000000" cx="386.4755" cy="-139.6018" rx="27" ry="18"/>
<text text-anchor="middle" x="386.4755" y="-135.9018" font-family="Times,serif" font-size="14.00" fill="#000000">23</text>
</g>
<!-- bus10&#45;&#45;bus1 -->
<g id="edge21" class="edge">
<title>bus10&#45;&#45;bus1</title>
<path fill="none" stroke="#000000" d="M411.4706,-146.7763C434.824,-153.4795 469.495,-163.4313 492.8183,-170.1259"/>
<text text-anchor="middle" x="445.1445" y="-162.2511" font-family="Times,serif" font-size="14.00" fill="#000000">32</text>
</g>
<!-- bus11 -->
<g id="node11" class="node">
<title>bus11</title>
<ellipse fill="none" stroke="#000000" cx="458.2017" cy="-266.8725" rx="27" ry="18"/>
<text text-anchor="middle" x="458.2017" y="-263.1725" font-family="Times,serif" font-size="14.00" fill="#000000">22</text>
</g>
<!-- bus11&#45;&#45;bus1 -->
<g id="edge22" class="edge">
<title>bus11&#45;&#45;bus1</title>
<path fill="none" stroke="#000000" d="M469.3967,-250.0197C480.105,-233.8994 496.1528,-209.7412 506.7766,-193.7482"/>
<text text-anchor="middle" x="481.0867" y="-225.684" font-family="Times,serif" font-size="14.00" fill="#000000">31</text>
</g>
<!-- bus12 -->
<g id="node12" class="node">
<title>bus12</title>
<ellipse fill="none" stroke="#000000" cx="478.9606" cy="-429.6144" rx="27" ry="18"/>
<text text-anchor="middle" x="478.9606" y="-425.9144" font-family="Times,serif" font-size="14.00" fill="#000000">11</text>
</g>
<!-- bus14&#45;&#45;bus21 -->
<g id="edge23" class="edge">
<title>bus14&#45;&#45;bus21</title>
<path fill="none" stroke="#000000" d="M416.396,-587.7676C422.408,-584.7911 428.9347,-581.5597 434.9519,-578.5806"/>
<text text-anchor="middle" x="425.674" y="-571.9741" font-family="Times,serif" font-size="14.00" fill="#000000">8</text>
</g>
<!-- bus15&#45;&#45;bus10 -->
<g id="edge25" class="edge">
<title>bus15&#45;&#45;bus10</title>
<path fill="none" stroke="#000000" d="M269.7903,-188.7397C295.6864,-177.8345 337.4518,-160.2464 363.362,-149.3353"/>
<text text-anchor="middle" x="309.5761" y="-172.8375" font-family="Times,serif" font-size="14.00" fill="#000000">30</text>
</g>
<!-- bus28 -->
<g id="node28" class="node">
<title>bus28</title>
<ellipse fill="none" stroke="#000000" cx="251.6235" cy="-98.5617" rx="27" ry="18"/>
<text text-anchor="middle" x="251.6235" y="-94.8617" font-family="Times,serif" font-size="14.00" fill="#000000">18</text>
</g>
<!-- bus15&#45;&#45;bus28 -->
<g id="edge24" class="edge">
<title>bus15&#45;&#45;bus28</title>
<path fill="none" stroke="#000000" d="M247.612,-180.1361C248.4984,-162.1114 249.8438,-134.7526 250.7282,-116.7682"/>
<text text-anchor="middle" x="242.1701" y="-152.2521" font-family="Times,serif" font-size="14.00" fill="#000000">22</text>
</g>
<!-- bus16&#45;&#45;bus5 -->
<g id="edge27" class="edge">
<title>bus16&#45;&#45;bus5</title>
<path fill="none" stroke="#000000" d="M687.2803,-378.2262C702.1426,-379.4661 720.5145,-380.9986 735.3408,-382.2354"/>
<text text-anchor="middle" x="704.3105" y="-384.0308" font-family="Times,serif" font-size="14.00" fill="#000000">37</text>
</g>
<!-- bus16&#45;&#45;bus29 -->
<g id="edge26" class="edge">
<title>bus16&#45;&#45;bus29</title>
<path fill="none" stroke="#000000" d="M678.6346,-389.6631C691.0123,-398.8737 707.2616,-410.9653 719.6116,-420.1554"/>
<text text-anchor="middle" x="692.1231" y="-408.7092" font-family="Times,serif" font-size="14.00" fill="#000000">38</text>
</g>
<!-- bus17&#45;&#45;bus16 -->
<g id="edge28" class="edge">
<title>bus17&#45;&#45;bus16</title>
<path fill="none" stroke="#000000" d="M567.5614,-433.2851C588.0047,-420.6415 619.685,-401.048 640.194,-388.3637"/>
<text text-anchor="middle" x="596.8777" y="-414.6244" font-family="Times,serif" font-size="14.00" fill="#000000">36</text>
</g>
<!-- bus24 -->
<g id="node24" class="node">
<title>bus24</title>
<ellipse fill="none" stroke="#000000" cx="278.8042" cy="-361.1204" rx="27" ry="18"/>
<text text-anchor="middle" x="278.8042" y="-357.4204" font-family="Times,serif" font-size="14.00" fill="#000000">17</text>
</g>
<!-- bus18&#45;&#45;bus24 -->
<g id="edge29" class="edge">
<title>bus18&#45;&#45;bus24</title>
<path fill="none" stroke="#000000" d="M198.637,-366.7992C214.8914,-365.6478 235.5027,-364.1878 251.7556,-363.0365"/>
<text text-anchor="middle" x="218.1963" y="-368.7179" font-family="Times,serif" font-size="14.00" fill="#000000">21</text>
</g>
<!-- bus19&#45;&#45;bus15 -->
<g id="edge30" class="edge">
<title>bus19&#45;&#45;bus15</title>
<path fill="none" stroke="#000000" d="M190.0311,-228.2108C201.0358,-222.4343 214.4243,-215.4065 225.4253,-209.6319"/>
<text text-anchor="middle" x="200.7282" y="-207.7214" font-family="Times,serif" font-size="14.00" fill="#000000">20</text>
</g>
<!-- bus20 -->
<g id="node20" class="node">
<title>bus20</title>
<ellipse fill="none" stroke="#000000" cx="461.6875" cy="-324.1627" rx="27" ry="18"/>
<text text-anchor="middle" x="461.6875" y="-320.4627" font-family="Times,serif" font-size="14.00" fill="#000000">21</text>
</g>
<!-- bus20&#45;&#45;bus11 -->
<g id="edge31" class="edge">
<title>bus20&#45;&#45;bus11</title>
<path fill="none" stroke="#000000" d="M460.5846,-306.0357C460.1777,-299.3483 459.7167,-291.7726 459.3094,-285.0782"/>
<text text-anchor="middle" x="452.947" y="-299.357" font-family="Times,serif" font-size="14.00" fill="#000000">29</text>
</g>
<!-- bus22&#45;&#45;bus17 -->
<g id="edge32" class="edge">
<title>bus22&#45;&#45;bus17</title>
<path fill="none" stroke="#000000" d="M518.8311,-488.6286C524.3816,-480.35 531.0723,-470.3709 536.6145,-462.1046"/>
<text text-anchor="middle" x="520.7228" y="-464.1666" font-family="Times,serif" font-size="14.00" fill="#000000">40</text>
</g>
<!-- bus25&#45;&#45;bus6 -->
<g id="edge33" class="edge">
<title>bus25&#45;&#45;bus6</title>
<path fill="none" stroke="#000000" d="M378.835,-330.2529C367.8212,-309.9594 349.7185,-276.6042 338.7987,-256.484"/>
<text text-anchor="middle" x="351.8169" y="-282.1684" font-family="Times,serif" font-size="14.00" fill="#000000">25</text>
</g>
<!-- bus25&#45;&#45;bus11 -->
<g id="edge35" class="edge">
<title>bus25&#45;&#45;bus11</title>
<path fill="none" stroke="#000000" d="M402.0798,-331.6688C414.4208,-317.4203 432.3915,-296.6721 444.6505,-282.5182"/>
<text text-anchor="middle" x="416.3651" y="-310.8935" font-family="Times,serif" font-size="14.00" fill="#000000">28</text>
</g>
<!-- bus25&#45;&#45;bus20 -->
<g id="edge34" class="edge">
<title>bus25&#45;&#45;bus20</title>
<path fill="none" stroke="#000000" d="M412.7116,-339.8107C420.5545,-337.3048 429.2411,-334.5294 437.0943,-332.0203"/>
<text text-anchor="middle" x="424.9029" y="-324.7155" font-family="Times,serif" font-size="14.00" fill="#000000">27</text>
</g>
<!-- bus25&#45;&#45;bus24 -->
<g id="edge36" class="edge">
<title>bus25&#45;&#45;bus24</title>
<path fill="none" stroke="#000000" d="M361.4856,-350.9244C344.5237,-353.0161 322.6652,-355.7116 305.6835,-357.8058"/>
<text text-anchor="middle" x="326.5845" y="-358.1651" font-family="Times,serif" font-size="14.00" fill="#000000">26</text>
</g>
<!-- bus26 -->
<g id="node26" class="node">
<title>bus26</title>
<ellipse fill="none" stroke="#000000" cx="268.1396" cy="-146.3471" rx="27" ry="18"/>
<text text-anchor="middle" x="268.1396" y="-142.6471" font-family="Times,serif" font-size="14.00" fill="#000000">19</text>
</g>
<!-- bus26&#45;&#45;bus6 -->
<g id="edge37" class="edge">
<title>bus26&#45;&#45;bus6</title>
<path fill="none" stroke="#000000" d="M279.1255,-163.0035C290.3104,-179.9616 307.5475,-206.0959 318.6979,-223.0018"/>
<text text-anchor="middle" x="291.9117" y="-196.8026" font-family="Times,serif" font-size="14.00" fill="#000000">24</text>
</g>
<!-- bus27&#45;&#45;bus12 -->
<g id="edge38" class="edge">
<title>bus27&#45;&#45;bus12</title>
<path fill="none" stroke="#000000" d="M441.4283,-417.4744C445.765,-418.8771 450.2792,-420.3372 454.6109,-421.7384"/>
<text text-anchor="middle" x="451.5196" y="-408.4064" font-family="Times,serif" font-size="14.00" fill="#000000">13</text>
</g>
<!-- bus27&#45;&#45;bus25 -->
<g id="edge39" class="edge">
<title>bus27&#45;&#45;bus25</title>
<path fill="none" stroke="#000000" d="M408.9231,-392.293C405.0172,-383.8481 400.3223,-373.6975 396.3956,-365.2078"/>
<text text-anchor="middle" x="395.6594" y="-382.5504" font-family="Times,serif" font-size="14.00" fill="#000000">14</text>
</g>
<!-- bus28&#45;&#45;bus26 -->
<g id="edge40" class="edge">
<title>bus28&#45;&#45;bus26</title>
<path fill="none" stroke="#000000" d="M257.7735,-116.3552C259.1676,-120.3886 260.6475,-124.6704 262.0395,-128.6978"/>
<text text-anchor="middle" x="252.9065" y="-126.3265" font-family="Times,serif" font-size="14.00" fill="#000000">23</text>
</g>
<!-- bus30&#45;&#45;bus2 -->
<g id="edge41" class="edge">
<title>bus30&#45;&#45;bus2</title>
<path fill="none" stroke="#000000" d="M221.7109,-538.3622C235.2667,-522.7904 255.8423,-499.1545 269.3678,-483.6173"/>
<text text-anchor="middle" x="249.0394" y="-514.7898" font-family="Times,serif" font-size="14.00" fill="#000000">4</text>
</g>
<!-- load1 -->
<g id="node31" class="node">
<title>load1</title>
<polygon fill="none" stroke="#b03060" points="522.6766,-658.3784 468.6766,-658.3784 468.6766,-622.3784 522.6766,-622.3784 522.6766,-658.3784"/>
<text text-anchor="middle" x="495.6766" y="-636.6784" font-family="Times,serif" font-size="14.00" fill="#000000">7</text>
</g>
<!-- load1&#45;&#45;bus21 -->
<g id="edge42" class="edge">
<title>load1&#45;&#45;bus21</title>
<path fill="none" stroke="#b03060" stroke-dasharray="1,5" d="M485.8537,-622.0609C479.7275,-610.6369 471.8965,-596.0338 465.901,-584.8536"/>
</g>
<!-- load2 -->
<g id="node32" class="node">
<title>load2</title>
<polygon fill="none" stroke="#b03060" points="388.638,-673.4836 334.638,-673.4836 334.638,-637.4836 388.638,-637.4836 388.638,-673.4836"/>
<text text-anchor="middle" x="361.638" y="-651.7836" font-family="Times,serif" font-size="14.00" fill="#000000">2</text>
</g>
<!-- load2&#45;&#45;bus7 -->
<g id="edge43" class="edge">
<title>load2&#45;&#45;bus7</title>
<path fill="none" stroke="#b03060" stroke-dasharray="1,5" d="M355.1417,-637.1947C349.499,-621.3087 341.3792,-598.449 335.8045,-582.7546"/>
</g>
<!-- load3 -->
<g id="node33" class="node">
<title>load3</title>
<polygon fill="none" stroke="#b03060" points="253.4182,-36 199.4182,-36 199.4182,0 253.4182,0 253.4182,-36"/>
<text text-anchor="middle" x="226.4182" y="-14.3" font-family="Times,serif" font-size="14.00" fill="#000000">18</text>
</g>
<!-- load3&#45;&#45;bus28 -->
<g id="edge44" class="edge">
<title>load3&#45;&#45;bus28</title>
<path fill="none" stroke="#b03060" stroke-dasharray="1,5" d="M232.1377,-36.2807C236.3208,-49.6508 241.9634,-67.6856 246.0999,-80.907"/>
</g>
<!-- load4 -->
<g id="node34" class="node">
<title>load4</title>
<polygon fill="none" stroke="#b03060" points="821.2733,-502.8759 767.2733,-502.8759 767.2733,-466.8759 821.2733,-466.8759 821.2733,-502.8759"/>
<text text-anchor="middle" x="794.2733" y="-481.1759" font-family="Times,serif" font-size="14.00" fill="#000000">30</text>
</g>
<!-- load4&#45;&#45;bus29 -->
<g id="edge45" class="edge">
<title>load4&#45;&#45;bus29</title>
<path fill="none" stroke="#b03060" stroke-dasharray="1,5" d="M774.2327,-466.7069C767.6479,-460.7371 760.4137,-454.1786 754.1446,-448.495"/>
</g>
<!-- load5 -->
<g id="node35" class="node">
<title>load5</title>
<polygon fill="none" stroke="#b03060" points="165.5138,-610.2554 111.5138,-610.2554 111.5138,-574.2554 165.5138,-574.2554 165.5138,-610.2554"/>
<text text-anchor="middle" x="138.5138" y="-588.5554" font-family="Times,serif" font-size="14.00" fill="#000000">3</text>
</g>
<!-- load5&#45;&#45;bus30 -->
<g id="edge46" class="edge">
<title>load5&#45;&#45;bus30</title>
<path fill="none" stroke="#b03060" stroke-dasharray="1,5" d="M165.5511,-577.4299C172.5558,-573.589 179.9992,-569.5075 186.6614,-565.8544"/>
</g>
<!-- load6 -->
<g id="node36" class="node">
<title>load6</title>
<polygon fill="none" stroke="#b03060" points="388.191,-321.6012 334.191,-321.6012 334.191,-285.6012 388.191,-285.6012 388.191,-321.6012"/>
<text text-anchor="middle" x="361.191" y="-299.9012" font-family="Times,serif" font-size="14.00" fill="#000000">10</text>
</g>
<!-- load6&#45;&#45;bus25 -->
<g id="edge47" class="edge">
<title>load6&#45;&#45;bus25</title>
<path fill="none" stroke="#b03060" stroke-dasharray="1,5" d="M372.3581,-321.7604C374.2223,-324.792 376.1484,-327.9241 377.989,-330.9171"/>
</g>
<!-- load7 -->
<g id="node37" class="node">
<title>load7</title>
<polygon fill="none" stroke="#b03060" points="260.6375,-423.2686 206.6375,-423.2686 206.6375,-387.2686 260.6375,-387.2686 260.6375,-423.2686"/>
<text text-anchor="middle" x="233.6375" y="-401.5686" font-family="Times,serif" font-size="14.00" fill="#000000">17</text>
</g>
<!-- load7&#45;&#45;bus24 -->
<g id="edge48" class="edge">
<title>load7&#45;&#45;bus24</title>
<path fill="none" stroke="#b03060" stroke-dasharray="1,5" d="M252.2693,-387.057C255.9629,-383.4467 259.8021,-379.694 263.3749,-376.2018"/>
</g>
<!-- load8 -->
<g id="node38" class="node">
<title>load8</title>
<polygon fill="none" stroke="#b03060" points="216.5632,-112.1647 162.5632,-112.1647 162.5632,-76.1647 216.5632,-76.1647 216.5632,-112.1647"/>
<text text-anchor="middle" x="189.5632" y="-90.4647" font-family="Times,serif" font-size="14.00" fill="#000000">19</text>
</g>
<!-- load8&#45;&#45;bus26 -->
<g id="edge49" class="edge">
<title>load8&#45;&#45;bus26</title>
<path fill="none" stroke="#b03060" stroke-dasharray="1,5" d="M216.6047,-112.1229C227.2591,-119.1985 239.2486,-127.1607 248.9805,-133.6236"/>
</g>
<!-- load9 -->
<g id="node39" class="node">
<title>load9</title>
<polygon fill="none" stroke="#b03060" points="589.3934,-574.5221 535.3934,-574.5221 535.3934,-538.5221 589.3934,-538.5221 589.3934,-574.5221"/>
<text text-anchor="middle" x="562.3934" y="-552.8221" font-family="Times,serif" font-size="14.00" fill="#000000">8</text>
</g>
<!-- load9&#45;&#45;bus22 -->
<g id="edge50" class="edge">
<title>load9&#45;&#45;bus22</title>
<path fill="none" stroke="#b03060" stroke-dasharray="1,5" d="M542.9508,-538.3028C536.5625,-532.3164 529.5442,-525.7398 523.4622,-520.0404"/>
</g>
<!-- load10 -->
<g id="node40" class="node">
<title>load10</title>
<polygon fill="none" stroke="#b03060" points="557.7922,-343.5169 503.7922,-343.5169 503.7922,-307.5169 557.7922,-307.5169 557.7922,-343.5169"/>
<text text-anchor="middle" x="530.7922" y="-321.8169" font-family="Times,serif" font-size="14.00" fill="#000000">21</text>
</g>
<!-- load10&#45;&#45;bus20 -->
<g id="edge51" class="edge">
<title>load10&#45;&#45;bus20</title>
<path fill="none" stroke="#b03060" stroke-dasharray="1,5" d="M503.4802,-324.9817C498.6512,-324.8871 493.6247,-324.7886 488.8012,-324.694"/>
</g>
<!-- load11 -->
<g id="node41" class="node">
<title>load11</title>
<polygon fill="none" stroke="#b03060" points="399.3071,-76.3815 345.3071,-76.3815 345.3071,-40.3815 399.3071,-40.3815 399.3071,-76.3815"/>
<text text-anchor="middle" x="372.3071" y="-54.6815" font-family="Times,serif" font-size="14.00" fill="#000000">23</text>
</g>
<!-- load11&#45;&#45;bus10 -->
<g id="edge52" class="edge">
<title>load11&#45;&#45;bus10</title>
<path fill="none" stroke="#b03060" stroke-dasharray="1,5" d="M375.4515,-76.4069C377.7995,-89.8665 380.994,-108.1793 383.3399,-121.6268"/>
</g>
<!-- load12 -->
<g id="node42" class="node">
<title>load12</title>
<polygon fill="none" stroke="#b03060" points="373.0749,-208.0236 319.0749,-208.0236 319.0749,-172.0236 373.0749,-172.0236 373.0749,-208.0236"/>
<text text-anchor="middle" x="346.0749" y="-186.3236" font-family="Times,serif" font-size="14.00" fill="#000000">20</text>
</g>
<!-- load12&#45;&#45;bus6 -->
<g id="edge53" class="edge">
<title>load12&#45;&#45;bus6</title>
<path fill="none" stroke="#b03060" stroke-dasharray="1,5" d="M340.0296,-208.171C338.5593,-212.5849 336.9883,-217.301 335.5231,-221.6993"/>
</g>
<!-- load13 -->
<g id="node43" class="node">
<title>load13</title>
<polygon fill="none" stroke="#b03060" points="158.1685,-317.9764 104.1685,-317.9764 104.1685,-281.9764 158.1685,-281.9764 158.1685,-317.9764"/>
<text text-anchor="middle" x="131.1685" y="-296.2764" font-family="Times,serif" font-size="14.00" fill="#000000">12</text>
</g>
<!-- load13&#45;&#45;bus4 -->
<g id="edge54" class="edge">
<title>load13&#45;&#45;bus4</title>
<path fill="none" stroke="#b03060" stroke-dasharray="1,5" d="M158.3492,-309.596C164.4725,-311.7631 170.9294,-314.0483 176.9133,-316.1661"/>
</g>
<!-- load14 -->
<g id="node44" class="node">
<title>load14</title>
<polygon fill="none" stroke="#b03060" points="117.3529,-225.3795 63.3529,-225.3795 63.3529,-189.3795 117.3529,-189.3795 117.3529,-225.3795"/>
<text text-anchor="middle" x="90.3529" y="-203.6795" font-family="Times,serif" font-size="14.00" fill="#000000">14</text>
</g>
<!-- load14&#45;&#45;bus19 -->
<g id="edge55" class="edge">
<title>load14&#45;&#45;bus19</title>
<path fill="none" stroke="#b03060" stroke-dasharray="1,5" d="M117.7618,-218.5778C126.8542,-222.2927 136.8792,-226.3886 145.6144,-229.9575"/>
</g>
<!-- load15 -->
<g id="node45" class="node">
<title>load15</title>
<polygon fill="none" stroke="#b03060" points="583.6509,-132.2445 529.6509,-132.2445 529.6509,-96.2445 583.6509,-96.2445 583.6509,-132.2445"/>
<text text-anchor="middle" x="556.6509" y="-110.5445" font-family="Times,serif" font-size="14.00" fill="#000000">24</text>
</g>
<!-- load15&#45;&#45;bus1 -->
<g id="edge56" class="edge">
<title>load15&#45;&#45;bus1</title>
<path fill="none" stroke="#b03060" stroke-dasharray="1,5" d="M545.3905,-132.4752C539.9112,-141.3463 533.3701,-151.9364 528.0237,-160.5924"/>
</g>
<!-- load16 -->
<g id="node46" class="node">
<title>load16</title>
<polygon fill="none" stroke="#b03060" points="111.2608,-365.2374 57.2608,-365.2374 57.2608,-329.2374 111.2608,-329.2374 111.2608,-365.2374"/>
<text text-anchor="middle" x="84.2608" y="-343.5374" font-family="Times,serif" font-size="14.00" fill="#000000">16</text>
</g>
<!-- load16&#45;&#45;bus18 -->
<g id="edge57" class="edge">
<title>load16&#45;&#45;bus18</title>
<path fill="none" stroke="#b03060" stroke-dasharray="1,5" d="M111.4104,-353.9156C122.5246,-356.6494 135.3127,-359.795 146.2337,-362.4813"/>
</g>
<!-- load17 -->
<g id="node47" class="node">
<title>load17</title>
<polygon fill="none" stroke="#b03060" points="866.1805,-393.9186 812.1805,-393.9186 812.1805,-357.9186 866.1805,-357.9186 866.1805,-393.9186"/>
<text text-anchor="middle" x="839.1805" y="-372.2186" font-family="Times,serif" font-size="14.00" fill="#000000">29</text>
</g>
<!-- load17&#45;&#45;bus5 -->
<g id="edge58" class="edge">
<title>load17&#45;&#45;bus5</title>
<path fill="none" stroke="#b03060" stroke-dasharray="1,5" d="M811.8093,-378.9586C804.3724,-379.7845 796.3291,-380.6779 788.9261,-381.5001"/>
</g>
<!-- load18 -->
<g id="node48" class="node">
<title>load18</title>
<polygon fill="none" stroke="#b03060" points="202.237,-178.8955 148.237,-178.8955 148.237,-142.8955 202.237,-142.8955 202.237,-178.8955"/>
<text text-anchor="middle" x="175.237" y="-157.1955" font-family="Times,serif" font-size="14.00" fill="#000000">15</text>
</g>
<!-- load18&#45;&#45;bus15 -->
<g id="edge59" class="edge">
<title>load18&#45;&#45;bus15</title>
<path fill="none" stroke="#b03060" stroke-dasharray="1,5" d="M202.2583,-175.0965C209.8483,-179.0855 217.997,-183.3681 225.218,-187.1631"/>
</g>
<!-- load19 -->
<g id="node49" class="node">
<title>load19</title>
<polygon fill="none" stroke="#b03060" points="788.4194,-177.6635 734.4194,-177.6635 734.4194,-141.6635 788.4194,-141.6635 788.4194,-177.6635"/>
<text text-anchor="middle" x="761.4194" y="-155.9635" font-family="Times,serif" font-size="14.00" fill="#000000">26</text>
</g>
<!-- load19&#45;&#45;bus23 -->
<g id="edge60" class="edge">
<title>load19&#45;&#45;bus23</title>
<path fill="none" stroke="#b03060" stroke-dasharray="1,5" d="M734.3803,-177.5857C729.1543,-181.0497 723.7747,-184.6154 718.8479,-187.881"/>
</g>
<!-- load20 -->
<g id="node50" class="node">
<title>load20</title>
<polygon fill="none" stroke="#b03060" points="248.058,-511.6753 194.058,-511.6753 194.058,-475.6753 248.058,-475.6753 248.058,-511.6753"/>
<text text-anchor="middle" x="221.058" y="-489.9753" font-family="Times,serif" font-size="14.00" fill="#000000">4</text>
</g>
<!-- load20&#45;&#45;bus2 -->
<g id="edge61" class="edge">
<title>load20&#45;&#45;bus2</title>
<path fill="none" stroke="#b03060" stroke-dasharray="1,5" d="M248.0727,-482.4398C251.9887,-480.8111 255.9911,-479.1465 259.8241,-477.5523"/>
</g>
<!-- thermal1 -->
<g id="node51" class="node">
<title>thermal1</title>
<polygon fill="none" stroke="#cd853f" points="720.0984,-349.955 693.0984,-331.955 720.0984,-313.955 747.0984,-331.955 720.0984,-349.955"/>
<text text-anchor="middle" x="720.0984" y="-328.255" font-family="Times,serif" font-size="14.00" fill="#000000">4</text>
</g>
<!-- thermal1&#45;&#45;bus16 -->
<g id="edge62" class="edge">
<title>thermal1&#45;&#45;bus16</title>
<path fill="none" stroke="#cd853f" stroke-dasharray="5,2" d="M707.1085,-341.5056C698.7178,-347.6748 687.6785,-355.7912 678.4208,-362.5979"/>
</g>
<!-- thermal2 -->
<g id="node52" class="node">
<title>thermal2</title>
<polygon fill="none" stroke="#cd853f" points="206.0234,-701.4264 179.0234,-683.4264 206.0234,-665.4264 233.0234,-683.4264 206.0234,-701.4264"/>
<text text-anchor="middle" x="206.0234" y="-679.7264" font-family="Times,serif" font-size="14.00" fill="#000000">1</text>
</g>
<!-- thermal2&#45;&#45;bus3 -->
<g id="edge63" class="edge">
<title>thermal2&#45;&#45;bus3</title>
<path fill="none" stroke="#cd853f" stroke-dasharray="5,2" d="M212.0963,-669.2478C217.2089,-657.3113 224.5427,-640.1888 230.021,-627.3986"/>
</g>
<!-- thermal3 -->
<g id="node53" class="node">
<title>thermal3</title>
<polygon fill="none" stroke="#cd853f" points="434.3385,-95.3066 407.3385,-77.3066 434.3385,-59.3066 461.3385,-77.3066 434.3385,-95.3066"/>
<text text-anchor="middle" x="434.3385" y="-73.6066" font-family="Times,serif" font-size="14.00" fill="#000000">5</text>
</g>
<!-- thermal3&#45;&#45;bus10 -->
<g id="edge64" class="edge">
<title>thermal3&#45;&#45;bus10</title>
<path fill="none" stroke="#cd853f" stroke-dasharray="5,2" d="M425.11,-89.3178C417.7212,-98.9346 407.2793,-112.525 399.1136,-123.153"/>
</g>
<!-- thermal4 -->
<g id="node54" class="node">
<title>thermal4</title>
<polygon fill="none" stroke="#cd853f" points="299.5797,-647.9874 272.5797,-629.9874 299.5797,-611.9874 326.5797,-629.9874 299.5797,-647.9874"/>
<text text-anchor="middle" x="299.5797" y="-626.2874" font-family="Times,serif" font-size="14.00" fill="#000000">2</text>
</g>
<!-- thermal4&#45;&#45;bus7 -->
<g id="edge65" class="edge">
<title>thermal4&#45;&#45;bus7</title>
<path fill="none" stroke="#cd853f" stroke-dasharray="5,2" d="M306.0799,-615.9095C310.6228,-606.0706 316.7172,-592.8715 321.5553,-582.3933"/>
</g>
<!-- thermal5 -->
<g id="node55" class="node">
<title>thermal5</title>
<polygon fill="none" stroke="#cd853f" points="27,-438.1212 0,-420.1212 27,-402.1212 54,-420.1212 27,-438.1212"/>
<text text-anchor="middle" x="27" y="-416.4212" font-family="Times,serif" font-size="14.00" fill="#000000">6</text>
</g>
<!-- thermal5&#45;&#45;bus13 -->
<g id="edge66" class="edge">
<title>thermal5&#45;&#45;bus13</title>
<path fill="none" stroke="#cd853f" stroke-dasharray="5,2" d="M44.8538,-413.8101C55.3356,-410.1049 68.7162,-405.375 80.0964,-401.3522"/>
</g>
<!-- thermal6 -->
<g id="node56" class="node">
<title>thermal6</title>
<polygon fill="none" stroke="#cd853f" points="487.9777,-239.3168 460.9777,-221.3168 487.9777,-203.3168 514.9777,-221.3168 487.9777,-239.3168"/>
<text text-anchor="middle" x="487.9777" y="-217.6168" font-family="Times,serif" font-size="14.00" fill="#000000">3</text>
</g>
<!-- thermal6&#45;&#45;bus11 -->
<g id="edge67" class="edge">
<title>thermal6&#45;&#45;bus11</title>
<path fill="none" stroke="#cd853f" stroke-dasharray="5,2" d="M479.5247,-234.2494C476.2923,-239.1947 472.5588,-244.9068 469.128,-250.1558"/>
</g>
</g>
</svg>
