<?xml version="1.0" encoding="UTF-8" standalone="no"?>
<!DOCTYPE svg PUBLIC "-//W3C//DTD SVG 1.1//EN"
 "http://www.w3.org/Graphics/SVG/1.1/DTD/svg11.dtd">
<!-- Generated by graphviz version 2.40.1 (20161225.0304)
 -->
<!-- Title: %3 Pages: 1 -->
<svg width="810pt" height="757pt"
 viewBox="0.00 0.00 810.48 757.42" xmlns="http://www.w3.org/2000/svg" xmlns:xlink="http://www.w3.org/1999/xlink">
<g id="graph0" class="graph" transform="scale(1 1) rotate(0) translate(4 753.416)">
<title>%3</title>
<polygon fill="#ffffff" stroke="transparent" points="-4,4 -4,-753.416 806.477,-753.416 806.477,4 -4,4"/>
<!-- bus1 -->
<g id="node1" class="node">
<title>bus1</title>
<ellipse fill="none" stroke="#000000" cx="226.6198" cy="-394.3105" rx="27" ry="18"/>
<text text-anchor="middle" x="226.6198" y="-390.6105" font-family="Times,serif" font-size="14.00" fill="#000000">24</text>
</g>
<!-- bus2 -->
<g id="node2" class="node">
<title>bus2</title>
<ellipse fill="none" stroke="#000000" cx="511.7447" cy="-460.5195" rx="27" ry="18"/>
<text text-anchor="middle" x="511.7447" y="-456.8195" font-family="Times,serif" font-size="14.00" fill="#000000">4</text>
</g>
<!-- bus16 -->
<g id="node16" class="node">
<title>bus16</title>
<ellipse fill="none" stroke="#000000" cx="631.7236" cy="-496.3218" rx="27" ry="18"/>
<text text-anchor="middle" x="631.7236" y="-492.6218" font-family="Times,serif" font-size="14.00" fill="#000000">5</text>
</g>
<!-- bus2&#45;&#45;bus16 -->
<g id="edge1" class="edge">
<title>bus2&#45;&#45;bus16</title>
<path fill="none" stroke="#000000" d="M536.6044,-467.9378C557.1958,-474.0823 586.3132,-482.7711 606.8958,-488.9131"/>
<text text-anchor="middle" x="568.2501" y="-482.2254" font-family="Times,serif" font-size="14.00" fill="#000000">8</text>
</g>
<!-- bus23 -->
<g id="node23" class="node">
<title>bus23</title>
<ellipse fill="none" stroke="#000000" cx="456.6896" cy="-504.6078" rx="27" ry="18"/>
<text text-anchor="middle" x="456.6896" y="-500.9078" font-family="Times,serif" font-size="14.00" fill="#000000">14</text>
</g>
<!-- bus2&#45;&#45;bus23 -->
<g id="edge2" class="edge">
<title>bus2&#45;&#45;bus23</title>
<path fill="none" stroke="#000000" d="M494.3249,-474.4693C487.8983,-479.6157 480.6182,-485.4457 474.185,-490.5974"/>
<text text-anchor="middle" x="480.7549" y="-471.3334" font-family="Times,serif" font-size="14.00" fill="#000000">9</text>
</g>
<!-- bus3 -->
<g id="node3" class="node">
<title>bus3</title>
<ellipse fill="none" stroke="#000000" cx="627.1603" cy="-304.4036" rx="27" ry="18"/>
<text text-anchor="middle" x="627.1603" y="-300.7036" font-family="Times,serif" font-size="14.00" fill="#000000">1</text>
</g>
<!-- bus8 -->
<g id="node8" class="node">
<title>bus8</title>
<ellipse fill="none" stroke="#000000" cx="555.5188" cy="-294.3409" rx="27" ry="18"/>
<text text-anchor="middle" x="555.5188" y="-290.6409" font-family="Times,serif" font-size="14.00" fill="#000000">2</text>
</g>
<!-- bus3&#45;&#45;bus8 -->
<g id="edge3" class="edge">
<title>bus3&#45;&#45;bus8</title>
<path fill="none" stroke="#000000" d="M600.4837,-300.6566C594.4367,-299.8073 588.0172,-298.9056 581.9792,-298.0575"/>
<text text-anchor="middle" x="587.7314" y="-303.1571" font-family="Times,serif" font-size="14.00" fill="#000000">1</text>
</g>
<!-- bus24 -->
<g id="node24" class="node">
<title>bus24</title>
<ellipse fill="none" stroke="#000000" cx="696.8524" cy="-331.7224" rx="27" ry="18"/>
<text text-anchor="middle" x="696.8524" y="-328.0224" font-family="Times,serif" font-size="14.00" fill="#000000">39</text>
</g>
<!-- bus3&#45;&#45;bus24 -->
<g id="edge4" class="edge">
<title>bus3&#45;&#45;bus24</title>
<path fill="none" stroke="#000000" d="M650.7549,-313.6525C658.0208,-316.5007 666.0178,-319.6355 673.2821,-322.483"/>
<text text-anchor="middle" x="658.5185" y="-321.8677" font-family="Times,serif" font-size="14.00" fill="#000000">2</text>
</g>
<!-- bus4 -->
<g id="node4" class="node">
<title>bus4</title>
<ellipse fill="none" stroke="#000000" cx="547.7342" cy="-584.8684" rx="27" ry="18"/>
<text text-anchor="middle" x="547.7342" y="-581.1684" font-family="Times,serif" font-size="14.00" fill="#000000">12</text>
</g>
<!-- bus13 -->
<g id="node13" class="node">
<title>bus13</title>
<ellipse fill="none" stroke="#000000" cx="609.8404" cy="-596.9586" rx="27" ry="18"/>
<text text-anchor="middle" x="609.8404" y="-593.2586" font-family="Times,serif" font-size="14.00" fill="#000000">11</text>
</g>
<!-- bus4&#45;&#45;bus13 -->
<g id="edge6" class="edge">
<title>bus4&#45;&#45;bus13</title>
<path fill="none" stroke="#000000" d="M573.7129,-589.9257C577.0369,-590.5728 580.4406,-591.2354 583.7661,-591.8827"/>
<text text-anchor="middle" x="578.7395" y="-579.7042" font-family="Times,serif" font-size="14.00" fill="#000000">21</text>
</g>
<!-- bus15 -->
<g id="node15" class="node">
<title>bus15</title>
<ellipse fill="none" stroke="#000000" cx="485.6718" cy="-566.6213" rx="27" ry="18"/>
<text text-anchor="middle" x="485.6718" y="-562.9213" font-family="Times,serif" font-size="14.00" fill="#000000">13</text>
</g>
<!-- bus4&#45;&#45;bus15 -->
<g id="edge5" class="edge">
<title>bus4&#45;&#45;bus15</title>
<path fill="none" stroke="#000000" d="M522.8486,-577.5518C518.8019,-576.362 514.6098,-575.1295 510.5629,-573.9396"/>
<text text-anchor="middle" x="520.2058" y="-564.5457" font-family="Times,serif" font-size="14.00" fill="#000000">22</text>
</g>
<!-- bus5 -->
<g id="node5" class="node">
<title>bus5</title>
<ellipse fill="none" stroke="#000000" cx="416.789" cy="-130.2809" rx="27" ry="18"/>
<text text-anchor="middle" x="416.789" y="-126.5809" font-family="Times,serif" font-size="14.00" fill="#000000">29</text>
</g>
<!-- bus26 -->
<g id="node26" class="node">
<title>bus26</title>
<ellipse fill="none" stroke="#000000" cx="383.8033" cy="-62.0427" rx="27" ry="18"/>
<text text-anchor="middle" x="383.8033" y="-58.3427" font-family="Times,serif" font-size="14.00" fill="#000000">38</text>
</g>
<!-- bus5&#45;&#45;bus26 -->
<g id="edge7" class="edge">
<title>bus5&#45;&#45;bus26</title>
<path fill="none" stroke="#000000" d="M408.4653,-113.0616C403.5031,-102.7961 397.2209,-89.8001 392.239,-79.494"/>
<text text-anchor="middle" x="393.3522" y="-100.0778" font-family="Times,serif" font-size="14.00" fill="#000000">46</text>
</g>
<!-- bus6 -->
<g id="node6" class="node">
<title>bus6</title>
<ellipse fill="none" stroke="#000000" cx="199.2987" cy="-579.6825" rx="27" ry="18"/>
<text text-anchor="middle" x="199.2987" y="-575.9825" font-family="Times,serif" font-size="14.00" fill="#000000">20</text>
</g>
<!-- bus28 -->
<g id="node28" class="node">
<title>bus28</title>
<ellipse fill="none" stroke="#000000" cx="165.8638" cy="-631.3088" rx="27" ry="18"/>
<text text-anchor="middle" x="165.8638" y="-627.6088" font-family="Times,serif" font-size="14.00" fill="#000000">34</text>
</g>
<!-- bus6&#45;&#45;bus28 -->
<g id="edge8" class="edge">
<title>bus6&#45;&#45;bus28</title>
<path fill="none" stroke="#000000" d="M188.5356,-596.3015C184.7176,-602.1969 180.423,-608.8282 176.6067,-614.7209"/>
<text text-anchor="middle" x="175.5712" y="-594.3112" font-family="Times,serif" font-size="14.00" fill="#000000">34</text>
</g>
<!-- bus7 -->
<g id="node7" class="node">
<title>bus7</title>
<ellipse fill="none" stroke="#000000" cx="539.4886" cy="-685.1415" rx="27" ry="18"/>
<text text-anchor="middle" x="539.4886" y="-681.4415" font-family="Times,serif" font-size="14.00" fill="#000000">32</text>
</g>
<!-- bus10 -->
<g id="node10" class="node">
<title>bus10</title>
<ellipse fill="none" stroke="#000000" cx="496.9725" cy="-240.1958" rx="27" ry="18"/>
<text text-anchor="middle" x="496.9725" y="-236.4958" font-family="Times,serif" font-size="14.00" fill="#000000">25</text>
</g>
<!-- bus8&#45;&#45;bus10 -->
<g id="edge10" class="edge">
<title>bus8&#45;&#45;bus10</title>
<path fill="none" stroke="#000000" d="M539.5208,-279.5455C531.2598,-271.9056 521.2093,-262.6107 512.9512,-254.9733"/>
<text text-anchor="middle" x="522.736" y="-271.0594" font-family="Times,serif" font-size="14.00" fill="#000000">4</text>
</g>
<!-- bus38 -->
<g id="node38" class="node">
<title>bus38</title>
<ellipse fill="none" stroke="#000000" cx="589.2926" cy="-250.3401" rx="27" ry="18"/>
<text text-anchor="middle" x="589.2926" y="-246.6401" font-family="Times,serif" font-size="14.00" fill="#000000">30</text>
</g>
<!-- bus8&#45;&#45;bus38 -->
<g id="edge9" class="edge">
<title>bus8&#45;&#45;bus38</title>
<path fill="none" stroke="#000000" d="M567.9031,-278.2065C570.84,-274.3803 573.9729,-270.2987 576.9097,-266.4726"/>
<text text-anchor="middle" x="568.9064" y="-276.1395" font-family="Times,serif" font-size="14.00" fill="#000000">5</text>
</g>
<!-- bus39 -->
<g id="node39" class="node">
<title>bus39</title>
<ellipse fill="none" stroke="#000000" cx="516.4304" cy="-382.3977" rx="27" ry="18"/>
<text text-anchor="middle" x="516.4304" y="-378.6977" font-family="Times,serif" font-size="14.00" fill="#000000">3</text>
</g>
<!-- bus8&#45;&#45;bus39 -->
<g id="edge11" class="edge">
<title>bus8&#45;&#45;bus39</title>
<path fill="none" stroke="#000000" d="M547.7962,-311.7381C540.9434,-327.1757 530.9848,-349.61 524.1369,-365.0367"/>
<text text-anchor="middle" x="539.4666" y="-342.1874" font-family="Times,serif" font-size="14.00" fill="#000000">3</text>
</g>
<!-- bus9 -->
<g id="node9" class="node">
<title>bus9</title>
<ellipse fill="none" stroke="#000000" cx="664.7245" cy="-550.2213" rx="27" ry="18"/>
<text text-anchor="middle" x="664.7245" y="-546.5213" font-family="Times,serif" font-size="14.00" fill="#000000">6</text>
</g>
<!-- bus9&#45;&#45;bus13 -->
<g id="edge14" class="edge">
<title>bus9&#45;&#45;bus13</title>
<path fill="none" stroke="#000000" d="M647.9592,-564.498C641.15,-570.2965 633.3017,-576.9798 626.503,-582.7694"/>
<text text-anchor="middle" x="630.2311" y="-562.4337" font-family="Times,serif" font-size="14.00" fill="#000000">13</text>
</g>
<!-- bus19 -->
<g id="node19" class="node">
<title>bus19</title>
<ellipse fill="none" stroke="#000000" cx="697.5338" cy="-594.2355" rx="27" ry="18"/>
<text text-anchor="middle" x="697.5338" y="-590.5355" font-family="Times,serif" font-size="14.00" fill="#000000">31</text>
</g>
<!-- bus9&#45;&#45;bus19 -->
<g id="edge12" class="edge">
<title>bus9&#45;&#45;bus19</title>
<path fill="none" stroke="#000000" d="M676.7552,-566.3607C679.6082,-570.188 682.6516,-574.2709 685.5046,-578.0981"/>
<text text-anchor="middle" x="688.1299" y="-561.0294" font-family="Times,serif" font-size="14.00" fill="#000000">14</text>
</g>
<!-- bus27 -->
<g id="node27" class="node">
<title>bus27</title>
<ellipse fill="none" stroke="#000000" cx="713.2751" cy="-506.05" rx="27" ry="18"/>
<text text-anchor="middle" x="713.2751" y="-502.35" font-family="Times,serif" font-size="14.00" fill="#000000">7</text>
</g>
<!-- bus9&#45;&#45;bus27 -->
<g id="edge13" class="edge">
<title>bus9&#45;&#45;bus27</title>
<path fill="none" stroke="#000000" d="M680.8912,-535.5129C686.0771,-530.7947 691.8208,-525.5691 697.0135,-520.8448"/>
<text text-anchor="middle" x="681.9524" y="-516.9788" font-family="Times,serif" font-size="14.00" fill="#000000">12</text>
</g>
<!-- bus31 -->
<g id="node31" class="node">
<title>bus31</title>
<ellipse fill="none" stroke="#000000" cx="421.0545" cy="-218.33" rx="27" ry="18"/>
<text text-anchor="middle" x="421.0545" y="-214.63" font-family="Times,serif" font-size="14.00" fill="#000000">26</text>
</g>
<!-- bus10&#45;&#45;bus31 -->
<g id="edge16" class="edge">
<title>bus10&#45;&#45;bus31</title>
<path fill="none" stroke="#000000" d="M472.1141,-233.0361C463.7248,-230.6198 454.3624,-227.9233 445.9687,-225.5058"/>
<text text-anchor="middle" x="462.5414" y="-218.071" font-family="Times,serif" font-size="14.00" fill="#000000">40</text>
</g>
<!-- bus35 -->
<g id="node35" class="node">
<title>bus35</title>
<ellipse fill="none" stroke="#000000" cx="545.1711" cy="-178.3509" rx="27" ry="18"/>
<text text-anchor="middle" x="545.1711" y="-174.6509" font-family="Times,serif" font-size="14.00" fill="#000000">37</text>
</g>
<!-- bus10&#45;&#45;bus35 -->
<g id="edge15" class="edge">
<title>bus10&#45;&#45;bus35</title>
<path fill="none" stroke="#000000" d="M509.6361,-223.9468C516.6647,-214.9282 525.3828,-203.7417 532.4247,-194.7062"/>
<text text-anchor="middle" x="528.0304" y="-213.1265" font-family="Times,serif" font-size="14.00" fill="#000000">41</text>
</g>
<!-- bus11 -->
<g id="node11" class="node">
<title>bus11</title>
<ellipse fill="none" stroke="#000000" cx="157.1127" cy="-381.0428" rx="27" ry="18"/>
<text text-anchor="middle" x="157.1127" y="-377.3428" font-family="Times,serif" font-size="14.00" fill="#000000">23</text>
</g>
<!-- bus11&#45;&#45;bus1 -->
<g id="edge18" class="edge">
<title>bus11&#45;&#45;bus1</title>
<path fill="none" stroke="#000000" d="M183.3904,-386.0588C188.9263,-387.1155 194.7677,-388.2305 200.305,-389.2875"/>
<text text-anchor="middle" x="191.8477" y="-376.4731" font-family="Times,serif" font-size="14.00" fill="#000000">38</text>
</g>
<!-- bus30 -->
<g id="node30" class="node">
<title>bus30</title>
<ellipse fill="none" stroke="#000000" cx="94.8309" cy="-363.0696" rx="27" ry="18"/>
<text text-anchor="middle" x="94.8309" y="-359.3696" font-family="Times,serif" font-size="14.00" fill="#000000">36</text>
</g>
<!-- bus11&#45;&#45;bus30 -->
<g id="edge17" class="edge">
<title>bus11&#45;&#45;bus30</title>
<path fill="none" stroke="#000000" d="M132.1392,-373.836C128.0781,-372.664 123.8712,-371.45 119.81,-370.278"/>
<text text-anchor="middle" x="129.4746" y="-360.857" font-family="Times,serif" font-size="14.00" fill="#000000">39</text>
</g>
<!-- bus12 -->
<g id="node12" class="node">
<title>bus12</title>
<ellipse fill="none" stroke="#000000" cx="151.078" cy="-429.8814" rx="27" ry="18"/>
<text text-anchor="middle" x="151.078" y="-426.1814" font-family="Times,serif" font-size="14.00" fill="#000000">22</text>
</g>
<!-- bus12&#45;&#45;bus11 -->
<g id="edge20" class="edge">
<title>bus12&#45;&#45;bus11</title>
<path fill="none" stroke="#000000" d="M153.3251,-411.6957C153.8345,-407.5735 154.3752,-403.1972 154.8838,-399.0811"/>
<text text-anchor="middle" x="147.1045" y="-409.1884" font-family="Times,serif" font-size="14.00" fill="#000000">36</text>
</g>
<!-- bus14 -->
<g id="node14" class="node">
<title>bus14</title>
<ellipse fill="none" stroke="#000000" cx="89.0255" cy="-450.4254" rx="27" ry="18"/>
<text text-anchor="middle" x="89.0255" y="-446.7254" font-family="Times,serif" font-size="14.00" fill="#000000">35</text>
</g>
<!-- bus12&#45;&#45;bus14 -->
<g id="edge19" class="edge">
<title>bus12&#45;&#45;bus14</title>
<path fill="none" stroke="#000000" d="M126.5532,-438.0009C122.2171,-439.4365 117.7035,-440.9309 113.3722,-442.3648"/>
<text text-anchor="middle" x="116.4627" y="-428.9829" font-family="Times,serif" font-size="14.00" fill="#000000">37</text>
</g>
<!-- bus15&#45;&#45;bus23 -->
<g id="edge21" class="edge">
<title>bus15&#45;&#45;bus23</title>
<path fill="none" stroke="#000000" d="M477.5986,-549.3471C473.6458,-540.8892 468.8946,-530.723 464.9208,-522.2203"/>
<text text-anchor="middle" x="478.2597" y="-524.5837" font-family="Times,serif" font-size="14.00" fill="#000000">23</text>
</g>
<!-- bus16&#45;&#45;bus9 -->
<g id="edge23" class="edge">
<title>bus16&#45;&#45;bus9</title>
<path fill="none" stroke="#000000" d="M641.9844,-513.0805C645.92,-519.5083 650.4109,-526.8432 654.3564,-533.2874"/>
<text text-anchor="middle" x="655.1704" y="-511.9839" font-family="Times,serif" font-size="14.00" fill="#000000">10</text>
</g>
<!-- bus29 -->
<g id="node29" class="node">
<title>bus29</title>
<ellipse fill="none" stroke="#000000" cx="693.2369" cy="-452.2954" rx="27" ry="18"/>
<text text-anchor="middle" x="693.2369" y="-448.5954" font-family="Times,serif" font-size="14.00" fill="#000000">8</text>
</g>
<!-- bus16&#45;&#45;bus29 -->
<g id="edge22" class="edge">
<title>bus16&#45;&#45;bus29</title>
<path fill="none" stroke="#000000" d="M650.1796,-483.1125C657.9652,-477.5402 667.0098,-471.0668 674.7939,-465.4955"/>
<text text-anchor="middle" x="655.4868" y="-463.104" font-family="Times,serif" font-size="14.00" fill="#000000">11</text>
</g>
<!-- bus17 -->
<g id="node17" class="node">
<title>bus17</title>
<ellipse fill="none" stroke="#000000" cx="380.4359" cy="-485.0485" rx="27" ry="18"/>
<text text-anchor="middle" x="380.4359" y="-481.3485" font-family="Times,serif" font-size="14.00" fill="#000000">15</text>
</g>
<!-- bus22 -->
<g id="node22" class="node">
<title>bus22</title>
<ellipse fill="none" stroke="#000000" cx="296.2486" cy="-445.84" rx="27" ry="18"/>
<text text-anchor="middle" x="296.2486" y="-442.14" font-family="Times,serif" font-size="14.00" fill="#000000">16</text>
</g>
<!-- bus17&#45;&#45;bus22 -->
<g id="edge24" class="edge">
<title>bus17&#45;&#45;bus22</title>
<path fill="none" stroke="#000000" d="M357.8752,-474.5414C345.6988,-468.8704 330.7205,-461.8946 318.5796,-456.2402"/>
<text text-anchor="middle" x="331.2274" y="-469.1908" font-family="Times,serif" font-size="14.00" fill="#000000">25</text>
</g>
<!-- bus18 -->
<g id="node18" class="node">
<title>bus18</title>
<ellipse fill="none" stroke="#000000" cx="388.6341" cy="-294.9256" rx="27" ry="18"/>
<text text-anchor="middle" x="388.6341" y="-291.2256" font-family="Times,serif" font-size="14.00" fill="#000000">27</text>
</g>
<!-- bus20 -->
<g id="node20" class="node">
<title>bus20</title>
<ellipse fill="none" stroke="#000000" cx="261.3001" cy="-580.5019" rx="27" ry="18"/>
<text text-anchor="middle" x="261.3001" y="-576.8019" font-family="Times,serif" font-size="14.00" fill="#000000">33</text>
</g>
<!-- bus21 -->
<g id="node21" class="node">
<title>bus21</title>
<ellipse fill="none" stroke="#000000" cx="370.6933" cy="-174.3063" rx="27" ry="18"/>
<text text-anchor="middle" x="370.6933" y="-170.6063" font-family="Times,serif" font-size="14.00" fill="#000000">28</text>
</g>
<!-- bus21&#45;&#45;bus5 -->
<g id="edge25" class="edge">
<title>bus21&#45;&#45;bus5</title>
<path fill="none" stroke="#000000" d="M386.2992,-159.4013C391.105,-154.8114 396.3944,-149.7595 401.1992,-145.1706"/>
<text text-anchor="middle" x="386.7492" y="-141.086" font-family="Times,serif" font-size="14.00" fill="#000000">45</text>
</g>
<!-- bus22&#45;&#45;bus1 -->
<g id="edge26" class="edge">
<title>bus22&#45;&#45;bus1</title>
<path fill="none" stroke="#000000" d="M277.9544,-432.3013C267.8007,-424.7869 255.2063,-415.4663 245.0335,-407.9378"/>
<text text-anchor="middle" x="268.494" y="-408.9195" font-family="Times,serif" font-size="14.00" fill="#000000">29</text>
</g>
<!-- bus25 -->
<g id="node25" class="node">
<title>bus25</title>
<ellipse fill="none" stroke="#000000" cx="234.196" cy="-438.3528" rx="27" ry="18"/>
<text text-anchor="middle" x="234.196" y="-434.6528" font-family="Times,serif" font-size="14.00" fill="#000000">21</text>
</g>
<!-- bus22&#45;&#45;bus25 -->
<g id="edge28" class="edge">
<title>bus22&#45;&#45;bus25</title>
<path fill="none" stroke="#000000" d="M269.5726,-442.6213C266.6819,-442.2726 263.7398,-441.9176 260.8495,-441.5688"/>
<text text-anchor="middle" x="268.711" y="-430.8951" font-family="Times,serif" font-size="14.00" fill="#000000">28</text>
</g>
<!-- bus32 -->
<g id="node32" class="node">
<title>bus32</title>
<ellipse fill="none" stroke="#000000" cx="353.896" cy="-377.8365" rx="27" ry="18"/>
<text text-anchor="middle" x="353.896" y="-374.1365" font-family="Times,serif" font-size="14.00" fill="#000000">17</text>
</g>
<!-- bus22&#45;&#45;bus32 -->
<g id="edge29" class="edge">
<title>bus22&#45;&#45;bus32</title>
<path fill="none" stroke="#000000" d="M309.6189,-430.0677C318.932,-419.0816 331.301,-404.4906 340.5982,-393.5233"/>
<text text-anchor="middle" x="318.1086" y="-415.5955" font-family="Times,serif" font-size="14.00" fill="#000000">26</text>
</g>
<!-- bus34 -->
<g id="node34" class="node">
<title>bus34</title>
<ellipse fill="none" stroke="#000000" cx="250.6609" cy="-533.9008" rx="27" ry="18"/>
<text text-anchor="middle" x="250.6609" y="-530.2008" font-family="Times,serif" font-size="14.00" fill="#000000">19</text>
</g>
<!-- bus22&#45;&#45;bus34 -->
<g id="edge27" class="edge">
<title>bus22&#45;&#45;bus34</title>
<path fill="none" stroke="#000000" d="M287.2419,-463.238C279.1978,-478.7765 267.4843,-501.4033 259.4937,-516.8386"/>
<text text-anchor="middle" x="266.3678" y="-493.8383" font-family="Times,serif" font-size="14.00" fill="#000000">27</text>
</g>
<!-- bus23&#45;&#45;bus17 -->
<g id="edge30" class="edge">
<title>bus23&#45;&#45;bus17</title>
<path fill="none" stroke="#000000" d="M431.2982,-498.0948C423.0665,-495.9834 413.94,-493.6424 405.7164,-491.533"/>
<text text-anchor="middle" x="422.0073" y="-483.6139" font-family="Times,serif" font-size="14.00" fill="#000000">24</text>
</g>
<!-- bus25&#45;&#45;bus12 -->
<g id="edge31" class="edge">
<title>bus25&#45;&#45;bus12</title>
<path fill="none" stroke="#000000" d="M207.4394,-435.6258C197.948,-434.6584 187.2717,-433.5703 177.7845,-432.6033"/>
<text text-anchor="middle" x="185.6119" y="-437.9146" font-family="Times,serif" font-size="14.00" fill="#000000">35</text>
</g>
<!-- bus27&#45;&#45;bus29 -->
<g id="edge32" class="edge">
<title>bus27&#45;&#45;bus29</title>
<path fill="none" stroke="#000000" d="M706.7139,-488.4487C704.5224,-482.5698 702.0793,-476.016 699.8815,-470.1202"/>
<text text-anchor="middle" x="696.2977" y="-483.0845" font-family="Times,serif" font-size="14.00" fill="#000000">15</text>
</g>
<!-- bus36 -->
<g id="node36" class="node">
<title>bus36</title>
<ellipse fill="none" stroke="#000000" cx="712.9844" cy="-394.109" rx="27" ry="18"/>
<text text-anchor="middle" x="712.9844" y="-390.409" font-family="Times,serif" font-size="14.00" fill="#000000">9</text>
</g>
<!-- bus29&#45;&#45;bus36 -->
<g id="edge33" class="edge">
<title>bus29&#45;&#45;bus36</title>
<path fill="none" stroke="#000000" d="M699.2691,-434.5214C701.7191,-427.3025 704.5429,-418.982 706.9891,-411.7742"/>
<text text-anchor="middle" x="696.1291" y="-426.9478" font-family="Times,serif" font-size="14.00" fill="#000000">16</text>
</g>
<!-- bus31&#45;&#45;bus5 -->
<g id="edge36" class="edge">
<title>bus31&#45;&#45;bus5</title>
<path fill="none" stroke="#000000" d="M420.1707,-200.0862C419.4386,-184.9748 418.4034,-163.6063 417.6717,-148.5014"/>
<text text-anchor="middle" x="411.9212" y="-178.0938" font-family="Times,serif" font-size="14.00" fill="#000000">44</text>
</g>
<!-- bus31&#45;&#45;bus18 -->
<g id="edge34" class="edge">
<title>bus31&#45;&#45;bus18</title>
<path fill="none" stroke="#000000" d="M413.6978,-235.7108C408.4294,-248.1578 401.3611,-264.8571 396.0739,-277.3485"/>
<text text-anchor="middle" x="397.8859" y="-260.3296" font-family="Times,serif" font-size="14.00" fill="#000000">42</text>
</g>
<!-- bus31&#45;&#45;bus21 -->
<g id="edge35" class="edge">
<title>bus31&#45;&#45;bus21</title>
<path fill="none" stroke="#000000" d="M404.5644,-203.915C399.0566,-199.1003 392.9165,-193.7329 387.3929,-188.9044"/>
<text text-anchor="middle" x="402.9786" y="-185.2097" font-family="Times,serif" font-size="14.00" fill="#000000">43</text>
</g>
<!-- bus32&#45;&#45;bus18 -->
<g id="edge37" class="edge">
<title>bus32&#45;&#45;bus18</title>
<path fill="none" stroke="#000000" d="M361.2631,-360.2532C367.1583,-346.183 375.3853,-326.5471 381.2777,-312.4835"/>
<text text-anchor="middle" x="364.2704" y="-340.1684" font-family="Times,serif" font-size="14.00" fill="#000000">31</text>
</g>
<!-- bus37 -->
<g id="node37" class="node">
<title>bus37</title>
<ellipse fill="none" stroke="#000000" cx="442.2522" cy="-365.8694" rx="27" ry="18"/>
<text text-anchor="middle" x="442.2522" y="-362.1694" font-family="Times,serif" font-size="14.00" fill="#000000">18</text>
</g>
<!-- bus32&#45;&#45;bus37 -->
<g id="edge38" class="edge">
<title>bus32&#45;&#45;bus37</title>
<path fill="none" stroke="#000000" d="M380.4058,-374.246C391.5888,-372.7313 404.5802,-370.9718 415.7611,-369.4574"/>
<text text-anchor="middle" x="391.0835" y="-375.6517" font-family="Times,serif" font-size="14.00" fill="#000000">30</text>
</g>
<!-- bus33 -->
<g id="node33" class="node">
<title>bus33</title>
<ellipse fill="none" stroke="#000000" cx="540.9137" cy="-629.0502" rx="27" ry="18"/>
<text text-anchor="middle" x="540.9137" y="-625.3502" font-family="Times,serif" font-size="14.00" fill="#000000">10</text>
</g>
<!-- bus33&#45;&#45;bus7 -->
<g id="edge39" class="edge">
<title>bus33&#45;&#45;bus7</title>
<path fill="none" stroke="#000000" d="M540.455,-647.1066C540.2922,-653.5118 540.1092,-660.7166 539.9465,-667.1189"/>
<text text-anchor="middle" x="533.2007" y="-660.9128" font-family="Times,serif" font-size="14.00" fill="#000000">20</text>
</g>
<!-- bus33&#45;&#45;bus13 -->
<g id="edge41" class="edge">
<title>bus33&#45;&#45;bus13</title>
<path fill="none" stroke="#000000" d="M563.102,-618.7196C570.9728,-615.055 579.8263,-610.9329 587.6937,-607.2699"/>
<text text-anchor="middle" x="582.3978" y="-616.7947" font-family="Times,serif" font-size="14.00" fill="#000000">18</text>
</g>
<!-- bus33&#45;&#45;bus15 -->
<g id="edge40" class="edge">
<title>bus33&#45;&#45;bus15</title>
<path fill="none" stroke="#000000" d="M526.9739,-613.2968C518.5357,-603.7608 507.8184,-591.6492 499.4159,-582.1535"/>
<text text-anchor="middle" x="506.1949" y="-601.5251" font-family="Times,serif" font-size="14.00" fill="#000000">19</text>
</g>
<!-- bus34&#45;&#45;bus6 -->
<g id="edge42" class="edge">
<title>bus34&#45;&#45;bus6</title>
<path fill="none" stroke="#000000" d="M234.4095,-548.3864C228.414,-553.7305 221.6223,-559.7843 215.6206,-565.1339"/>
<text text-anchor="middle" x="218.015" y="-545.5602" font-family="Times,serif" font-size="14.00" fill="#000000">32</text>
</g>
<!-- bus34&#45;&#45;bus20 -->
<g id="edge43" class="edge">
<title>bus34&#45;&#45;bus20</title>
<path fill="none" stroke="#000000" d="M254.7438,-551.7847C255.5408,-555.2755 256.3769,-558.938 257.1753,-562.4347"/>
<text text-anchor="middle" x="248.9595" y="-545.9097" font-family="Times,serif" font-size="14.00" fill="#000000">33</text>
</g>
<!-- bus36&#45;&#45;bus24 -->
<g id="edge44" class="edge">
<title>bus36&#45;&#45;bus24</title>
<path fill="none" stroke="#000000" d="M708.3183,-376.0642C706.1595,-367.7153 703.6028,-357.8282 701.4522,-349.5112"/>
<text text-anchor="middle" x="697.8853" y="-366.5877" font-family="Times,serif" font-size="14.00" fill="#000000">17</text>
</g>
<!-- bus39&#45;&#45;bus2 -->
<g id="edge45" class="edge">
<title>bus39&#45;&#45;bus2</title>
<path fill="none" stroke="#000000" d="M515.3436,-400.5168C514.5866,-413.1376 513.5813,-429.8995 512.8256,-442.4987"/>
<text text-anchor="middle" x="510.5846" y="-425.3077" font-family="Times,serif" font-size="14.00" fill="#000000">6</text>
</g>
<!-- bus39&#45;&#45;bus37 -->
<g id="edge46" class="edge">
<title>bus39&#45;&#45;bus37</title>
<path fill="none" stroke="#000000" d="M490.4864,-376.6169C483.2169,-374.9971 475.3176,-373.237 468.0562,-371.619"/>
<text text-anchor="middle" x="475.7713" y="-377.918" font-family="Times,serif" font-size="14.00" fill="#000000">7</text>
</g>
<!-- load1 -->
<g id="node40" class="node">
<title>load1</title>
<polygon fill="none" stroke="#b03060" points="802.477,-539.0052 748.477,-539.0052 748.477,-503.0052 802.477,-503.0052 802.477,-539.0052"/>
<text text-anchor="middle" x="775.477" y="-517.3052" font-family="Times,serif" font-size="14.00" fill="#000000">7</text>
</g>
<!-- load1&#45;&#45;bus27 -->
<g id="edge47" class="edge">
<title>load1&#45;&#45;bus27</title>
<path fill="none" stroke="#b03060" stroke-dasharray="1,5" d="M748.3753,-514.4891C745.2324,-513.7335 742.0341,-512.9645 738.9117,-512.2138"/>
</g>
<!-- load2 -->
<g id="node41" class="node">
<title>load2</title>
<polygon fill="none" stroke="#b03060" points="697.374,-278.3705 643.374,-278.3705 643.374,-242.3705 697.374,-242.3705 697.374,-278.3705"/>
<text text-anchor="middle" x="670.374" y="-256.6705" font-family="Times,serif" font-size="14.00" fill="#000000">1</text>
</g>
<!-- load2&#45;&#45;bus3 -->
<g id="edge48" class="edge">
<title>load2&#45;&#45;bus3</title>
<path fill="none" stroke="#b03060" stroke-dasharray="1,5" d="M652.5479,-278.5347C649.1069,-282.0408 645.534,-285.6815 642.1929,-289.086"/>
</g>
<!-- load3 -->
<g id="node42" class="node">
<title>load3</title>
<polygon fill="none" stroke="#b03060" points="203.9407,-500.3916 149.9407,-500.3916 149.9407,-464.3916 203.9407,-464.3916 203.9407,-500.3916"/>
<text text-anchor="middle" x="176.9407" y="-478.6916" font-family="Times,serif" font-size="14.00" fill="#000000">21</text>
</g>
<!-- load3&#45;&#45;bus25 -->
<g id="edge49" class="edge">
<title>load3&#45;&#45;bus25</title>
<path fill="none" stroke="#b03060" stroke-dasharray="1,5" d="M200.5592,-464.2251C205.8574,-460.1499 211.392,-455.8929 216.4061,-452.0362"/>
</g>
<!-- load4 -->
<g id="node43" class="node">
<title>load4</title>
<polygon fill="none" stroke="#b03060" points="737.6137,-677.8242 683.6137,-677.8242 683.6137,-641.8242 737.6137,-641.8242 737.6137,-677.8242"/>
<text text-anchor="middle" x="710.6137" y="-656.1242" font-family="Times,serif" font-size="14.00" fill="#000000">31</text>
</g>
<!-- load4&#45;&#45;bus19 -->
<g id="edge50" class="edge">
<title>load4&#45;&#45;bus19</title>
<path fill="none" stroke="#b03060" stroke-dasharray="1,5" d="M706.9702,-641.5541C705.1561,-632.457 702.9693,-621.4913 701.1578,-612.4076"/>
</g>
<!-- load5 -->
<g id="node44" class="node">
<title>load5</title>
<polygon fill="none" stroke="#b03060" points="531.2779,-356.3657 477.2779,-356.3657 477.2779,-320.3657 531.2779,-320.3657 531.2779,-356.3657"/>
<text text-anchor="middle" x="504.2779" y="-334.6657" font-family="Times,serif" font-size="14.00" fill="#000000">3</text>
</g>
<!-- load5&#45;&#45;bus39 -->
<g id="edge51" class="edge">
<title>load5&#45;&#45;bus39</title>
<path fill="none" stroke="#b03060" stroke-dasharray="1,5" d="M509.291,-356.5294C510.0232,-359.1827 510.7768,-361.913 511.5072,-364.5596"/>
</g>
<!-- load6 -->
<g id="node45" class="node">
<title>load6</title>
<polygon fill="none" stroke="#b03060" points="802.0009,-404.1312 748.0009,-404.1312 748.0009,-368.1312 802.0009,-368.1312 802.0009,-404.1312"/>
<text text-anchor="middle" x="775.0009" y="-382.4312" font-family="Times,serif" font-size="14.00" fill="#000000">9</text>
</g>
<!-- load6&#45;&#45;bus36 -->
<g id="edge52" class="edge">
<title>load6&#45;&#45;bus36</title>
<path fill="none" stroke="#b03060" stroke-dasharray="1,5" d="M747.9799,-389.6072C745.2381,-389.9599 742.454,-390.318 739.7152,-390.6704"/>
</g>
<!-- load7 -->
<g id="node46" class="node">
<title>load7</title>
<polygon fill="none" stroke="#b03060" points="164.293,-605.2699 110.293,-605.2699 110.293,-569.2699 164.293,-569.2699 164.293,-605.2699"/>
<text text-anchor="middle" x="137.293" y="-583.5699" font-family="Times,serif" font-size="14.00" fill="#000000">20</text>
</g>
<!-- load7&#45;&#45;bus6 -->
<g id="edge53" class="edge">
<title>load7&#45;&#45;bus6</title>
<path fill="none" stroke="#b03060" stroke-dasharray="1,5" d="M164.3092,-583.964C167.0506,-583.6286 169.8342,-583.2879 172.5725,-582.9529"/>
</g>
<!-- load8 -->
<g id="node47" class="node">
<title>load8</title>
<polygon fill="none" stroke="#b03060" points="183.8616,-344.9549 129.8616,-344.9549 129.8616,-308.9549 183.8616,-308.9549 183.8616,-344.9549"/>
<text text-anchor="middle" x="156.8616" y="-323.2549" font-family="Times,serif" font-size="14.00" fill="#000000">23</text>
</g>
<!-- load8&#45;&#45;bus11 -->
<g id="edge54" class="edge">
<title>load8&#45;&#45;bus11</title>
<path fill="none" stroke="#b03060" stroke-dasharray="1,5" d="M156.9452,-344.9654C156.972,-350.7428 157.0017,-357.1416 157.0286,-362.9266"/>
</g>
<!-- load9 -->
<g id="node48" class="node">
<title>load9</title>
<polygon fill="none" stroke="#b03060" points="782.2872,-468.9284 728.2872,-468.9284 728.2872,-432.9284 782.2872,-432.9284 782.2872,-468.9284"/>
<text text-anchor="middle" x="755.2872" y="-447.2284" font-family="Times,serif" font-size="14.00" fill="#000000">8</text>
</g>
<!-- load9&#45;&#45;bus29 -->
<g id="edge55" class="edge">
<title>load9&#45;&#45;bus29</title>
<path fill="none" stroke="#b03060" stroke-dasharray="1,5" d="M728.2515,-451.524C725.6388,-451.5816 722.9878,-451.64 720.3741,-451.6976"/>
</g>
<!-- load10 -->
<g id="node49" class="node">
<title>load10</title>
<polygon fill="none" stroke="#b03060" points="510.1501,-214.0638 456.1501,-214.0638 456.1501,-178.0638 510.1501,-178.0638 510.1501,-214.0638"/>
<text text-anchor="middle" x="483.1501" y="-192.3638" font-family="Times,serif" font-size="14.00" fill="#000000">25</text>
</g>
<!-- load10&#45;&#45;bus10 -->
<g id="edge56" class="edge">
<title>load10&#45;&#45;bus10</title>
<path fill="none" stroke="#b03060" stroke-dasharray="1,5" d="M488.852,-214.2687C489.6849,-216.928 490.542,-219.6645 491.3728,-222.3172"/>
</g>
<!-- load11 -->
<g id="node50" class="node">
<title>load11</title>
<polygon fill="none" stroke="#b03060" points="384.1278,-236.3432 330.1278,-236.3432 330.1278,-200.3432 384.1278,-200.3432 384.1278,-236.3432"/>
<text text-anchor="middle" x="357.1278" y="-214.6432" font-family="Times,serif" font-size="14.00" fill="#000000">26</text>
</g>
<!-- load11&#45;&#45;bus31 -->
<g id="edge57" class="edge">
<title>load11&#45;&#45;bus31</title>
<path fill="none" stroke="#b03060" stroke-dasharray="1,5" d="M384.2385,-218.3376C387.3692,-218.337 390.5635,-218.3363 393.6975,-218.3357"/>
</g>
<!-- load12 -->
<g id="node51" class="node">
<title>load12</title>
<polygon fill="none" stroke="#b03060" points="250.5601,-368.3094 196.5601,-368.3094 196.5601,-332.3094 250.5601,-332.3094 250.5601,-368.3094"/>
<text text-anchor="middle" x="223.5601" y="-346.6094" font-family="Times,serif" font-size="14.00" fill="#000000">24</text>
</g>
<!-- load12&#45;&#45;bus1 -->
<g id="edge58" class="edge">
<title>load12&#45;&#45;bus1</title>
<path fill="none" stroke="#b03060" stroke-dasharray="1,5" d="M224.8223,-368.4604C225.0001,-371.0171 225.1828,-373.6454 225.3606,-376.2013"/>
</g>
<!-- load13 -->
<g id="node52" class="node">
<title>load13</title>
<polygon fill="none" stroke="#b03060" points="785.9152,-346.2929 731.9152,-346.2929 731.9152,-310.2929 785.9152,-310.2929 785.9152,-346.2929"/>
<text text-anchor="middle" x="758.9152" y="-324.5929" font-family="Times,serif" font-size="14.00" fill="#000000">39</text>
</g>
<!-- load13&#45;&#45;bus24 -->
<g id="edge59" class="edge">
<title>load13&#45;&#45;bus24</title>
<path fill="none" stroke="#b03060" stroke-dasharray="1,5" d="M731.8741,-329.7871C729.2608,-329.9315 726.6092,-330.0781 723.995,-330.2225"/>
</g>
<!-- load14 -->
<g id="node53" class="node">
<title>load14</title>
<polygon fill="none" stroke="#b03060" points="616.5894,-558.8339 562.5894,-558.8339 562.5894,-522.8339 616.5894,-522.8339 616.5894,-558.8339"/>
<text text-anchor="middle" x="589.5894" y="-537.1339" font-family="Times,serif" font-size="14.00" fill="#000000">12</text>
</g>
<!-- load14&#45;&#45;bus4 -->
<g id="edge60" class="edge">
<title>load14&#45;&#45;bus4</title>
<path fill="none" stroke="#b03060" stroke-dasharray="1,5" d="M572.3237,-558.9987C568.9909,-562.5049 565.5303,-566.1458 562.2942,-569.5503"/>
</g>
<!-- load15 -->
<g id="node54" class="node">
<title>load15</title>
<polygon fill="none" stroke="#b03060" points="406.4999,-547.0678 352.4999,-547.0678 352.4999,-511.0678 406.4999,-511.0678 406.4999,-547.0678"/>
<text text-anchor="middle" x="379.4999" y="-525.3678" font-family="Times,serif" font-size="14.00" fill="#000000">15</text>
</g>
<!-- load15&#45;&#45;bus17 -->
<g id="edge61" class="edge">
<title>load15&#45;&#45;bus17</title>
<path fill="none" stroke="#b03060" stroke-dasharray="1,5" d="M379.886,-510.9093C379.9404,-508.3516 379.9963,-505.7222 380.0506,-503.1652"/>
</g>
<!-- load16 -->
<g id="node55" class="node">
<title>load16</title>
<polygon fill="none" stroke="#b03060" points="353.5736,-292.2351 299.5736,-292.2351 299.5736,-256.2351 353.5736,-256.2351 353.5736,-292.2351"/>
<text text-anchor="middle" x="326.5736" y="-270.5351" font-family="Times,serif" font-size="14.00" fill="#000000">27</text>
</g>
<!-- load16&#45;&#45;bus18 -->
<g id="edge62" class="edge">
<title>load16&#45;&#45;bus18</title>
<path fill="none" stroke="#b03060" stroke-dasharray="1,5" d="M353.6137,-283.25C357.1414,-284.4262 360.7391,-285.6256 364.2203,-286.7862"/>
</g>
<!-- load17 -->
<g id="node56" class="node">
<title>load17</title>
<polygon fill="none" stroke="#b03060" points="442.9489,-427.9089 388.9489,-427.9089 388.9489,-391.9089 442.9489,-391.9089 442.9489,-427.9089"/>
<text text-anchor="middle" x="415.9489" y="-406.2089" font-family="Times,serif" font-size="14.00" fill="#000000">18</text>
</g>
<!-- load17&#45;&#45;bus37 -->
<g id="edge63" class="edge">
<title>load17&#45;&#45;bus37</title>
<path fill="none" stroke="#b03060" stroke-dasharray="1,5" d="M426.7993,-391.7421C428.5541,-388.8041 430.3653,-385.7716 432.1026,-382.8628"/>
</g>
<!-- load18 -->
<g id="node57" class="node">
<title>load18</title>
<polygon fill="none" stroke="#b03060" points="472.877,-104.2505 418.877,-104.2505 418.877,-68.2505 472.877,-68.2505 472.877,-104.2505"/>
<text text-anchor="middle" x="445.877" y="-82.5505" font-family="Times,serif" font-size="14.00" fill="#000000">29</text>
</g>
<!-- load18&#45;&#45;bus5 -->
<g id="edge64" class="edge">
<title>load18&#45;&#45;bus5</title>
<path fill="none" stroke="#b03060" stroke-dasharray="1,5" d="M433.8779,-104.4136C431.8747,-107.4458 429.8051,-110.5786 427.8274,-113.5722"/>
</g>
<!-- load19 -->
<g id="node58" class="node">
<title>load19</title>
<polygon fill="none" stroke="#b03060" points="322.8413,-507.8529 268.8413,-507.8529 268.8413,-471.8529 322.8413,-471.8529 322.8413,-507.8529"/>
<text text-anchor="middle" x="295.8413" y="-486.1529" font-family="Times,serif" font-size="14.00" fill="#000000">16</text>
</g>
<!-- load19&#45;&#45;bus22 -->
<g id="edge65" class="edge">
<title>load19&#45;&#45;bus22</title>
<path fill="none" stroke="#b03060" stroke-dasharray="1,5" d="M296.0093,-471.6971C296.0329,-469.1397 296.0573,-466.5107 296.0809,-463.9541"/>
</g>
<!-- load20 -->
<g id="node59" class="node">
<title>load20</title>
<polygon fill="none" stroke="#b03060" points="335.6215,-158.7959 281.6215,-158.7959 281.6215,-122.7959 335.6215,-122.7959 335.6215,-158.7959"/>
<text text-anchor="middle" x="308.6215" y="-137.0959" font-family="Times,serif" font-size="14.00" fill="#000000">28</text>
</g>
<!-- load20&#45;&#45;bus21 -->
<g id="edge66" class="edge">
<title>load20&#45;&#45;bus21</title>
<path fill="none" stroke="#b03060" stroke-dasharray="1,5" d="M335.6665,-155.3966C340.2403,-157.8658 344.9317,-160.3985 349.3344,-162.7754"/>
</g>
<!-- load21 -->
<g id="node60" class="node">
<title>load21</title>
<polygon fill="none" stroke="#b03060" points="600.8122,-469.767 546.8122,-469.767 546.8122,-433.767 600.8122,-433.767 600.8122,-469.767"/>
<text text-anchor="middle" x="573.8122" y="-448.067" font-family="Times,serif" font-size="14.00" fill="#000000">4</text>
</g>
<!-- load21&#45;&#45;bus2 -->
<g id="edge67" class="edge">
<title>load21&#45;&#45;bus2</title>
<path fill="none" stroke="#b03060" stroke-dasharray="1,5" d="M546.769,-455.5805C544.0249,-455.9675 541.2385,-456.3604 538.4975,-456.7469"/>
</g>
<!-- thermal1 -->
<g id="node61" class="node">
<title>thermal1</title>
<polygon fill="none" stroke="#cd853f" points="540.2229,-749.416 513.2229,-731.416 540.2229,-713.416 567.2229,-731.416 540.2229,-749.416"/>
<text text-anchor="middle" x="540.2229" y="-727.716" font-family="Times,serif" font-size="14.00" fill="#000000">3</text>
</g>
<!-- thermal1&#45;&#45;bus7 -->
<g id="edge68" class="edge">
<title>thermal1&#45;&#45;bus7</title>
<path fill="none" stroke="#cd853f" stroke-dasharray="5,2" d="M539.9369,-713.3925C539.8837,-710.0427 539.8282,-706.5424 539.775,-703.1918"/>
</g>
<!-- thermal2 -->
<g id="node62" class="node">
<title>thermal2</title>
<polygon fill="none" stroke="#cd853f" points="264.7599,-642.5467 237.7599,-624.5467 264.7599,-606.5467 291.7599,-624.5467 264.7599,-642.5467"/>
<text text-anchor="middle" x="264.7599" y="-620.8467" font-family="Times,serif" font-size="14.00" fill="#000000">4</text>
</g>
<!-- thermal2&#45;&#45;bus20 -->
<g id="edge69" class="edge">
<title>thermal2&#45;&#45;bus20</title>
<path fill="none" stroke="#cd853f" stroke-dasharray="5,2" d="M263.4123,-607.3917C263.1846,-604.4932 262.9477,-601.4763 262.7182,-598.5556"/>
</g>
<!-- thermal3 -->
<g id="node63" class="node">
<title>thermal3</title>
<polygon fill="none" stroke="#cd853f" points="624.3932,-224.3392 597.3932,-206.3392 624.3932,-188.3392 651.3932,-206.3392 624.3932,-224.3392"/>
<text text-anchor="middle" x="624.3932" y="-202.6392" font-family="Times,serif" font-size="14.00" fill="#000000">1</text>
</g>
<!-- thermal3&#45;&#45;bus38 -->
<g id="edge70" class="edge">
<title>thermal3&#45;&#45;bus38</title>
<path fill="none" stroke="#cd853f" stroke-dasharray="5,2" d="M614.8018,-218.3626C610.9046,-223.2481 606.343,-228.9663 602.1634,-234.2056"/>
</g>
<!-- thermal4 -->
<g id="node64" class="node">
<title>thermal4</title>
<polygon fill="none" stroke="#cd853f" points="136.0121,-693.3311 109.0121,-675.3311 136.0121,-657.3311 163.0121,-675.3311 136.0121,-693.3311"/>
<text text-anchor="middle" x="136.0121" y="-671.6311" font-family="Times,serif" font-size="14.00" fill="#000000">5</text>
</g>
<!-- thermal4&#45;&#45;bus28 -->
<g id="edge71" class="edge">
<title>thermal4&#45;&#45;bus28</title>
<path fill="none" stroke="#cd853f" stroke-dasharray="5,2" d="M144.4866,-662.8338C147.6582,-658.1566 151.3112,-652.7697 154.6898,-647.7872"/>
</g>
<!-- thermal5 -->
<g id="node65" class="node">
<title>thermal5</title>
<polygon fill="none" stroke="#cd853f" points="759.5951,-633.8108 732.5951,-615.8108 759.5951,-597.8108 786.5951,-615.8108 759.5951,-633.8108"/>
<text text-anchor="middle" x="759.5951" y="-612.1108" font-family="Times,serif" font-size="14.00" fill="#000000">2</text>
</g>
<!-- thermal5&#45;&#45;bus19 -->
<g id="edge72" class="edge">
<title>thermal5&#45;&#45;bus19</title>
<path fill="none" stroke="#cd853f" stroke-dasharray="5,2" d="M741.6444,-609.5703C735.487,-607.4297 728.4886,-604.9968 721.909,-602.7094"/>
</g>
<!-- thermal6 -->
<g id="node66" class="node">
<title>thermal6</title>
<polygon fill="none" stroke="#cd853f" points="27,-485.2659 0,-467.2659 27,-449.2659 54,-467.2659 27,-485.2659"/>
<text text-anchor="middle" x="27" y="-463.5659" font-family="Times,serif" font-size="14.00" fill="#000000">6</text>
</g>
<!-- thermal6&#45;&#45;bus14 -->
<g id="edge73" class="edge">
<title>thermal6&#45;&#45;bus14</title>
<path fill="none" stroke="#cd853f" stroke-dasharray="5,2" d="M46.2853,-462.0298C51.8329,-460.5235 57.9678,-458.8579 63.8169,-457.2698"/>
</g>
<!-- thermal7 -->
<g id="node67" class="node">
<title>thermal7</title>
<polygon fill="none" stroke="#cd853f" points="32.7808,-358.3309 5.7808,-340.3309 32.7808,-322.3309 59.7808,-340.3309 32.7808,-358.3309"/>
<text text-anchor="middle" x="32.7808" y="-336.6309" font-family="Times,serif" font-size="14.00" fill="#000000">7</text>
</g>
<!-- thermal7&#45;&#45;bus30 -->
<g id="edge74" class="edge">
<title>thermal7&#45;&#45;bus30</title>
<path fill="none" stroke="#cd853f" stroke-dasharray="5,2" d="M50.3959,-346.7861C56.8452,-349.1495 64.2518,-351.8637 71.1456,-354.3899"/>
</g>
<!-- thermal8 -->
<g id="node68" class="node">
<title>thermal8</title>
<polygon fill="none" stroke="#cd853f" points="732.9927,-302.2659 705.3431,-284.2659 732.9927,-266.2659 760.6424,-284.2659 732.9927,-302.2659"/>
<text text-anchor="middle" x="732.9927" y="-280.5659" font-family="Times,serif" font-size="14.00" fill="#000000">10</text>
</g>
<!-- thermal8&#45;&#45;bus24 -->
<g id="edge75" class="edge">
<title>thermal8&#45;&#45;bus24</title>
<path fill="none" stroke="#cd853f" stroke-dasharray="5,2" d="M723.4973,-296.7345C719.1472,-302.4466 713.9342,-309.292 709.2772,-315.4072"/>
</g>
<!-- thermal9 -->
<g id="node69" class="node">
<title>thermal9</title>
<polygon fill="none" stroke="#cd853f" points="373.1264,-36 346.1264,-18 373.1264,0 400.1264,-18 373.1264,-36"/>
<text text-anchor="middle" x="373.1264" y="-14.3" font-family="Times,serif" font-size="14.00" fill="#000000">9</text>
</g>
<!-- thermal9&#45;&#45;bus26 -->
<g id="edge76" class="edge">
<title>thermal9&#45;&#45;bus26</title>
<path fill="none" stroke="#cd853f" stroke-dasharray="5,2" d="M376.981,-33.9004C377.7933,-37.2514 378.6555,-40.8078 379.4837,-44.2241"/>
</g>
<!-- thermal10 -->
<g id="node70" class="node">
<title>thermal10</title>
<polygon fill="none" stroke="#cd853f" points="569.5032,-151.9934 542.5032,-133.9934 569.5032,-115.9934 596.5032,-133.9934 569.5032,-151.9934"/>
<text text-anchor="middle" x="569.5032" y="-130.2934" font-family="Times,serif" font-size="14.00" fill="#000000">8</text>
</g>
<!-- thermal10&#45;&#45;bus35 -->
<g id="edge77" class="edge">
<title>thermal10&#45;&#45;bus35</title>
<path fill="none" stroke="#cd853f" stroke-dasharray="5,2" d="M562.0705,-147.5431C559.6667,-151.9253 556.9707,-156.84 554.4502,-161.4349"/>
</g>
</g>
</svg>
