<?xml version="1.0" encoding="UTF-8" standalone="no"?>
<!DOCTYPE svg PUBLIC "-//W3C//DTD SVG 1.1//EN"
 "http://www.w3.org/Graphics/SVG/1.1/DTD/svg11.dtd">
<!-- Generated by graphviz version 2.40.1 (20161225.0304)
 -->
<!-- Title: %3 Pages: 1 -->
<svg width="328pt" height="275pt"
 viewBox="0.00 0.00 327.58 274.89" xmlns="http://www.w3.org/2000/svg" xmlns:xlink="http://www.w3.org/1999/xlink">
<g id="graph0" class="graph" transform="scale(1 1) rotate(0) translate(4 270.8864)">
<title>%3</title>
<polygon fill="#ffffff" stroke="transparent" points="-4,4 -4,-270.8864 323.5794,-270.8864 323.5794,4 -4,4"/>
<!-- bus1 -->
<g id="node1" class="node">
<title>bus1</title>
<ellipse fill="none" stroke="#000000" cx="218.841" cy="-132.4193" rx="27" ry="18"/>
<text text-anchor="middle" x="218.841" y="-128.7193" font-family="Times,serif" font-size="14.00" fill="#000000">4</text>
</g>
<!-- bus3 -->
<g id="node3" class="node">
<title>bus3</title>
<ellipse fill="none" stroke="#000000" cx="203.442" cy="-88.4149" rx="27" ry="18"/>
<text text-anchor="middle" x="203.442" y="-84.7149" font-family="Times,serif" font-size="14.00" fill="#000000">5</text>
</g>
<!-- bus1&#45;&#45;bus3 -->
<g id="edge1" class="edge">
<title>bus1&#45;&#45;bus3</title>
<path fill="none" stroke="#000000" d="M212.6663,-114.7746C211.6623,-111.9053 210.6221,-108.933 209.618,-106.0636"/>
<text text-anchor="middle" x="207.6422" y="-114.2191" font-family="Times,serif" font-size="14.00" fill="#000000">6</text>
</g>
<!-- bus2 -->
<g id="node2" class="node">
<title>bus2</title>
<ellipse fill="none" stroke="#000000" cx="171.9192" cy="-178.5874" rx="27" ry="18"/>
<text text-anchor="middle" x="171.9192" y="-174.8874" font-family="Times,serif" font-size="14.00" fill="#000000">1</text>
</g>
<!-- bus2&#45;&#45;bus1 -->
<g id="edge3" class="edge">
<title>bus2&#45;&#45;bus1</title>
<path fill="none" stroke="#000000" d="M187.2831,-163.4702C192.5217,-158.3158 198.3741,-152.5574 203.6028,-147.4127"/>
<text text-anchor="middle" x="198.9429" y="-159.2415" font-family="Times,serif" font-size="14.00" fill="#000000">2</text>
</g>
<!-- bus2&#45;&#45;bus3 -->
<g id="edge4" class="edge">
<title>bus2&#45;&#45;bus3</title>
<path fill="none" stroke="#000000" d="M178.1471,-160.7722C183.6735,-144.9637 191.7046,-121.9903 197.2271,-106.1931"/>
<text text-anchor="middle" x="184.1871" y="-137.2826" font-family="Times,serif" font-size="14.00" fill="#000000">3</text>
</g>
<!-- bus4 -->
<g id="node4" class="node">
<title>bus4</title>
<ellipse fill="none" stroke="#000000" cx="94.1923" cy="-161.8383" rx="27" ry="18"/>
<text text-anchor="middle" x="94.1923" y="-158.1383" font-family="Times,serif" font-size="14.00" fill="#000000">2</text>
</g>
<!-- bus2&#45;&#45;bus4 -->
<g id="edge2" class="edge">
<title>bus2&#45;&#45;bus4</title>
<path fill="none" stroke="#000000" d="M146.0373,-173.0102C137.6466,-171.2021 128.3437,-169.1975 119.9612,-167.3912"/>
<text text-anchor="middle" x="129.4993" y="-174.0007" font-family="Times,serif" font-size="14.00" fill="#000000">1</text>
</g>
<!-- bus5 -->
<g id="node5" class="node">
<title>bus5</title>
<ellipse fill="none" stroke="#000000" cx="121.7494" cy="-92.6607" rx="27" ry="18"/>
<text text-anchor="middle" x="121.7494" y="-88.9607" font-family="Times,serif" font-size="14.00" fill="#000000">3</text>
</g>
<!-- bus4&#45;&#45;bus5 -->
<g id="edge5" class="edge">
<title>bus4&#45;&#45;bus5</title>
<path fill="none" stroke="#000000" d="M101.1461,-144.3819C105.2917,-133.9751 110.5399,-120.8002 114.7019,-110.3522"/>
<text text-anchor="middle" x="104.424" y="-131.167" font-family="Times,serif" font-size="14.00" fill="#000000">4</text>
</g>
<!-- bus5&#45;&#45;bus1 -->
<g id="edge6" class="edge">
<title>bus5&#45;&#45;bus1</title>
<path fill="none" stroke="#000000" d="M144.7587,-102.0829C160.1237,-108.3749 180.26,-116.6206 195.6603,-122.9269"/>
<text text-anchor="middle" x="166.7095" y="-116.3049" font-family="Times,serif" font-size="14.00" fill="#000000">5</text>
</g>
<!-- load1 -->
<g id="node6" class="node">
<title>load1</title>
<polygon fill="none" stroke="#b03060" points="54,-210.8439 0,-210.8439 0,-174.8439 54,-174.8439 54,-210.8439"/>
<text text-anchor="middle" x="27" y="-189.1439" font-family="Times,serif" font-size="14.00" fill="#000000">2</text>
</g>
<!-- load1&#45;&#45;bus4 -->
<g id="edge7" class="edge">
<title>load1&#45;&#45;bus4</title>
<path fill="none" stroke="#b03060" stroke-dasharray="1,5" d="M54.3297,-180.2327C60.143,-177.5502 66.2158,-174.7479 71.8183,-172.1627"/>
</g>
<!-- load2 -->
<g id="node7" class="node">
<title>load2</title>
<polygon fill="none" stroke="#b03060" points="76.6507,-85.0365 22.6507,-85.0365 22.6507,-49.0365 76.6507,-49.0365 76.6507,-85.0365"/>
<text text-anchor="middle" x="49.6507" y="-63.3365" font-family="Times,serif" font-size="14.00" fill="#000000">3</text>
</g>
<!-- load2&#45;&#45;bus5 -->
<g id="edge8" class="edge">
<title>load2&#45;&#45;bus5</title>
<path fill="none" stroke="#b03060" stroke-dasharray="1,5" d="M76.9081,-76.7239C83.767,-79.1616 91.0781,-81.76 97.7635,-84.136"/>
</g>
<!-- load3 -->
<g id="node8" class="node">
<title>load3</title>
<polygon fill="none" stroke="#b03060" points="311.5205,-192.6691 257.5205,-192.6691 257.5205,-156.6691 311.5205,-156.6691 311.5205,-192.6691"/>
<text text-anchor="middle" x="284.5205" y="-170.9691" font-family="Times,serif" font-size="14.00" fill="#000000">4</text>
</g>
<!-- load3&#45;&#45;bus1 -->
<g id="edge9" class="edge">
<title>load3&#45;&#45;bus1</title>
<path fill="none" stroke="#b03060" stroke-dasharray="1,5" d="M257.4269,-157.2406C251.0664,-153.149 244.409,-148.8665 238.4497,-145.033"/>
</g>
<!-- thermal1 -->
<g id="node9" class="node">
<title>thermal1</title>
<polygon fill="none" stroke="#cd853f" points="292.5794,-120.8944 265.5794,-102.8944 292.5794,-84.8944 319.5794,-102.8944 292.5794,-120.8944"/>
<text text-anchor="middle" x="292.5794" y="-99.1944" font-family="Times,serif" font-size="14.00" fill="#000000">4</text>
</g>
<!-- thermal1&#45;&#45;bus1 -->
<g id="edge10" class="edge">
<title>thermal1&#45;&#45;bus1</title>
<path fill="none" stroke="#cd853f" stroke-dasharray="5,2" d="M275.477,-109.7422C265.5214,-113.7284 252.8359,-118.8077 241.9952,-123.1483"/>
</g>
<!-- thermal2 -->
<g id="node10" class="node">
<title>thermal2</title>
<polygon fill="none" stroke="#cd853f" points="210.9878,-263.7271 183.9878,-245.7271 210.9878,-227.7271 237.9878,-245.7271 210.9878,-263.7271"/>
<text text-anchor="middle" x="210.9878" y="-242.0271" font-family="Times,serif" font-size="14.00" fill="#000000">1</text>
</g>
<!-- thermal2&#45;&#45;bus2 -->
<g id="edge11" class="edge">
<title>thermal2&#45;&#45;bus2</title>
<path fill="none" stroke="#cd853f" stroke-dasharray="5,2" d="M203.2691,-232.4625C197.1314,-221.9149 188.501,-207.0834 181.8489,-195.6517"/>
</g>
<!-- thermal3 -->
<g id="node11" class="node">
<title>thermal3</title>
<polygon fill="none" stroke="#cd853f" points="232.8014,-36.1293 205.8014,-18.1293 232.8014,-.1293 259.8014,-18.1293 232.8014,-36.1293"/>
<text text-anchor="middle" x="232.8014" y="-14.4293" font-family="Times,serif" font-size="14.00" fill="#000000">5</text>
</g>
<!-- thermal3&#45;&#45;bus3 -->
<g id="edge12" class="edge">
<title>thermal3&#45;&#45;bus3</title>
<path fill="none" stroke="#cd853f" stroke-dasharray="5,2" d="M226.8601,-32.3527C222.202,-43.504 215.6983,-59.0736 210.7265,-70.976"/>
</g>
<!-- thermal4 -->
<g id="node12" class="node">
<title>thermal4</title>
<polygon fill="none" stroke="#cd853f" points="139.7035,-266.8864 112.7035,-248.8864 139.7035,-230.8864 166.7035,-248.8864 139.7035,-266.8864"/>
<text text-anchor="middle" x="139.7035" y="-245.1864" font-family="Times,serif" font-size="14.00" fill="#000000">2</text>
</g>
<!-- thermal4&#45;&#45;bus2 -->
<g id="edge13" class="edge">
<title>thermal4&#45;&#45;bus2</title>
<path fill="none" stroke="#cd853f" stroke-dasharray="5,2" d="M146.0683,-234.9976C151.2027,-223.7936 158.4526,-207.9732 163.9687,-195.9365"/>
</g>
<!-- thermal5 -->
<g id="node13" class="node">
<title>thermal5</title>
<polygon fill="none" stroke="#cd853f" points="106.1433,-36 79.1433,-18 106.1433,0 133.1433,-18 106.1433,-36"/>
<text text-anchor="middle" x="106.1433" y="-14.3" font-family="Times,serif" font-size="14.00" fill="#000000">3</text>
</g>
<!-- thermal5&#45;&#45;bus5 -->
<g id="edge14" class="edge">
<title>thermal5&#45;&#45;bus5</title>
<path fill="none" stroke="#cd853f" stroke-dasharray="5,2" d="M109.4529,-33.8336C111.9582,-45.8189 115.4008,-62.2888 118.0064,-74.7539"/>
</g>
</g>
</svg>
