<?xml version="1.0" encoding="UTF-8" standalone="no"?>
<!DOCTYPE svg PUBLIC "-//W3C//DTD SVG 1.1//EN"
 "http://www.w3.org/Graphics/SVG/1.1/DTD/svg11.dtd">
<!-- Generated by graphviz version 2.40.1 (20161225.0304)
 -->
<!-- Title: %3 Pages: 1 -->
<svg width="731pt" height="606pt"
 viewBox="0.00 0.00 730.98 606.02" xmlns="http://www.w3.org/2000/svg" xmlns:xlink="http://www.w3.org/1999/xlink">
<g id="graph0" class="graph" transform="scale(1 1) rotate(0) translate(4 602.0208)">
<title>%3</title>
<polygon fill="#ffffff" stroke="transparent" points="-4,4 -4,-602.0208 726.9779,-602.0208 726.9779,4 -4,4"/>
<!-- bus1 -->
<g id="node1" class="node">
<title>bus1</title>
<ellipse fill="none" stroke="#000000" cx="229.0172" cy="-287.0537" rx="27" ry="18"/>
<text text-anchor="middle" x="229.0172" y="-283.3537" font-family="Times,serif" font-size="14.00" fill="#000000">4</text>
</g>
<!-- bus8 -->
<g id="node8" class="node">
<title>bus8</title>
<ellipse fill="none" stroke="#000000" cx="334.154" cy="-216.1091" rx="27" ry="18"/>
<text text-anchor="middle" x="334.154" y="-212.4091" font-family="Times,serif" font-size="14.00" fill="#000000">5</text>
</g>
<!-- bus1&#45;&#45;bus8 -->
<g id="edge3" class="edge">
<title>bus1&#45;&#45;bus8</title>
<path fill="none" stroke="#000000" d="M248.3009,-274.0414C267.271,-261.2407 296.0648,-241.8111 314.9926,-229.0389"/>
<text text-anchor="middle" x="278.1467" y="-255.3402" font-family="Times,serif" font-size="14.00" fill="#000000">7</text>
</g>
<!-- bus10 -->
<g id="node10" class="node">
<title>bus10</title>
<ellipse fill="none" stroke="#000000" cx="227.4575" cy="-402.3962" rx="27" ry="18"/>
<text text-anchor="middle" x="227.4575" y="-398.6962" font-family="Times,serif" font-size="14.00" fill="#000000">7</text>
</g>
<!-- bus1&#45;&#45;bus10 -->
<g id="edge2" class="edge">
<title>bus1&#45;&#45;bus10</title>
<path fill="none" stroke="#000000" d="M228.7735,-305.076C228.4822,-326.6182 227.9974,-362.4658 227.7046,-384.1198"/>
<text text-anchor="middle" x="224.7391" y="-348.3979" font-family="Times,serif" font-size="14.00" fill="#000000">8</text>
</g>
<!-- bus13 -->
<g id="node13" class="node">
<title>bus13</title>
<ellipse fill="none" stroke="#000000" cx="332.2284" cy="-367.8356" rx="27" ry="18"/>
<text text-anchor="middle" x="332.2284" y="-364.1356" font-family="Times,serif" font-size="14.00" fill="#000000">9</text>
</g>
<!-- bus1&#45;&#45;bus13 -->
<g id="edge1" class="edge">
<title>bus1&#45;&#45;bus13</title>
<path fill="none" stroke="#000000" d="M246.5256,-300.7573C265.5049,-315.6121 295.6214,-339.1838 314.6342,-354.0649"/>
<text text-anchor="middle" x="277.0799" y="-331.2111" font-family="Times,serif" font-size="14.00" fill="#000000">9</text>
</g>
<!-- bus2 -->
<g id="node2" class="node">
<title>bus2</title>
<ellipse fill="none" stroke="#000000" cx="292.4838" cy="-116.2728" rx="27" ry="18"/>
<text text-anchor="middle" x="292.4838" y="-112.5728" font-family="Times,serif" font-size="14.00" fill="#000000">1</text>
</g>
<!-- bus4 -->
<g id="node4" class="node">
<title>bus4</title>
<ellipse fill="none" stroke="#000000" cx="215.6765" cy="-174" rx="27" ry="18"/>
<text text-anchor="middle" x="215.6765" y="-170.3" font-family="Times,serif" font-size="14.00" fill="#000000">2</text>
</g>
<!-- bus2&#45;&#45;bus4 -->
<g id="edge4" class="edge">
<title>bus2&#45;&#45;bus4</title>
<path fill="none" stroke="#000000" d="M274.2815,-129.9534C262.0378,-139.1555 245.9644,-151.236 233.7481,-160.4176"/>
<text text-anchor="middle" x="250.5148" y="-148.9855" font-family="Times,serif" font-size="14.00" fill="#000000">1</text>
</g>
<!-- bus2&#45;&#45;bus8 -->
<g id="edge5" class="edge">
<title>bus2&#45;&#45;bus8</title>
<path fill="none" stroke="#000000" d="M299.7422,-133.663C307.3438,-151.8755 319.2162,-180.3201 326.839,-198.5833"/>
<text text-anchor="middle" x="309.7906" y="-169.9231" font-family="Times,serif" font-size="14.00" fill="#000000">2</text>
</g>
<!-- bus3 -->
<g id="node3" class="node">
<title>bus3</title>
<ellipse fill="none" stroke="#000000" cx="604.2918" cy="-198.0402" rx="27" ry="18"/>
<text text-anchor="middle" x="604.2918" y="-194.3402" font-family="Times,serif" font-size="14.00" fill="#000000">12</text>
</g>
<!-- bus7 -->
<g id="node7" class="node">
<title>bus7</title>
<ellipse fill="none" stroke="#000000" cx="524.2767" cy="-190.7569" rx="27" ry="18"/>
<text text-anchor="middle" x="524.2767" y="-187.0569" font-family="Times,serif" font-size="14.00" fill="#000000">13</text>
</g>
<!-- bus3&#45;&#45;bus7 -->
<g id="edge6" class="edge">
<title>bus3&#45;&#45;bus7</title>
<path fill="none" stroke="#000000" d="M577.2024,-195.5744C568.7695,-194.8068 559.4789,-193.9611 551.0666,-193.1954"/>
<text text-anchor="middle" x="567.6345" y="-183.1849" font-family="Times,serif" font-size="14.00" fill="#000000">19</text>
</g>
<!-- bus4&#45;&#45;bus1 -->
<g id="edge7" class="edge">
<title>bus4&#45;&#45;bus1</title>
<path fill="none" stroke="#000000" d="M217.8199,-192.164C220.3095,-213.2611 224.3919,-247.8569 226.8791,-268.9347"/>
<text text-anchor="middle" x="218.8495" y="-234.3494" font-family="Times,serif" font-size="14.00" fill="#000000">4</text>
</g>
<!-- bus4&#45;&#45;bus8 -->
<g id="edge8" class="edge">
<title>bus4&#45;&#45;bus8</title>
<path fill="none" stroke="#000000" d="M239.6522,-182.5214C260.2075,-189.8271 289.669,-200.2983 310.214,-207.6004"/>
<text text-anchor="middle" x="271.4331" y="-198.8609" font-family="Times,serif" font-size="14.00" fill="#000000">5</text>
</g>
<!-- bus14 -->
<g id="node14" class="node">
<title>bus14</title>
<ellipse fill="none" stroke="#000000" cx="120.188" cy="-227.6584" rx="27" ry="18"/>
<text text-anchor="middle" x="120.188" y="-223.9584" font-family="Times,serif" font-size="14.00" fill="#000000">3</text>
</g>
<!-- bus4&#45;&#45;bus14 -->
<g id="edge9" class="edge">
<title>bus4&#45;&#45;bus14</title>
<path fill="none" stroke="#000000" d="M194.9569,-185.643C178.9403,-194.6434 156.8736,-207.0435 140.8671,-216.0381"/>
<text text-anchor="middle" x="164.412" y="-204.6406" font-family="Times,serif" font-size="14.00" fill="#000000">3</text>
</g>
<!-- bus5 -->
<g id="node5" class="node">
<title>bus5</title>
<ellipse fill="none" stroke="#000000" cx="511.7675" cy="-272.2993" rx="27" ry="18"/>
<text text-anchor="middle" x="511.7675" y="-268.5993" font-family="Times,serif" font-size="14.00" fill="#000000">6</text>
</g>
<!-- bus5&#45;&#45;bus3 -->
<g id="edge10" class="edge">
<title>bus5&#45;&#45;bus3</title>
<path fill="none" stroke="#000000" d="M529.1706,-258.3317C545.7125,-245.0554 570.4507,-225.2007 586.9667,-211.9451"/>
<text text-anchor="middle" x="551.0687" y="-238.9384" font-family="Times,serif" font-size="14.00" fill="#000000">12</text>
</g>
<!-- bus6 -->
<g id="node6" class="node">
<title>bus6</title>
<ellipse fill="none" stroke="#000000" cx="512.5527" cy="-401.1689" rx="27" ry="18"/>
<text text-anchor="middle" x="512.5527" y="-397.4689" font-family="Times,serif" font-size="14.00" fill="#000000">11</text>
</g>
<!-- bus5&#45;&#45;bus6 -->
<g id="edge11" class="edge">
<title>bus5&#45;&#45;bus6</title>
<path fill="none" stroke="#000000" d="M511.8783,-290.4899C512.028,-315.0507 512.2931,-358.5578 512.4425,-383.0709"/>
<text text-anchor="middle" x="505.1604" y="-340.5804" font-family="Times,serif" font-size="14.00" fill="#000000">11</text>
</g>
<!-- bus5&#45;&#45;bus7 -->
<g id="edge12" class="edge">
<title>bus5&#45;&#45;bus7</title>
<path fill="none" stroke="#000000" d="M514.5437,-254.2024C516.6167,-240.6894 519.4371,-222.304 521.5083,-208.8032"/>
<text text-anchor="middle" x="511.026" y="-235.3028" font-family="Times,serif" font-size="14.00" fill="#000000">13</text>
</g>
<!-- bus9 -->
<g id="node9" class="node">
<title>bus9</title>
<ellipse fill="none" stroke="#000000" cx="426.0073" cy="-260.5265" rx="27" ry="18"/>
<text text-anchor="middle" x="426.0073" y="-256.8265" font-family="Times,serif" font-size="14.00" fill="#000000">14</text>
</g>
<!-- bus7&#45;&#45;bus9 -->
<g id="edge13" class="edge">
<title>bus7&#45;&#45;bus9</title>
<path fill="none" stroke="#000000" d="M505.793,-203.88C488.3352,-216.2748 462.282,-234.7721 444.7423,-247.225"/>
<text text-anchor="middle" x="468.2676" y="-229.3525" font-family="Times,serif" font-size="14.00" fill="#000000">20</text>
</g>
<!-- bus8&#45;&#45;bus5 -->
<g id="edge14" class="edge">
<title>bus8&#45;&#45;bus5</title>
<path fill="none" stroke="#000000" d="M358.8504,-223.9221C392.784,-234.6574 453.4579,-253.8524 487.2808,-264.5527"/>
<text text-anchor="middle" x="416.0656" y="-233.0374" font-family="Times,serif" font-size="14.00" fill="#000000">10</text>
</g>
<!-- bus11 -->
<g id="node11" class="node">
<title>bus11</title>
<ellipse fill="none" stroke="#000000" cx="164.1639" cy="-501.4798" rx="27" ry="18"/>
<text text-anchor="middle" x="164.1639" y="-497.7798" font-family="Times,serif" font-size="14.00" fill="#000000">8</text>
</g>
<!-- bus10&#45;&#45;bus11 -->
<g id="edge16" class="edge">
<title>bus10&#45;&#45;bus11</title>
<path fill="none" stroke="#000000" d="M216.7206,-419.2044C205.0817,-437.4246 186.6129,-466.3367 174.9535,-484.5892"/>
<text text-anchor="middle" x="188.837" y="-455.6968" font-family="Times,serif" font-size="14.00" fill="#000000">14</text>
</g>
<!-- bus10&#45;&#45;bus13 -->
<g id="edge15" class="edge">
<title>bus10&#45;&#45;bus13</title>
<path fill="none" stroke="#000000" d="M251.7574,-394.3804C268.5625,-388.837 290.8424,-381.4876 307.6974,-375.9276"/>
<text text-anchor="middle" x="272.7274" y="-388.954" font-family="Times,serif" font-size="14.00" fill="#000000">15</text>
</g>
<!-- bus12 -->
<g id="node12" class="node">
<title>bus12</title>
<ellipse fill="none" stroke="#000000" cx="428.0242" cy="-451.151" rx="27" ry="18"/>
<text text-anchor="middle" x="428.0242" y="-447.451" font-family="Times,serif" font-size="14.00" fill="#000000">10</text>
</g>
<!-- bus12&#45;&#45;bus6 -->
<g id="edge17" class="edge">
<title>bus12&#45;&#45;bus6</title>
<path fill="none" stroke="#000000" d="M448.4862,-439.0518C461.7762,-431.1933 479.0268,-420.9929 492.2792,-413.1568"/>
<text text-anchor="middle" x="463.3827" y="-429.9043" font-family="Times,serif" font-size="14.00" fill="#000000">18</text>
</g>
<!-- bus13&#45;&#45;bus9 -->
<g id="edge19" class="edge">
<title>bus13&#45;&#45;bus9</title>
<path fill="none" stroke="#000000" d="M346.0658,-352.0018C363.7963,-331.7133 394.3554,-296.7452 412.1131,-276.4253"/>
<text text-anchor="middle" x="372.0895" y="-318.0136" font-family="Times,serif" font-size="14.00" fill="#000000">17</text>
</g>
<!-- bus13&#45;&#45;bus12 -->
<g id="edge18" class="edge">
<title>bus13&#45;&#45;bus12</title>
<path fill="none" stroke="#000000" d="M348.9148,-382.3481C366.4974,-397.6401 394.0189,-421.5759 411.5291,-436.8049"/>
<text text-anchor="middle" x="373.2219" y="-413.3765" font-family="Times,serif" font-size="14.00" fill="#000000">16</text>
</g>
<!-- bus14&#45;&#45;bus1 -->
<g id="edge20" class="edge">
<title>bus14&#45;&#45;bus1</title>
<path fill="none" stroke="#000000" d="M141.1714,-239.1104C160.4426,-249.628 188.8475,-265.1304 208.0983,-275.6369"/>
<text text-anchor="middle" x="171.1348" y="-261.1736" font-family="Times,serif" font-size="14.00" fill="#000000">6</text>
</g>
<!-- load1 -->
<g id="node15" class="node">
<title>load1</title>
<polygon fill="none" stroke="#b03060" points="344.6565,-292.7737 290.6565,-292.7737 290.6565,-256.7737 344.6565,-256.7737 344.6565,-292.7737"/>
<text text-anchor="middle" x="317.6565" y="-271.0737" font-family="Times,serif" font-size="14.00" fill="#000000">5</text>
</g>
<!-- load1&#45;&#45;bus8 -->
<g id="edge21" class="edge">
<title>load1&#45;&#45;bus8</title>
<path fill="none" stroke="#b03060" stroke-dasharray="1,5" d="M322.786,-256.5334C324.7913,-249.4028 327.0849,-241.2466 329.0844,-234.1366"/>
</g>
<!-- load2 -->
<g id="node16" class="node">
<title>load2</title>
<polygon fill="none" stroke="#b03060" points="219.6291,-91.0196 165.6291,-91.0196 165.6291,-55.0196 219.6291,-55.0196 219.6291,-91.0196"/>
<text text-anchor="middle" x="192.6291" y="-69.3196" font-family="Times,serif" font-size="14.00" fill="#000000">2</text>
</g>
<!-- load2&#45;&#45;bus4 -->
<g id="edge22" class="edge">
<title>load2&#45;&#45;bus4</title>
<path fill="none" stroke="#b03060" stroke-dasharray="1,5" d="M196.7495,-91.0729C200.9446,-109.4533 207.4096,-137.7793 211.5918,-156.103"/>
</g>
<!-- load3 -->
<g id="node17" class="node">
<title>load3</title>
<polygon fill="none" stroke="#b03060" points="57.2524,-197.3136 3.2524,-197.3136 3.2524,-161.3136 57.2524,-161.3136 57.2524,-197.3136"/>
<text text-anchor="middle" x="30.2524" y="-175.6136" font-family="Times,serif" font-size="14.00" fill="#000000">3</text>
</g>
<!-- load3&#45;&#45;bus14 -->
<g id="edge23" class="edge">
<title>load3&#45;&#45;bus14</title>
<path fill="none" stroke="#b03060" stroke-dasharray="1,5" d="M57.7247,-194.0813C71.0522,-201.2455 86.8089,-209.7155 99.1624,-216.3561"/>
</g>
<!-- load4 -->
<g id="node18" class="node">
<title>load4</title>
<polygon fill="none" stroke="#b03060" points="342.5107,-473.417 288.5107,-473.417 288.5107,-437.417 342.5107,-437.417 342.5107,-473.417"/>
<text text-anchor="middle" x="315.5107" y="-451.717" font-family="Times,serif" font-size="14.00" fill="#000000">9</text>
</g>
<!-- load4&#45;&#45;bus13 -->
<g id="edge24" class="edge">
<title>load4&#45;&#45;bus13</title>
<path fill="none" stroke="#b03060" stroke-dasharray="1,5" d="M318.9746,-437.2701C321.8438,-422.239 325.901,-400.984 328.7689,-385.9593"/>
</g>
<!-- load5 -->
<g id="node19" class="node">
<title>load5</title>
<polygon fill="none" stroke="#b03060" points="460.8597,-187.1693 406.8597,-187.1693 406.8597,-151.1693 460.8597,-151.1693 460.8597,-187.1693"/>
<text text-anchor="middle" x="433.8597" y="-165.4693" font-family="Times,serif" font-size="14.00" fill="#000000">14</text>
</g>
<!-- load5&#45;&#45;bus9 -->
<g id="edge25" class="edge">
<title>load5&#45;&#45;bus9</title>
<path fill="none" stroke="#b03060" stroke-dasharray="1,5" d="M432.3083,-187.2186C430.9317,-203.2348 428.9311,-226.51 427.5555,-242.5148"/>
</g>
<!-- load6 -->
<g id="node20" class="node">
<title>load6</title>
<polygon fill="none" stroke="#b03060" points="609.8096,-356.3295 555.8096,-356.3295 555.8096,-320.3295 609.8096,-320.3295 609.8096,-356.3295"/>
<text text-anchor="middle" x="582.8096" y="-334.6295" font-family="Times,serif" font-size="14.00" fill="#000000">6</text>
</g>
<!-- load6&#45;&#45;bus5 -->
<g id="edge26" class="edge">
<title>load6&#45;&#45;bus5</title>
<path fill="none" stroke="#b03060" stroke-dasharray="1,5" d="M563.3971,-320.2865C552.2226,-309.9004 538.3498,-297.0062 527.7993,-287.2001"/>
</g>
<!-- load7 -->
<g id="node21" class="node">
<title>load7</title>
<polygon fill="none" stroke="#b03060" points="487.443,-565.8048 433.443,-565.8048 433.443,-529.8048 487.443,-529.8048 487.443,-565.8048"/>
<text text-anchor="middle" x="460.443" y="-544.1048" font-family="Times,serif" font-size="14.00" fill="#000000">10</text>
</g>
<!-- load7&#45;&#45;bus12 -->
<g id="edge27" class="edge">
<title>load7&#45;&#45;bus12</title>
<path fill="none" stroke="#b03060" stroke-dasharray="1,5" d="M454.3452,-529.625C448.5126,-512.2354 439.7717,-486.1751 433.9851,-468.9228"/>
</g>
<!-- load8 -->
<g id="node22" class="node">
<title>load8</title>
<polygon fill="none" stroke="#b03060" points="595.957,-497.1706 541.957,-497.1706 541.957,-461.1706 595.957,-461.1706 595.957,-497.1706"/>
<text text-anchor="middle" x="568.957" y="-475.4706" font-family="Times,serif" font-size="14.00" fill="#000000">11</text>
</g>
<!-- load8&#45;&#45;bus6 -->
<g id="edge28" class="edge">
<title>load8&#45;&#45;bus6</title>
<path fill="none" stroke="#b03060" stroke-dasharray="1,5" d="M555.875,-461.0794C546.3722,-447.9379 533.6177,-430.2997 524.4113,-417.5681"/>
</g>
<!-- load9 -->
<g id="node23" class="node">
<title>load9</title>
<polygon fill="none" stroke="#b03060" points="588.8146,-114.1587 534.8146,-114.1587 534.8146,-78.1587 588.8146,-78.1587 588.8146,-114.1587"/>
<text text-anchor="middle" x="561.8146" y="-92.4587" font-family="Times,serif" font-size="14.00" fill="#000000">13</text>
</g>
<!-- load9&#45;&#45;bus7 -->
<g id="edge29" class="edge">
<title>load9&#45;&#45;bus7</title>
<path fill="none" stroke="#b03060" stroke-dasharray="1,5" d="M554.5769,-114.3982C547.8446,-131.3641 537.8805,-156.4743 531.2384,-173.213"/>
</g>
<!-- load10 -->
<g id="node24" class="node">
<title>load10</title>
<polygon fill="none" stroke="#b03060" points="722.9779,-177.685 668.9779,-177.685 668.9779,-141.685 722.9779,-141.685 722.9779,-177.685"/>
<text text-anchor="middle" x="695.9779" y="-155.985" font-family="Times,serif" font-size="14.00" fill="#000000">12</text>
</g>
<!-- load10&#45;&#45;bus3 -->
<g id="edge30" class="edge">
<title>load10&#45;&#45;bus3</title>
<path fill="none" stroke="#b03060" stroke-dasharray="1,5" d="M668.965,-170.9854C655.7593,-176.5097 640.0306,-183.0896 627.3911,-188.377"/>
</g>
<!-- load11 -->
<g id="node25" class="node">
<title>load11</title>
<polygon fill="none" stroke="#b03060" points="174.1374,-351.2546 120.1374,-351.2546 120.1374,-315.2546 174.1374,-315.2546 174.1374,-351.2546"/>
<text text-anchor="middle" x="147.1374" y="-329.5546" font-family="Times,serif" font-size="14.00" fill="#000000">4</text>
</g>
<!-- load11&#45;&#45;bus1 -->
<g id="edge31" class="edge">
<title>load11&#45;&#45;bus1</title>
<path fill="none" stroke="#b03060" stroke-dasharray="1,5" d="M174.4022,-317.8704C185.4743,-311.6229 198.054,-304.5248 208.3472,-298.7168"/>
</g>
<!-- thermal1 -->
<g id="node26" class="node">
<title>thermal1</title>
<polygon fill="none" stroke="#cd853f" points="618.0169,-297.3736 591.0169,-279.3736 618.0169,-261.3736 645.0169,-279.3736 618.0169,-297.3736"/>
<text text-anchor="middle" x="618.0169" y="-275.6736" font-family="Times,serif" font-size="14.00" fill="#000000">4</text>
</g>
<!-- thermal1&#45;&#45;bus5 -->
<g id="edge32" class="edge">
<title>thermal1&#45;&#45;bus5</title>
<path fill="none" stroke="#cd853f" stroke-dasharray="5,2" d="M593.3741,-277.7329C577.0675,-276.6471 555.6778,-275.223 538.888,-274.1051"/>
</g>
<!-- thermal2 -->
<g id="node27" class="node">
<title>thermal2</title>
<polygon fill="none" stroke="#cd853f" points="305.2862,-36 278.2862,-18 305.2862,0 332.2862,-18 305.2862,-36"/>
<text text-anchor="middle" x="305.2862" y="-14.3" font-family="Times,serif" font-size="14.00" fill="#000000">1</text>
</g>
<!-- thermal2&#45;&#45;bus2 -->
<g id="edge33" class="edge">
<title>thermal2&#45;&#45;bus2</title>
<path fill="none" stroke="#cd853f" stroke-dasharray="5,2" d="M303.1145,-34.6706C300.8173,-52.3037 297.2049,-80.0332 294.8401,-98.1855"/>
</g>
<!-- thermal3 -->
<g id="node28" class="node">
<title>thermal3</title>
<polygon fill="none" stroke="#cd853f" points="119.7987,-598.0208 92.7987,-580.0208 119.7987,-562.0208 146.7987,-580.0208 119.7987,-598.0208"/>
<text text-anchor="middle" x="119.7987" y="-576.3208" font-family="Times,serif" font-size="14.00" fill="#000000">5</text>
</g>
<!-- thermal3&#45;&#45;bus11 -->
<g id="edge34" class="edge">
<title>thermal3&#45;&#45;bus11</title>
<path fill="none" stroke="#cd853f" stroke-dasharray="5,2" d="M127.3246,-566.6974C134.8401,-553.3926 146.4182,-532.8955 154.5851,-518.4374"/>
</g>
<!-- thermal4 -->
<g id="node29" class="node">
<title>thermal4</title>
<polygon fill="none" stroke="#cd853f" points="132.7107,-135.024 105.7107,-117.024 132.7107,-99.024 159.7107,-117.024 132.7107,-135.024"/>
<text text-anchor="middle" x="132.7107" y="-113.324" font-family="Times,serif" font-size="14.00" fill="#000000">2</text>
</g>
<!-- thermal4&#45;&#45;bus4 -->
<g id="edge35" class="edge">
<title>thermal4&#45;&#45;bus4</title>
<path fill="none" stroke="#cd853f" stroke-dasharray="5,2" d="M146.0406,-126.1782C159.7823,-135.6152 181.328,-150.4115 196.8146,-161.0467"/>
</g>
<!-- thermal5 -->
<g id="node30" class="node">
<title>thermal5</title>
<polygon fill="none" stroke="#cd853f" points="27,-282.5489 0,-264.5489 27,-246.5489 54,-264.5489 27,-282.5489"/>
<text text-anchor="middle" x="27" y="-260.8489" font-family="Times,serif" font-size="14.00" fill="#000000">3</text>
</g>
<!-- thermal5&#45;&#45;bus14 -->
<g id="edge36" class="edge">
<title>thermal5&#45;&#45;bus14</title>
<path fill="none" stroke="#cd853f" stroke-dasharray="5,2" d="M44.0921,-257.7826C58.9096,-251.9168 80.4891,-243.3741 96.8869,-236.8827"/>
</g>
</g>
</svg>
