<?xml version="1.0" encoding="UTF-8" standalone="no"?>
<!DOCTYPE svg PUBLIC "-//W3C//DTD SVG 1.1//EN"
 "http://www.w3.org/Graphics/SVG/1.1/DTD/svg11.dtd">
<!-- Generated by graphviz version 2.40.1 (20161225.0304)
 -->
<!-- Title: %3 Pages: 1 -->
<svg width="712pt" height="552pt"
 viewBox="0.00 0.00 712.06 551.87" xmlns="http://www.w3.org/2000/svg" xmlns:xlink="http://www.w3.org/1999/xlink">
<g id="graph0" class="graph" transform="scale(1 1) rotate(0) translate(4 547.8737)">
<title>%3</title>
<polygon fill="#ffffff" stroke="transparent" points="-4,4 -4,-547.8737 708.0627,-547.8737 708.0627,4 -4,4"/>
<!-- bus1 -->
<g id="node1" class="node">
<title>bus1</title>
<ellipse fill="none" stroke="#000000" cx="330.7662" cy="-209.4097" rx="27" ry="18"/>
<text text-anchor="middle" x="330.7662" y="-205.7097" font-family="Times,serif" font-size="14.00" fill="#000000">8</text>
</g>
<!-- bus5 -->
<g id="node5" class="node">
<title>bus5</title>
<ellipse fill="none" stroke="#000000" cx="288.1198" cy="-104.4772" rx="27" ry="18"/>
<text text-anchor="middle" x="288.1198" y="-100.7772" font-family="Times,serif" font-size="14.00" fill="#000000">2</text>
</g>
<!-- bus1&#45;&#45;bus5 -->
<g id="edge1" class="edge">
<title>bus1&#45;&#45;bus5</title>
<path fill="none" stroke="#000000" d="M323.5318,-191.6093C315.6422,-172.1966 303.0947,-141.3232 295.2474,-122.0147"/>
<text text-anchor="middle" x="305.8896" y="-160.612" font-family="Times,serif" font-size="14.00" fill="#000000">7</text>
</g>
<!-- bus8 -->
<g id="node8" class="node">
<title>bus8</title>
<ellipse fill="none" stroke="#000000" cx="442.0432" cy="-243.8052" rx="27" ry="18"/>
<text text-anchor="middle" x="442.0432" y="-240.1052" font-family="Times,serif" font-size="14.00" fill="#000000">9</text>
</g>
<!-- bus1&#45;&#45;bus8 -->
<g id="edge2" class="edge">
<title>bus1&#45;&#45;bus8</title>
<path fill="none" stroke="#000000" d="M355.4622,-217.0432C373.9027,-222.7431 398.9924,-230.4983 417.4163,-236.1931"/>
<text text-anchor="middle" x="382.9392" y="-230.4181" font-family="Times,serif" font-size="14.00" fill="#000000">8</text>
</g>
<!-- bus2 -->
<g id="node2" class="node">
<title>bus2</title>
<ellipse fill="none" stroke="#000000" cx="474.4414" cy="-357.5698" rx="27" ry="18"/>
<text text-anchor="middle" x="474.4414" y="-353.8698" font-family="Times,serif" font-size="14.00" fill="#000000">4</text>
</g>
<!-- bus4 -->
<g id="node4" class="node">
<title>bus4</title>
<ellipse fill="none" stroke="#000000" cx="372.4072" cy="-430.4412" rx="27" ry="18"/>
<text text-anchor="middle" x="372.4072" y="-426.7412" font-family="Times,serif" font-size="14.00" fill="#000000">5</text>
</g>
<!-- bus2&#45;&#45;bus4 -->
<g id="edge3" class="edge">
<title>bus2&#45;&#45;bus4</title>
<path fill="none" stroke="#000000" d="M455.7268,-370.9356C437.3165,-384.0839 409.3724,-404.0412 391.0032,-417.1602"/>
<text text-anchor="middle" x="419.865" y="-397.8479" font-family="Times,serif" font-size="14.00" fill="#000000">2</text>
</g>
<!-- bus3 -->
<g id="node3" class="node">
<title>bus3</title>
<ellipse fill="none" stroke="#000000" cx="585.2881" cy="-385.1784" rx="27" ry="18"/>
<text text-anchor="middle" x="585.2881" y="-381.4784" font-family="Times,serif" font-size="14.00" fill="#000000">1</text>
</g>
<!-- bus3&#45;&#45;bus2 -->
<g id="edge4" class="edge">
<title>bus3&#45;&#45;bus2</title>
<path fill="none" stroke="#000000" d="M559.8577,-378.8444C541.8329,-374.355 517.7517,-368.3571 499.7535,-363.8743"/>
<text text-anchor="middle" x="526.3056" y="-375.1594" font-family="Times,serif" font-size="14.00" fill="#000000">1</text>
</g>
<!-- bus6 -->
<g id="node6" class="node">
<title>bus6</title>
<ellipse fill="none" stroke="#000000" cx="231.2131" cy="-403.4458" rx="27" ry="18"/>
<text text-anchor="middle" x="231.2131" y="-399.7458" font-family="Times,serif" font-size="14.00" fill="#000000">6</text>
</g>
<!-- bus4&#45;&#45;bus6 -->
<g id="edge5" class="edge">
<title>bus4&#45;&#45;bus6</title>
<path fill="none" stroke="#000000" d="M346.1806,-425.4268C320.8199,-420.578 282.6124,-413.273 257.2992,-408.4333"/>
<text text-anchor="middle" x="298.2399" y="-420.7301" font-family="Times,serif" font-size="14.00" fill="#000000">3</text>
</g>
<!-- bus7 -->
<g id="node7" class="node">
<title>bus7</title>
<ellipse fill="none" stroke="#000000" cx="274.4008" cy="-312.5195" rx="27" ry="18"/>
<text text-anchor="middle" x="274.4008" y="-308.8195" font-family="Times,serif" font-size="14.00" fill="#000000">7</text>
</g>
<!-- bus6&#45;&#45;bus7 -->
<g id="edge6" class="edge">
<title>bus6&#45;&#45;bus7</title>
<path fill="none" stroke="#000000" d="M239.5401,-385.9143C247.2367,-369.7101 258.6045,-345.7765 266.2458,-329.6888"/>
<text text-anchor="middle" x="249.3929" y="-361.6015" font-family="Times,serif" font-size="14.00" fill="#000000">5</text>
</g>
<!-- bus7&#45;&#45;bus1 -->
<g id="edge7" class="edge">
<title>bus7&#45;&#45;bus1</title>
<path fill="none" stroke="#000000" d="M283.7084,-295.493C294.152,-276.3884 310.9955,-245.5764 321.4448,-226.4614"/>
<text text-anchor="middle" x="299.0766" y="-264.7772" font-family="Times,serif" font-size="14.00" fill="#000000">6</text>
</g>
<!-- bus8&#45;&#45;bus2 -->
<g id="edge8" class="edge">
<title>bus8&#45;&#45;bus2</title>
<path fill="none" stroke="#000000" d="M447.1054,-261.5809C453.1563,-282.8285 463.2255,-318.1857 469.3078,-339.5435"/>
<text text-anchor="middle" x="454.7066" y="-304.3622" font-family="Times,serif" font-size="14.00" fill="#000000">9</text>
</g>
<!-- bus9 -->
<g id="node9" class="node">
<title>bus9</title>
<ellipse fill="none" stroke="#000000" cx="119.5694" cy="-425.3394" rx="27" ry="18"/>
<text text-anchor="middle" x="119.5694" y="-421.6394" font-family="Times,serif" font-size="14.00" fill="#000000">3</text>
</g>
<!-- bus9&#45;&#45;bus6 -->
<g id="edge9" class="edge">
<title>bus9&#45;&#45;bus6</title>
<path fill="none" stroke="#000000" d="M145.7449,-420.2063C163.662,-416.6927 187.3196,-412.0534 205.2016,-408.5467"/>
<text text-anchor="middle" x="171.9732" y="-418.1765" font-family="Times,serif" font-size="14.00" fill="#000000">4</text>
</g>
<!-- load1 -->
<g id="node10" class="node">
<title>load1</title>
<polygon fill="none" stroke="#b03060" points="428.192,-543.8737 374.192,-543.8737 374.192,-507.8737 428.192,-507.8737 428.192,-543.8737"/>
<text text-anchor="middle" x="401.192" y="-522.1737" font-family="Times,serif" font-size="14.00" fill="#000000">5</text>
</g>
<!-- load1&#45;&#45;bus4 -->
<g id="edge10" class="edge">
<title>load1&#45;&#45;bus4</title>
<path fill="none" stroke="#b03060" stroke-dasharray="1,5" d="M395.642,-507.4733C390.4795,-490.3577 382.8389,-465.0261 377.7456,-448.1398"/>
</g>
<!-- load2 -->
<g id="node11" class="node">
<title>load2</title>
<polygon fill="none" stroke="#b03060" points="320.2193,-423.8694 266.2193,-423.8694 266.2193,-387.8694 320.2193,-387.8694 320.2193,-423.8694"/>
<text text-anchor="middle" x="293.2193" y="-402.1694" font-family="Times,serif" font-size="14.00" fill="#000000">7</text>
</g>
<!-- load2&#45;&#45;bus7 -->
<g id="edge11" class="edge">
<title>load2&#45;&#45;bus7</title>
<path fill="none" stroke="#b03060" stroke-dasharray="1,5" d="M289.5013,-387.4264C286.1808,-370.9547 281.3455,-346.9689 278.0469,-330.6065"/>
</g>
<!-- load3 -->
<g id="node12" class="node">
<title>load3</title>
<polygon fill="none" stroke="#b03060" points="536.2177,-190.1909 482.2177,-190.1909 482.2177,-154.1909 536.2177,-154.1909 536.2177,-190.1909"/>
<text text-anchor="middle" x="509.2177" y="-168.4909" font-family="Times,serif" font-size="14.00" fill="#000000">9</text>
</g>
<!-- load3&#45;&#45;bus8 -->
<g id="edge12" class="edge">
<title>load3&#45;&#45;bus8</title>
<path fill="none" stroke="#b03060" stroke-dasharray="1,5" d="M492.2667,-190.2622C481.2285,-202.03 466.9831,-217.2169 456.4847,-228.4092"/>
</g>
<!-- thermal1 -->
<g id="node13" class="node">
<title>thermal1</title>
<polygon fill="none" stroke="#cd853f" points="677.0627,-424.4186 650.0627,-406.4186 677.0627,-388.4186 704.0627,-406.4186 677.0627,-424.4186"/>
<text text-anchor="middle" x="677.0627" y="-402.7186" font-family="Times,serif" font-size="14.00" fill="#000000">1</text>
</g>
<!-- thermal1&#45;&#45;bus3 -->
<g id="edge13" class="edge">
<title>thermal1&#45;&#45;bus3</title>
<path fill="none" stroke="#cd853f" stroke-dasharray="5,2" d="M656.6949,-401.7047C643.1762,-398.576 625.3245,-394.4444 610.8525,-391.095"/>
</g>
<!-- thermal2 -->
<g id="node14" class="node">
<title>thermal2</title>
<polygon fill="none" stroke="#cd853f" points="251.8134,-36 224.8134,-18 251.8134,0 278.8134,-18 251.8134,-36"/>
<text text-anchor="middle" x="251.8134" y="-14.3" font-family="Times,serif" font-size="14.00" fill="#000000">2</text>
</g>
<!-- thermal2&#45;&#45;bus5 -->
<g id="edge14" class="edge">
<title>thermal2&#45;&#45;bus5</title>
<path fill="none" stroke="#cd853f" stroke-dasharray="5,2" d="M257.8086,-32.2799C264.0925,-47.2474 273.9736,-70.7828 280.7344,-86.886"/>
</g>
<!-- thermal3 -->
<g id="node15" class="node">
<title>thermal3</title>
<polygon fill="none" stroke="#cd853f" points="27,-453.4659 0,-435.4659 27,-417.4659 54,-435.4659 27,-453.4659"/>
<text text-anchor="middle" x="27" y="-431.7659" font-family="Times,serif" font-size="14.00" fill="#000000">3</text>
</g>
<!-- thermal3&#45;&#45;bus9 -->
<g id="edge15" class="edge">
<title>thermal3&#45;&#45;bus9</title>
<path fill="none" stroke="#cd853f" stroke-dasharray="5,2" d="M50.3592,-432.9106C63.2137,-431.5044 79.2244,-429.7529 92.6079,-428.2888"/>
</g>
</g>
</svg>
