<?xml version="1.0" encoding="UTF-8" standalone="no"?>
<!DOCTYPE svg PUBLIC "-//W3C//DTD SVG 1.1//EN"
 "http://www.w3.org/Graphics/SVG/1.1/DTD/svg11.dtd">
<!-- Generated by graphviz version 2.40.1 (20161225.0304)
 -->
<!-- Title: %3 Pages: 1 -->
<svg width="472pt" height="397pt"
 viewBox="0.00 0.00 472.45 397.09" xmlns="http://www.w3.org/2000/svg" xmlns:xlink="http://www.w3.org/1999/xlink">
<g id="graph0" class="graph" transform="scale(1 1) rotate(0) translate(4 393.0863)">
<title>%3</title>
<polygon fill="#ffffff" stroke="transparent" points="-4,4 -4,-393.0863 468.454,-393.0863 468.454,4 -4,4"/>
<!-- bus1 -->
<g id="node1" class="node">
<title>bus1</title>
<ellipse fill="none" stroke="#000000" cx="302.62" cy="-144.0937" rx="27" ry="18"/>
<text text-anchor="middle" x="302.62" y="-140.3937" font-family="Times,serif" font-size="14.00" fill="#000000">4</text>
</g>
<!-- bus3 -->
<g id="node3" class="node">
<title>bus3</title>
<ellipse fill="none" stroke="#000000" cx="197.8655" cy="-180.9587" rx="27" ry="18"/>
<text text-anchor="middle" x="197.8655" y="-177.2587" font-family="Times,serif" font-size="14.00" fill="#000000">5</text>
</g>
<!-- bus1&#45;&#45;bus3 -->
<g id="edge1" class="edge">
<title>bus1&#45;&#45;bus3</title>
<path fill="none" stroke="#000000" d="M278.5872,-152.5513C261.5531,-158.5459 238.7954,-166.5547 221.7865,-172.5405"/>
<text text-anchor="middle" x="243.1868" y="-166.3459" font-family="Times,serif" font-size="14.00" fill="#000000">10</text>
</g>
<!-- bus2 -->
<g id="node2" class="node">
<title>bus2</title>
<ellipse fill="none" stroke="#000000" cx="324.5924" cy="-230.4573" rx="27" ry="18"/>
<text text-anchor="middle" x="324.5924" y="-226.7573" font-family="Times,serif" font-size="14.00" fill="#000000">1</text>
</g>
<!-- bus2&#45;&#45;bus1 -->
<g id="edge3" class="edge">
<title>bus2&#45;&#45;bus1</title>
<path fill="none" stroke="#000000" d="M320.0397,-212.5627C316.2687,-197.7406 310.9363,-176.7811 307.1669,-161.9654"/>
<text text-anchor="middle" x="310.1033" y="-191.064" font-family="Times,serif" font-size="14.00" fill="#000000">2</text>
</g>
<!-- bus2&#45;&#45;bus3 -->
<g id="edge4" class="edge">
<title>bus2&#45;&#45;bus3</title>
<path fill="none" stroke="#000000" d="M301.053,-221.263C278.2909,-212.3723 243.9982,-198.9778 221.2788,-190.1037"/>
<text text-anchor="middle" x="257.6659" y="-209.4834" font-family="Times,serif" font-size="14.00" fill="#000000">3</text>
</g>
<!-- bus4 -->
<g id="node4" class="node">
<title>bus4</title>
<ellipse fill="none" stroke="#000000" cx="227.5638" cy="-244.7803" rx="27" ry="18"/>
<text text-anchor="middle" x="227.5638" y="-241.0803" font-family="Times,serif" font-size="14.00" fill="#000000">2</text>
</g>
<!-- bus2&#45;&#45;bus4 -->
<g id="edge2" class="edge">
<title>bus2&#45;&#45;bus4</title>
<path fill="none" stroke="#000000" d="M298.0789,-234.3711C284.388,-236.3921 267.7315,-238.8509 254.0452,-240.8712"/>
<text text-anchor="middle" x="272.5621" y="-241.4211" font-family="Times,serif" font-size="14.00" fill="#000000">1</text>
</g>
<!-- bus5 -->
<g id="node5" class="node">
<title>bus5</title>
<ellipse fill="none" stroke="#000000" cx="118.9661" cy="-252.3384" rx="27" ry="18"/>
<text text-anchor="middle" x="118.9661" y="-248.6384" font-family="Times,serif" font-size="14.00" fill="#000000">6</text>
</g>
<!-- bus3&#45;&#45;bus5 -->
<g id="edge5" class="edge">
<title>bus3&#45;&#45;bus5</title>
<path fill="none" stroke="#000000" d="M181.5175,-195.7486C167.8861,-208.0808 148.5729,-225.5533 135.0232,-237.8116"/>
<text text-anchor="middle" x="151.2703" y="-220.5801" font-family="Times,serif" font-size="14.00" fill="#000000">11</text>
</g>
<!-- bus4&#45;&#45;bus1 -->
<g id="edge8" class="edge">
<title>bus4&#45;&#45;bus1</title>
<path fill="none" stroke="#000000" d="M239.6229,-228.6032C253.6292,-209.814 276.5973,-179.0026 290.5909,-160.2306"/>
<text text-anchor="middle" x="261.6069" y="-183.2169" font-family="Times,serif" font-size="14.00" fill="#000000">5</text>
</g>
<!-- bus4&#45;&#45;bus3 -->
<g id="edge7" class="edge">
<title>bus4&#45;&#45;bus3</title>
<path fill="none" stroke="#000000" d="M219.4486,-227.3407C215.2581,-218.3354 210.1599,-207.3794 205.9709,-198.3771"/>
<text text-anchor="middle" x="209.2097" y="-216.6589" font-family="Times,serif" font-size="14.00" fill="#000000">6</text>
</g>
<!-- bus4&#45;&#45;bus5 -->
<g id="edge9" class="edge">
<title>bus4&#45;&#45;bus5</title>
<path fill="none" stroke="#000000" d="M200.4401,-246.668C183.8546,-247.8223 162.7115,-249.2938 146.1203,-250.4485"/>
<text text-anchor="middle" x="169.7802" y="-252.3583" font-family="Times,serif" font-size="14.00" fill="#000000">7</text>
</g>
<!-- bus6 -->
<g id="node6" class="node">
<title>bus6</title>
<ellipse fill="none" stroke="#000000" cx="141.2892" cy="-136.9543" rx="27" ry="18"/>
<text text-anchor="middle" x="141.2892" y="-133.2543" font-family="Times,serif" font-size="14.00" fill="#000000">3</text>
</g>
<!-- bus4&#45;&#45;bus6 -->
<g id="edge6" class="edge">
<title>bus4&#45;&#45;bus6</title>
<path fill="none" stroke="#000000" d="M214.8337,-228.8702C198.5221,-208.4839 170.4083,-173.3474 154.0716,-152.9296"/>
<text text-anchor="middle" x="180.9526" y="-194.6999" font-family="Times,serif" font-size="14.00" fill="#000000">4</text>
</g>
<!-- bus6&#45;&#45;bus3 -->
<g id="edge10" class="edge">
<title>bus6&#45;&#45;bus3</title>
<path fill="none" stroke="#000000" d="M158.8802,-150.6363C165.6272,-155.8841 173.3264,-161.8724 180.0906,-167.1335"/>
<text text-anchor="middle" x="165.9854" y="-162.6849" font-family="Times,serif" font-size="14.00" fill="#000000">8</text>
</g>
<!-- bus6&#45;&#45;bus5 -->
<g id="edge11" class="edge">
<title>bus6&#45;&#45;bus5</title>
<path fill="none" stroke="#000000" d="M137.8012,-154.983C133.6075,-176.6598 126.6124,-212.816 122.4296,-234.4362"/>
<text text-anchor="middle" x="126.6154" y="-198.5096" font-family="Times,serif" font-size="14.00" fill="#000000">9</text>
</g>
<!-- load1 -->
<g id="node7" class="node">
<title>load1</title>
<polygon fill="none" stroke="#b03060" points="411.1097,-71.9534 357.1097,-71.9534 357.1097,-35.9534 411.1097,-35.9534 411.1097,-71.9534"/>
<text text-anchor="middle" x="384.1097" y="-50.2534" font-family="Times,serif" font-size="14.00" fill="#000000">4</text>
</g>
<!-- load1&#45;&#45;bus1 -->
<g id="edge12" class="edge">
<title>load1&#45;&#45;bus1</title>
<path fill="none" stroke="#b03060" stroke-dasharray="1,5" d="M367.619,-72.1946C352.6438,-88.7596 330.796,-112.9266 316.6431,-128.582"/>
</g>
<!-- load2 -->
<g id="node8" class="node">
<title>load2</title>
<polygon fill="none" stroke="#b03060" points="80.5086,-171.7363 26.5086,-171.7363 26.5086,-135.7363 80.5086,-135.7363 80.5086,-171.7363"/>
<text text-anchor="middle" x="53.5086" y="-150.0363" font-family="Times,serif" font-size="14.00" fill="#000000">5</text>
</g>
<!-- load2&#45;&#45;bus3 -->
<g id="edge13" class="edge">
<title>load2&#45;&#45;bus3</title>
<path fill="none" stroke="#b03060" stroke-dasharray="1,5" d="M80.661,-158.8566C106.7964,-163.7852 146.0456,-171.1866 171.8071,-176.0447"/>
</g>
<!-- load3 -->
<g id="node9" class="node">
<title>load3</title>
<polygon fill="none" stroke="#b03060" points="54,-352.0956 0,-352.0956 0,-316.0956 54,-316.0956 54,-352.0956"/>
<text text-anchor="middle" x="27" y="-330.3956" font-family="Times,serif" font-size="14.00" fill="#000000">6</text>
</g>
<!-- load3&#45;&#45;bus5 -->
<g id="edge14" class="edge">
<title>load3&#45;&#45;bus5</title>
<path fill="none" stroke="#b03060" stroke-dasharray="1,5" d="M47.4103,-315.951C64.0265,-301.1793 87.175,-280.6004 102.594,-266.8931"/>
</g>
<!-- thermal1 -->
<g id="node10" class="node">
<title>thermal1</title>
<polygon fill="none" stroke="#cd853f" points="437.454,-293.588 410.454,-275.588 437.454,-257.588 464.454,-275.588 437.454,-293.588"/>
<text text-anchor="middle" x="437.454" y="-271.888" font-family="Times,serif" font-size="14.00" fill="#000000">1</text>
</g>
<!-- thermal1&#45;&#45;bus2 -->
<g id="edge15" class="edge">
<title>thermal1&#45;&#45;bus2</title>
<path fill="none" stroke="#cd853f" stroke-dasharray="5,2" d="M420.3128,-268.7336C400.9498,-260.9908 369.335,-248.3488 347.7786,-239.7289"/>
</g>
<!-- thermal2 -->
<g id="node11" class="node">
<title>thermal2</title>
<polygon fill="none" stroke="#cd853f" points="246.2798,-389.0863 219.2798,-371.0863 246.2798,-353.0863 273.2798,-371.0863 246.2798,-389.0863"/>
<text text-anchor="middle" x="246.2798" y="-367.3863" font-family="Times,serif" font-size="14.00" fill="#000000">2</text>
</g>
<!-- thermal2&#45;&#45;bus4 -->
<g id="edge16" class="edge">
<title>thermal2&#45;&#45;bus4</title>
<path fill="none" stroke="#cd853f" stroke-dasharray="5,2" d="M243.833,-354.574C240.3254,-330.9025 233.8908,-287.4782 230.2534,-262.9315"/>
</g>
<!-- thermal3 -->
<g id="node12" class="node">
<title>thermal3</title>
<polygon fill="none" stroke="#cd853f" points="97.8129,-36 70.8129,-18 97.8129,0 124.8129,-18 97.8129,-36"/>
<text text-anchor="middle" x="97.8129" y="-14.3" font-family="Times,serif" font-size="14.00" fill="#000000">3</text>
</g>
<!-- thermal3&#45;&#45;bus6 -->
<g id="edge17" class="edge">
<title>thermal3&#45;&#45;bus6</title>
<path fill="none" stroke="#cd853f" stroke-dasharray="5,2" d="M103.144,-32.5861C111.1255,-54.424 126.162,-95.5651 134.7804,-119.1456"/>
</g>
</g>
</svg>
