<?xml version="1.0" encoding="UTF-8" standalone="no"?>
<!DOCTYPE svg PUBLIC "-//W3C//DTD SVG 1.1//EN"
 "http://www.w3.org/Graphics/SVG/1.1/DTD/svg11.dtd">
<!-- Generated by graphviz version 2.40.1 (20161225.0304)
 -->
<!-- Title: %3 Pages: 1 -->
<svg width="448pt" height="293pt"
 viewBox="0.00 0.00 447.52 293.45" xmlns="http://www.w3.org/2000/svg" xmlns:xlink="http://www.w3.org/1999/xlink">
<g id="graph0" class="graph" transform="scale(1 1) rotate(0) translate(4 289.4476)">
<title>%3</title>
<polygon fill="#ffffff" stroke="transparent" points="-4,4 -4,-289.4476 443.5169,-289.4476 443.5169,4 -4,4"/>
<!-- bus1 -->
<g id="node1" class="node">
<title>bus1</title>
<ellipse fill="none" stroke="#000000" cx="169.6489" cy="-125.1598" rx="27" ry="18"/>
<text text-anchor="middle" x="169.6489" y="-121.4598" font-family="Times,serif" font-size="14.00" fill="#000000">4</text>
</g>
<!-- bus5 -->
<g id="node5" class="node">
<title>bus5</title>
<ellipse fill="none" stroke="#000000" cx="170.9507" cy="-191.8785" rx="27" ry="18"/>
<text text-anchor="middle" x="170.9507" y="-188.1785" font-family="Times,serif" font-size="14.00" fill="#000000">6</text>
</g>
<!-- bus1&#45;&#45;bus5 -->
<g id="edge1" class="edge">
<title>bus1&#45;&#45;bus5</title>
<path fill="none" stroke="#000000" d="M170.0047,-143.391C170.1883,-152.8051 170.4118,-164.2585 170.5954,-173.6694"/>
<text text-anchor="middle" x="166.8" y="-162.3302" font-family="Times,serif" font-size="14.00" fill="#000000">5</text>
</g>
<!-- bus2 -->
<g id="node2" class="node">
<title>bus2</title>
<ellipse fill="none" stroke="#000000" cx="95.1625" cy="-151.7224" rx="27" ry="18"/>
<text text-anchor="middle" x="95.1625" y="-148.0224" font-family="Times,serif" font-size="14.00" fill="#000000">1</text>
</g>
<!-- bus2&#45;&#45;bus1 -->
<g id="edge2" class="edge">
<title>bus2&#45;&#45;bus1</title>
<path fill="none" stroke="#000000" d="M119.1405,-143.1716C127.6463,-140.1384 137.2139,-136.7265 145.7159,-133.6945"/>
<text text-anchor="middle" x="128.9282" y="-142.2331" font-family="Times,serif" font-size="14.00" fill="#000000">1</text>
</g>
<!-- bus2&#45;&#45;bus5 -->
<g id="edge3" class="edge">
<title>bus2&#45;&#45;bus5</title>
<path fill="none" stroke="#000000" d="M116.6777,-163.1221C127.0056,-168.5943 139.3435,-175.1315 149.6441,-180.5893"/>
<text text-anchor="middle" x="129.6609" y="-175.6557" font-family="Times,serif" font-size="14.00" fill="#000000">2</text>
</g>
<!-- bus3 -->
<g id="node3" class="node">
<title>bus3</title>
<ellipse fill="none" stroke="#000000" cx="262.6607" cy="-175.9353" rx="27" ry="18"/>
<text text-anchor="middle" x="262.6607" y="-172.2353" font-family="Times,serif" font-size="14.00" fill="#000000">5</text>
</g>
<!-- bus3&#45;&#45;bus5 -->
<g id="edge4" class="edge">
<title>bus3&#45;&#45;bus5</title>
<path fill="none" stroke="#000000" d="M236.1343,-180.5467C223.8612,-182.6804 209.327,-185.207 197.1007,-187.3325"/>
<text text-anchor="middle" x="213.1175" y="-187.7396" font-family="Times,serif" font-size="14.00" fill="#000000">7</text>
</g>
<!-- bus4 -->
<g id="node4" class="node">
<title>bus4</title>
<ellipse fill="none" stroke="#000000" cx="333.2302" cy="-168.8357" rx="27" ry="18"/>
<text text-anchor="middle" x="333.2302" y="-165.1357" font-family="Times,serif" font-size="14.00" fill="#000000">2</text>
</g>
<!-- bus4&#45;&#45;bus3 -->
<g id="edge5" class="edge">
<title>bus4&#45;&#45;bus3</title>
<path fill="none" stroke="#000000" d="M306.148,-171.5603C300.7063,-172.1078 294.9891,-172.6829 289.5539,-173.2297"/>
<text text-anchor="middle" x="294.3509" y="-176.195" font-family="Times,serif" font-size="14.00" fill="#000000">4</text>
</g>
<!-- bus6 -->
<g id="node6" class="node">
<title>bus6</title>
<ellipse fill="none" stroke="#000000" cx="253.5455" cy="-97.0213" rx="27" ry="18"/>
<text text-anchor="middle" x="253.5455" y="-93.3213" font-family="Times,serif" font-size="14.00" fill="#000000">3</text>
</g>
<!-- bus4&#45;&#45;bus6 -->
<g id="edge6" class="edge">
<title>bus4&#45;&#45;bus6</title>
<path fill="none" stroke="#000000" d="M317.1048,-154.303C303.2799,-141.8435 283.4649,-123.9856 269.6469,-111.5324"/>
<text text-anchor="middle" x="289.8758" y="-136.7177" font-family="Times,serif" font-size="14.00" fill="#000000">3</text>
</g>
<!-- bus6&#45;&#45;bus1 -->
<g id="edge7" class="edge">
<title>bus6&#45;&#45;bus1</title>
<path fill="none" stroke="#000000" d="M229.2791,-105.1601C218.1484,-108.8933 204.9848,-113.3083 193.8608,-117.0393"/>
<text text-anchor="middle" x="208.0699" y="-114.8997" font-family="Times,serif" font-size="14.00" fill="#000000">6</text>
</g>
<!-- load1 -->
<g id="node7" class="node">
<title>load1</title>
<polygon fill="none" stroke="#b03060" points="342.5517,-131.6499 288.5517,-131.6499 288.5517,-95.6499 342.5517,-95.6499 342.5517,-131.6499"/>
<text text-anchor="middle" x="315.5517" y="-109.9499" font-family="Times,serif" font-size="14.00" fill="#000000">5</text>
</g>
<!-- load1&#45;&#45;bus3 -->
<g id="edge8" class="edge">
<title>load1&#45;&#45;bus3</title>
<path fill="none" stroke="#b03060" stroke-dasharray="1,5" d="M300.2534,-131.6654C292.6871,-140.5756 283.6307,-151.2406 276.3029,-159.87"/>
</g>
<!-- load2 -->
<g id="node8" class="node">
<title>load2</title>
<polygon fill="none" stroke="#b03060" points="64.7431,-117.7442 10.7431,-117.7442 10.7431,-81.7442 64.7431,-81.7442 64.7431,-117.7442"/>
<text text-anchor="middle" x="37.7431" y="-96.0442" font-family="Times,serif" font-size="14.00" fill="#000000">1</text>
</g>
<!-- load2&#45;&#45;bus2 -->
<g id="edge9" class="edge">
<title>load2&#45;&#45;bus2</title>
<path fill="none" stroke="#b03060" stroke-dasharray="1,5" d="M57.8256,-117.9236C64.6817,-124.13 72.2615,-130.9915 78.7901,-136.9014"/>
</g>
<!-- load3 -->
<g id="node9" class="node">
<title>load3</title>
<polygon fill="none" stroke="#b03060" points="180.9653,-285.4476 126.9653,-285.4476 126.9653,-249.4476 180.9653,-249.4476 180.9653,-285.4476"/>
<text text-anchor="middle" x="153.9653" y="-263.7476" font-family="Times,serif" font-size="14.00" fill="#000000">6</text>
</g>
<!-- load3&#45;&#45;bus5 -->
<g id="edge10" class="edge">
<title>load3&#45;&#45;bus5</title>
<path fill="none" stroke="#b03060" stroke-dasharray="1,5" d="M158.077,-249.1544C160.7671,-237.1857 164.2649,-221.6239 166.9355,-209.7425"/>
</g>
<!-- load4 -->
<g id="node10" class="node">
<title>load4</title>
<polygon fill="none" stroke="#b03060" points="403.0205,-253.3042 349.0205,-253.3042 349.0205,-217.3042 403.0205,-217.3042 403.0205,-253.3042"/>
<text text-anchor="middle" x="376.0205" y="-231.6042" font-family="Times,serif" font-size="14.00" fill="#000000">2</text>
</g>
<!-- load4&#45;&#45;bus4 -->
<g id="edge11" class="edge">
<title>load4&#45;&#45;bus4</title>
<path fill="none" stroke="#b03060" stroke-dasharray="1,5" d="M364.3278,-217.1414C357.9931,-207.3013 350.2187,-195.2249 344.028,-185.6085"/>
</g>
<!-- load5 -->
<g id="node11" class="node">
<title>load5</title>
<polygon fill="none" stroke="#b03060" points="284.6038,-36 230.6038,-36 230.6038,0 284.6038,0 284.6038,-36"/>
<text text-anchor="middle" x="257.6038" y="-14.3" font-family="Times,serif" font-size="14.00" fill="#000000">3</text>
</g>
<!-- load5&#45;&#45;bus6 -->
<g id="edge12" class="edge">
<title>load5&#45;&#45;bus6</title>
<path fill="none" stroke="#b03060" stroke-dasharray="1,5" d="M256.6625,-36.3277C256.0069,-49.0938 255.1361,-66.0487 254.4816,-78.793"/>
</g>
<!-- thermal1 -->
<g id="node12" class="node">
<title>thermal1</title>
<polygon fill="none" stroke="#cd853f" points="27,-206.624 0,-188.624 27,-170.624 54,-188.624 27,-206.624"/>
<text text-anchor="middle" x="27" y="-184.924" font-family="Times,serif" font-size="14.00" fill="#000000">1</text>
</g>
<!-- thermal1&#45;&#45;bus2 -->
<g id="edge13" class="edge">
<title>thermal1&#45;&#45;bus2</title>
<path fill="none" stroke="#cd853f" stroke-dasharray="5,2" d="M42.1275,-180.4343C51.5406,-175.3383 63.7821,-168.711 74.1321,-163.1078"/>
</g>
<!-- thermal2 -->
<g id="node13" class="node">
<title>thermal2</title>
<polygon fill="none" stroke="#cd853f" points="412.5169,-171.9001 385.5169,-153.9001 412.5169,-135.9001 439.5169,-153.9001 412.5169,-171.9001"/>
<text text-anchor="middle" x="412.5169" y="-150.2001" font-family="Times,serif" font-size="14.00" fill="#000000">2</text>
</g>
<!-- thermal2&#45;&#45;bus4 -->
<g id="edge14" class="edge">
<title>thermal2&#45;&#45;bus4</title>
<path fill="none" stroke="#cd853f" stroke-dasharray="5,2" d="M391.2695,-157.9026C381.4532,-159.7517 369.7034,-161.9651 359.3512,-163.9152"/>
</g>
</g>
</svg>
