<?xml version="1.0" encoding="UTF-8" standalone="no"?>
<!DOCTYPE svg PUBLIC "-//W3C//DTD SVG 1.1//EN"
 "http://www.w3.org/Graphics/SVG/1.1/DTD/svg11.dtd">
<!-- Generated by graphviz version 2.40.1 (20161225.0304)
 -->
<!-- Title: %3 Pages: 1 -->
<svg width="393pt" height="272pt"
 viewBox="0.00 0.00 393.45 271.67" xmlns="http://www.w3.org/2000/svg" xmlns:xlink="http://www.w3.org/1999/xlink">
<g id="graph0" class="graph" transform="scale(1 1) rotate(0) translate(4 267.6669)">
<title>%3</title>
<polygon fill="#ffffff" stroke="transparent" points="-4,4 -4,-267.6669 389.4453,-267.6669 389.4453,4 -4,4"/>
<!-- bus1 -->
<g id="node1" class="node">
<title>bus1</title>
<ellipse fill="none" stroke="#000000" cx="264.6194" cy="-159.1754" rx="27" ry="18"/>
<text text-anchor="middle" x="264.6194" y="-155.4754" font-family="Times,serif" font-size="14.00" fill="#000000">4</text>
</g>
<!-- bus2 -->
<g id="node2" class="node">
<title>bus2</title>
<ellipse fill="none" stroke="#000000" cx="120.6377" cy="-159.1348" rx="27" ry="18"/>
<text text-anchor="middle" x="120.6377" y="-155.4348" font-family="Times,serif" font-size="14.00" fill="#000000">1</text>
</g>
<!-- bus3 -->
<g id="node3" class="node">
<title>bus3</title>
<ellipse fill="none" stroke="#000000" cx="223.6918" cy="-98.9548" rx="27" ry="18"/>
<text text-anchor="middle" x="223.6918" y="-95.2548" font-family="Times,serif" font-size="14.00" fill="#000000">2</text>
</g>
<!-- bus2&#45;&#45;bus3 -->
<g id="edge1" class="edge">
<title>bus2&#45;&#45;bus3</title>
<path fill="none" stroke="#000000" d="M140.9979,-147.2451C159.0647,-136.6948 185.3199,-121.3626 203.3739,-110.8197"/>
<text text-anchor="middle" x="168.6859" y="-132.8324" font-family="Times,serif" font-size="14.00" fill="#000000">1</text>
</g>
<!-- bus4 -->
<g id="node4" class="node">
<title>bus4</title>
<ellipse fill="none" stroke="#000000" cx="161.6856" cy="-98.8611" rx="27" ry="18"/>
<text text-anchor="middle" x="161.6856" y="-95.1611" font-family="Times,serif" font-size="14.00" fill="#000000">3</text>
</g>
<!-- bus2&#45;&#45;bus4 -->
<g id="edge2" class="edge">
<title>bus2&#45;&#45;bus4</title>
<path fill="none" stroke="#000000" d="M131.8543,-142.6647C137.6462,-134.16 144.6927,-123.813 150.4827,-115.3112"/>
<text text-anchor="middle" x="144.6685" y="-132.788" font-family="Times,serif" font-size="14.00" fill="#000000">2</text>
</g>
<!-- bus3&#45;&#45;bus1 -->
<g id="edge3" class="edge">
<title>bus3&#45;&#45;bus1</title>
<path fill="none" stroke="#000000" d="M234.8755,-115.4104C240.6504,-123.9076 247.6763,-134.2454 253.4493,-142.7398"/>
<text text-anchor="middle" x="247.6624" y="-117.8751" font-family="Times,serif" font-size="14.00" fill="#000000">3</text>
</g>
<!-- bus4&#45;&#45;bus1 -->
<g id="edge4" class="edge">
<title>bus4&#45;&#45;bus1</title>
<path fill="none" stroke="#000000" d="M182.022,-110.7773C200.0677,-121.3512 226.2923,-136.7176 244.3253,-147.284"/>
<text text-anchor="middle" x="209.6737" y="-132.8306" font-family="Times,serif" font-size="14.00" fill="#000000">4</text>
</g>
<!-- load1 -->
<g id="node5" class="node">
<title>load1</title>
<polygon fill="none" stroke="#b03060" points="324.0696,-263.6669 270.0696,-263.6669 270.0696,-227.6669 324.0696,-227.6669 324.0696,-263.6669"/>
<text text-anchor="middle" x="297.0696" y="-241.9669" font-family="Times,serif" font-size="14.00" fill="#000000">4</text>
</g>
<!-- load1&#45;&#45;bus1 -->
<g id="edge5" class="edge">
<title>load1&#45;&#45;bus1</title>
<path fill="none" stroke="#b03060" stroke-dasharray="1,5" d="M290.1877,-227.3243C284.6064,-212.448 276.7875,-191.6078 271.2694,-176.9001"/>
</g>
<!-- load2 -->
<g id="node6" class="node">
<title>load2</title>
<polygon fill="none" stroke="#b03060" points="54,-174.5532 0,-174.5532 0,-138.5532 54,-138.5532 54,-174.5532"/>
<text text-anchor="middle" x="27" y="-152.8532" font-family="Times,serif" font-size="14.00" fill="#000000">1</text>
</g>
<!-- load2&#45;&#45;bus2 -->
<g id="edge6" class="edge">
<title>load2&#45;&#45;bus2</title>
<path fill="none" stroke="#b03060" stroke-dasharray="1,5" d="M54.0839,-157.2999C66.507,-157.6424 81.1991,-158.0475 93.6147,-158.3897"/>
</g>
<!-- load3 -->
<g id="node7" class="node">
<title>load3</title>
<polygon fill="none" stroke="#b03060" points="299.4371,-36.061 245.4371,-36.061 245.4371,-.061 299.4371,-.061 299.4371,-36.061"/>
<text text-anchor="middle" x="272.4371" y="-14.361" font-family="Times,serif" font-size="14.00" fill="#000000">2</text>
</g>
<!-- load3&#45;&#45;bus3 -->
<g id="edge7" class="edge">
<title>load3&#45;&#45;bus3</title>
<path fill="none" stroke="#b03060" stroke-dasharray="1,5" d="M261.3761,-36.417C253.1177,-50.122 241.918,-68.708 233.878,-82.0507"/>
</g>
<!-- load4 -->
<g id="node8" class="node">
<title>load4</title>
<polygon fill="none" stroke="#b03060" points="139.719,-36 85.719,-36 85.719,0 139.719,0 139.719,-36"/>
<text text-anchor="middle" x="112.719" y="-14.3" font-family="Times,serif" font-size="14.00" fill="#000000">3</text>
</g>
<!-- load4&#45;&#45;bus4 -->
<g id="edge8" class="edge">
<title>load4&#45;&#45;bus4</title>
<path fill="none" stroke="#b03060" stroke-dasharray="1,5" d="M123.8303,-36.3486C132.1262,-50.048 143.3767,-68.6266 151.4532,-81.9638"/>
</g>
<!-- thermal1 -->
<g id="node9" class="node">
<title>thermal1</title>
<polygon fill="none" stroke="#cd853f" points="358.4453,-174.3779 331.4453,-156.3779 358.4453,-138.3779 385.4453,-156.3779 358.4453,-174.3779"/>
<text text-anchor="middle" x="358.4453" y="-152.6779" font-family="Times,serif" font-size="14.00" fill="#000000">1</text>
</g>
<!-- thermal1&#45;&#45;bus1 -->
<g id="edge9" class="edge">
<title>thermal1&#45;&#45;bus1</title>
<path fill="none" stroke="#cd853f" stroke-dasharray="5,2" d="M332.5586,-157.1498C319.866,-157.5282 304.5842,-157.9838 291.7312,-158.3671"/>
</g>
<!-- thermal2 -->
<g id="node10" class="node">
<title>thermal2</title>
<polygon fill="none" stroke="#cd853f" points="88.202,-263.6154 61.202,-245.6154 88.202,-227.6154 115.202,-245.6154 88.202,-263.6154"/>
<text text-anchor="middle" x="88.202" y="-241.9154" font-family="Times,serif" font-size="14.00" fill="#000000">2</text>
</g>
<!-- thermal2&#45;&#45;bus2 -->
<g id="edge10" class="edge">
<title>thermal2&#45;&#45;bus2</title>
<path fill="none" stroke="#cd853f" stroke-dasharray="5,2" d="M93.7043,-230.9451C99.3073,-216.0062 107.999,-192.8323 113.9852,-176.8719"/>
</g>
</g>
</svg>
