<?xml version="1.0" encoding="UTF-8" standalone="no"?>
<!DOCTYPE svg PUBLIC "-//W3C//DTD SVG 1.1//EN"
 "http://www.w3.org/Graphics/SVG/1.1/DTD/svg11.dtd">
<!-- Generated by graphviz version 2.40.1 (20161225.0304)
 -->
<!-- Title: %3 Pages: 1 -->
<svg width="842pt" height="764pt"
 viewBox="0.00 0.00 841.56 764.14" xmlns="http://www.w3.org/2000/svg" xmlns:xlink="http://www.w3.org/1999/xlink">
<g id="graph0" class="graph" transform="scale(1 1) rotate(0) translate(4 760.1439)">
<title>%3</title>
<polygon fill="#ffffff" stroke="transparent" points="-4,4 -4,-760.1439 837.5586,-760.1439 837.5586,4 -4,4"/>
<!-- bus1 -->
<g id="node1" class="node">
<title>bus1</title>
<ellipse fill="none" stroke="#000000" cx="505.8773" cy="-264.5211" rx="27" ry="18"/>
<text text-anchor="middle" x="505.8773" y="-260.8211" font-family="Times,serif" font-size="14.00" fill="#000000">24</text>
</g>
<!-- bus9 -->
<g id="node9" class="node">
<title>bus9</title>
<ellipse fill="none" stroke="#000000" cx="431.8841" cy="-177.9496" rx="27" ry="18"/>
<text text-anchor="middle" x="431.8841" y="-174.2496" font-family="Times,serif" font-size="14.00" fill="#000000">25</text>
</g>
<!-- bus1&#45;&#45;bus9 -->
<g id="edge1" class="edge">
<title>bus1&#45;&#45;bus9</title>
<path fill="none" stroke="#000000" d="M492.3058,-248.6425C478.955,-233.0223 458.6905,-209.3129 445.3696,-193.7275"/>
<text text-anchor="middle" x="461.8377" y="-224.985" font-family="Times,serif" font-size="14.00" fill="#000000">33</text>
</g>
<!-- bus2 -->
<g id="node2" class="node">
<title>bus2</title>
<ellipse fill="none" stroke="#000000" cx="347.442" cy="-485.6386" rx="27" ry="18"/>
<text text-anchor="middle" x="347.442" y="-481.9386" font-family="Times,serif" font-size="14.00" fill="#000000">4</text>
</g>
<!-- bus4 -->
<g id="node4" class="node">
<title>bus4</title>
<ellipse fill="none" stroke="#000000" cx="506.5716" cy="-472.4276" rx="27" ry="18"/>
<text text-anchor="middle" x="506.5716" y="-468.7276" font-family="Times,serif" font-size="14.00" fill="#000000">12</text>
</g>
<!-- bus2&#45;&#45;bus4 -->
<g id="edge2" class="edge">
<title>bus2&#45;&#45;bus4</title>
<path fill="none" stroke="#000000" d="M374.4361,-483.3975C403.7868,-480.9608 450.4129,-477.0899 479.711,-474.6576"/>
<text text-anchor="middle" x="420.0736" y="-467.8275" font-family="Times,serif" font-size="14.00" fill="#000000">15</text>
</g>
<!-- bus8 -->
<g id="node8" class="node">
<title>bus8</title>
<ellipse fill="none" stroke="#000000" cx="285.3996" cy="-463.5569" rx="27" ry="18"/>
<text text-anchor="middle" x="285.3996" y="-459.8569" font-family="Times,serif" font-size="14.00" fill="#000000">6</text>
</g>
<!-- bus2&#45;&#45;bus8 -->
<g id="edge3" class="edge">
<title>bus2&#45;&#45;bus8</title>
<path fill="none" stroke="#000000" d="M323.2771,-477.038C318.7859,-475.4395 314.0928,-473.7692 309.6005,-472.1704"/>
<text text-anchor="middle" x="316.4388" y="-463.4042" font-family="Times,serif" font-size="14.00" fill="#000000">7</text>
</g>
<!-- bus3 -->
<g id="node3" class="node">
<title>bus3</title>
<ellipse fill="none" stroke="#000000" cx="148.3566" cy="-473.1526" rx="27" ry="18"/>
<text text-anchor="middle" x="148.3566" y="-469.4526" font-family="Times,serif" font-size="14.00" fill="#000000">1</text>
</g>
<!-- bus7 -->
<g id="node7" class="node">
<title>bus7</title>
<ellipse fill="none" stroke="#000000" cx="238.1669" cy="-520.305" rx="27" ry="18"/>
<text text-anchor="middle" x="238.1669" y="-516.605" font-family="Times,serif" font-size="14.00" fill="#000000">2</text>
</g>
<!-- bus3&#45;&#45;bus7 -->
<g id="edge4" class="edge">
<title>bus3&#45;&#45;bus7</title>
<path fill="none" stroke="#000000" d="M169.6404,-484.3271C183.8531,-491.7891 202.4793,-501.5682 216.7247,-509.0473"/>
<text text-anchor="middle" x="189.6825" y="-500.4872" font-family="Times,serif" font-size="14.00" fill="#000000">1</text>
</g>
<!-- bus30 -->
<g id="node30" class="node">
<title>bus30</title>
<ellipse fill="none" stroke="#000000" cx="223.3845" cy="-449.3204" rx="27" ry="18"/>
<text text-anchor="middle" x="223.3845" y="-445.6204" font-family="Times,serif" font-size="14.00" fill="#000000">3</text>
</g>
<!-- bus3&#45;&#45;bus30 -->
<g id="edge5" class="edge">
<title>bus3&#45;&#45;bus30</title>
<path fill="none" stroke="#000000" d="M172.9236,-465.349C181.2145,-462.7155 190.4672,-459.7764 198.7624,-457.1415"/>
<text text-anchor="middle" x="182.343" y="-465.0453" font-family="Times,serif" font-size="14.00" fill="#000000">2</text>
</g>
<!-- bus13 -->
<g id="node13" class="node">
<title>bus13</title>
<ellipse fill="none" stroke="#000000" cx="534.8102" cy="-409.4619" rx="27" ry="18"/>
<text text-anchor="middle" x="534.8102" y="-405.7619" font-family="Times,serif" font-size="14.00" fill="#000000">13</text>
</g>
<!-- bus4&#45;&#45;bus13 -->
<g id="edge6" class="edge">
<title>bus4&#45;&#45;bus13</title>
<path fill="none" stroke="#000000" d="M514.4376,-454.8881C518.3543,-446.1548 523.0754,-435.6277 526.9863,-426.9073"/>
<text text-anchor="middle" x="527.7119" y="-444.6977" font-family="Times,serif" font-size="14.00" fill="#000000">16</text>
</g>
<!-- bus15 -->
<g id="node15" class="node">
<title>bus15</title>
<ellipse fill="none" stroke="#000000" cx="629.5427" cy="-409.8786" rx="27" ry="18"/>
<text text-anchor="middle" x="629.5427" y="-406.1786" font-family="Times,serif" font-size="14.00" fill="#000000">15</text>
</g>
<!-- bus4&#45;&#45;bus15 -->
<g id="edge9" class="edge">
<title>bus4&#45;&#45;bus15</title>
<path fill="none" stroke="#000000" d="M528.2733,-461.3891C550.7511,-449.9558 585.6605,-432.1992 608.058,-420.8068"/>
<text text-anchor="middle" x="561.1656" y="-444.8979" font-family="Times,serif" font-size="14.00" fill="#000000">18</text>
</g>
<!-- bus18 -->
<g id="node18" class="node">
<title>bus18</title>
<ellipse fill="none" stroke="#000000" cx="519.0492" cy="-586.5298" rx="27" ry="18"/>
<text text-anchor="middle" x="519.0492" y="-582.8298" font-family="Times,serif" font-size="14.00" fill="#000000">16</text>
</g>
<!-- bus4&#45;&#45;bus18 -->
<g id="edge8" class="edge">
<title>bus4&#45;&#45;bus18</title>
<path fill="none" stroke="#000000" d="M508.5487,-490.5074C510.8851,-511.8728 514.749,-547.2061 517.0813,-568.5346"/>
<text text-anchor="middle" x="505.815" y="-518.321" font-family="Times,serif" font-size="14.00" fill="#000000">19</text>
</g>
<!-- bus19 -->
<g id="node19" class="node">
<title>bus19</title>
<ellipse fill="none" stroke="#000000" cx="603.7865" cy="-457.8279" rx="27" ry="18"/>
<text text-anchor="middle" x="603.7865" y="-454.1279" font-family="Times,serif" font-size="14.00" fill="#000000">14</text>
</g>
<!-- bus4&#45;&#45;bus19 -->
<g id="edge7" class="edge">
<title>bus4&#45;&#45;bus19</title>
<path fill="none" stroke="#000000" d="M533.136,-468.4381C546.8531,-466.3781 563.5417,-463.8718 577.2542,-461.8125"/>
<text text-anchor="middle" x="548.1951" y="-468.9253" font-family="Times,serif" font-size="14.00" fill="#000000">17</text>
</g>
<!-- bus5 -->
<g id="node5" class="node">
<title>bus5</title>
<ellipse fill="none" stroke="#000000" cx="255.6025" cy="-127.6978" rx="27" ry="18"/>
<text text-anchor="middle" x="255.6025" y="-123.9978" font-family="Times,serif" font-size="14.00" fill="#000000">29</text>
</g>
<!-- bus29 -->
<g id="node29" class="node">
<title>bus29</title>
<ellipse fill="none" stroke="#000000" cx="317.6503" cy="-98.6873" rx="27" ry="18"/>
<text text-anchor="middle" x="317.6503" y="-94.9873" font-family="Times,serif" font-size="14.00" fill="#000000">30</text>
</g>
<!-- bus5&#45;&#45;bus29 -->
<g id="edge10" class="edge">
<title>bus5&#45;&#45;bus29</title>
<path fill="none" stroke="#000000" d="M278.0032,-117.2243C283.6961,-114.5626 289.8097,-111.7042 295.4905,-109.0481"/>
<text text-anchor="middle" x="283.2469" y="-101.9362" font-family="Times,serif" font-size="14.00" fill="#000000">39</text>
</g>
<!-- bus6 -->
<g id="node6" class="node">
<title>bus6</title>
<ellipse fill="none" stroke="#000000" cx="581.088" cy="-560.8596" rx="27" ry="18"/>
<text text-anchor="middle" x="581.088" y="-557.1596" font-family="Times,serif" font-size="14.00" fill="#000000">20</text>
</g>
<!-- bus7&#45;&#45;bus2 -->
<g id="edge13" class="edge">
<title>bus7&#45;&#45;bus2</title>
<path fill="none" stroke="#000000" d="M262.6904,-512.5252C280.6871,-506.8159 305.0229,-499.0956 323.0003,-493.3924"/>
<text text-anchor="middle" x="289.3454" y="-506.7588" font-family="Times,serif" font-size="14.00" fill="#000000">3</text>
</g>
<!-- bus7&#45;&#45;bus8 -->
<g id="edge11" class="edge">
<title>bus7&#45;&#45;bus8</title>
<path fill="none" stroke="#000000" d="M251.3238,-504.4975C257.7658,-496.7578 265.5089,-487.4547 271.985,-479.674"/>
<text text-anchor="middle" x="258.1544" y="-480.8857" font-family="Times,serif" font-size="14.00" fill="#000000">6</text>
</g>
<!-- bus14 -->
<g id="node14" class="node">
<title>bus14</title>
<ellipse fill="none" stroke="#000000" cx="108.7394" cy="-562.4658" rx="27" ry="18"/>
<text text-anchor="middle" x="108.7394" y="-558.7658" font-family="Times,serif" font-size="14.00" fill="#000000">5</text>
</g>
<!-- bus7&#45;&#45;bus14 -->
<g id="edge12" class="edge">
<title>bus7&#45;&#45;bus14</title>
<path fill="none" stroke="#000000" d="M213.8226,-528.2351C190.8295,-535.7251 156.5156,-546.9028 133.4146,-554.4279"/>
<text text-anchor="middle" x="170.1186" y="-545.1315" font-family="Times,serif" font-size="14.00" fill="#000000">5</text>
</g>
<!-- bus17 -->
<g id="node17" class="node">
<title>bus17</title>
<ellipse fill="none" stroke="#000000" cx="289.7255" cy="-323.2919" rx="27" ry="18"/>
<text text-anchor="middle" x="289.7255" y="-319.5919" font-family="Times,serif" font-size="14.00" fill="#000000">28</text>
</g>
<!-- bus8&#45;&#45;bus17 -->
<g id="edge16" class="edge">
<title>bus8&#45;&#45;bus17</title>
<path fill="none" stroke="#000000" d="M285.9563,-445.5069C286.7823,-418.7222 288.3245,-368.7183 289.1572,-341.718"/>
<text text-anchor="middle" x="280.5568" y="-397.4125" font-family="Times,serif" font-size="14.00" fill="#000000">41</text>
</g>
<!-- bus21 -->
<g id="node21" class="node">
<title>bus21</title>
<ellipse fill="none" stroke="#000000" cx="176.1598" cy="-542.3572" rx="27" ry="18"/>
<text text-anchor="middle" x="176.1598" y="-538.6572" font-family="Times,serif" font-size="14.00" fill="#000000">7</text>
</g>
<!-- bus8&#45;&#45;bus21 -->
<g id="edge18" class="edge">
<title>bus8&#45;&#45;bus21</title>
<path fill="none" stroke="#000000" d="M266.8685,-476.9243C246.7807,-491.4147 214.9051,-514.4083 194.7817,-528.9243"/>
<text text-anchor="middle" x="227.3251" y="-491.7243" font-family="Times,serif" font-size="14.00" fill="#000000">9</text>
</g>
<!-- bus22 -->
<g id="node22" class="node">
<title>bus22</title>
<ellipse fill="none" stroke="#000000" cx="227.6092" cy="-356.5026" rx="27" ry="18"/>
<text text-anchor="middle" x="227.6092" y="-352.8026" font-family="Times,serif" font-size="14.00" fill="#000000">8</text>
</g>
<!-- bus8&#45;&#45;bus22 -->
<g id="edge17" class="edge">
<title>bus8&#45;&#45;bus22</title>
<path fill="none" stroke="#000000" d="M276.1145,-446.3568C265.3302,-426.3793 247.6456,-393.6193 236.8712,-373.66"/>
<text text-anchor="middle" x="249.4929" y="-413.8084" font-family="Times,serif" font-size="14.00" fill="#000000">10</text>
</g>
<!-- bus25 -->
<g id="node25" class="node">
<title>bus25</title>
<ellipse fill="none" stroke="#000000" cx="428.1309" cy="-506.1595" rx="27" ry="18"/>
<text text-anchor="middle" x="428.1309" y="-502.4595" font-family="Times,serif" font-size="14.00" fill="#000000">10</text>
</g>
<!-- bus8&#45;&#45;bus25 -->
<g id="edge14" class="edge">
<title>bus8&#45;&#45;bus25</title>
<path fill="none" stroke="#000000" d="M310.2615,-470.9778C336.2991,-478.7495 376.965,-490.8875 403.075,-498.6808"/>
<text text-anchor="middle" x="349.6682" y="-488.6293" font-family="Times,serif" font-size="14.00" fill="#000000">12</text>
</g>
<!-- bus27 -->
<g id="node27" class="node">
<title>bus27</title>
<ellipse fill="none" stroke="#000000" cx="347.9434" cy="-557.6406" rx="27" ry="18"/>
<text text-anchor="middle" x="347.9434" y="-553.9406" font-family="Times,serif" font-size="14.00" fill="#000000">9</text>
</g>
<!-- bus8&#45;&#45;bus27 -->
<g id="edge15" class="edge">
<title>bus8&#45;&#45;bus27</title>
<path fill="none" stroke="#000000" d="M296.5812,-480.3772C307.9653,-497.5022 325.5095,-523.8936 336.8586,-540.9659"/>
<text text-anchor="middle" x="309.7199" y="-514.4716" font-family="Times,serif" font-size="14.00" fill="#000000">11</text>
</g>
<!-- bus16 -->
<g id="node16" class="node">
<title>bus16</title>
<ellipse fill="none" stroke="#000000" cx="322.6527" cy="-192.3445" rx="27" ry="18"/>
<text text-anchor="middle" x="322.6527" y="-188.6445" font-family="Times,serif" font-size="14.00" fill="#000000">27</text>
</g>
<!-- bus9&#45;&#45;bus16 -->
<g id="edge19" class="edge">
<title>bus9&#45;&#45;bus16</title>
<path fill="none" stroke="#000000" d="M405.1631,-181.471C388.2363,-183.7017 366.423,-186.5763 349.4764,-188.8096"/>
<text text-anchor="middle" x="370.3198" y="-188.9403" font-family="Times,serif" font-size="14.00" fill="#000000">35</text>
</g>
<!-- bus23 -->
<g id="node23" class="node">
<title>bus23</title>
<ellipse fill="none" stroke="#000000" cx="462.0886" cy="-87.9057" rx="27" ry="18"/>
<text text-anchor="middle" x="462.0886" y="-84.2057" font-family="Times,serif" font-size="14.00" fill="#000000">26</text>
</g>
<!-- bus9&#45;&#45;bus23 -->
<g id="edge20" class="edge">
<title>bus9&#45;&#45;bus23</title>
<path fill="none" stroke="#000000" d="M437.8515,-160.1599C443.1468,-144.3739 450.842,-121.4333 456.1335,-105.6586"/>
<text text-anchor="middle" x="439.9925" y="-136.7092" font-family="Times,serif" font-size="14.00" fill="#000000">34</text>
</g>
<!-- bus10 -->
<g id="node10" class="node">
<title>bus10</title>
<ellipse fill="none" stroke="#000000" cx="607.477" cy="-301.9259" rx="27" ry="18"/>
<text text-anchor="middle" x="607.477" y="-298.2259" font-family="Times,serif" font-size="14.00" fill="#000000">23</text>
</g>
<!-- bus10&#45;&#45;bus1 -->
<g id="edge21" class="edge">
<title>bus10&#45;&#45;bus1</title>
<path fill="none" stroke="#000000" d="M583.6564,-293.1561C567.3511,-287.1532 545.8219,-279.227 529.5486,-273.2359"/>
<text text-anchor="middle" x="549.6025" y="-286.996" font-family="Times,serif" font-size="14.00" fill="#000000">32</text>
</g>
<!-- bus11 -->
<g id="node11" class="node">
<title>bus11</title>
<ellipse fill="none" stroke="#000000" cx="469.0122" cy="-375.8062" rx="27" ry="18"/>
<text text-anchor="middle" x="469.0122" y="-372.1062" font-family="Times,serif" font-size="14.00" fill="#000000">22</text>
</g>
<!-- bus11&#45;&#45;bus1 -->
<g id="edge22" class="edge">
<title>bus11&#45;&#45;bus1</title>
<path fill="none" stroke="#000000" d="M474.9352,-357.9263C481.8146,-337.1593 493.0958,-303.1047 499.969,-282.3566"/>
<text text-anchor="middle" x="480.4521" y="-323.9415" font-family="Times,serif" font-size="14.00" fill="#000000">31</text>
</g>
<!-- bus12 -->
<g id="node12" class="node">
<title>bus12</title>
<ellipse fill="none" stroke="#000000" cx="329.1503" cy="-659.7109" rx="27" ry="18"/>
<text text-anchor="middle" x="329.1503" y="-656.0109" font-family="Times,serif" font-size="14.00" fill="#000000">11</text>
</g>
<!-- bus14&#45;&#45;bus21 -->
<g id="edge23" class="edge">
<title>bus14&#45;&#45;bus21</title>
<path fill="none" stroke="#000000" d="M133.4614,-555.0923C139.3242,-553.3437 145.5782,-551.4784 151.4408,-549.7298"/>
<text text-anchor="middle" x="138.9511" y="-556.2111" font-family="Times,serif" font-size="14.00" fill="#000000">8</text>
</g>
<!-- bus15&#45;&#45;bus10 -->
<g id="edge25" class="edge">
<title>bus15&#45;&#45;bus10</title>
<path fill="none" stroke="#000000" d="M625.7996,-391.5659C621.7174,-371.5944 615.2252,-339.8324 611.1649,-319.9681"/>
<text text-anchor="middle" x="611.4822" y="-359.567" font-family="Times,serif" font-size="14.00" fill="#000000">30</text>
</g>
<!-- bus28 -->
<g id="node28" class="node">
<title>bus28</title>
<ellipse fill="none" stroke="#000000" cx="727.8467" cy="-478.1257" rx="27" ry="18"/>
<text text-anchor="middle" x="727.8467" y="-474.4257" font-family="Times,serif" font-size="14.00" fill="#000000">18</text>
</g>
<!-- bus15&#45;&#45;bus28 -->
<g id="edge24" class="edge">
<title>bus15&#45;&#45;bus28</title>
<path fill="none" stroke="#000000" d="M648.4967,-423.0373C665.9041,-435.1223 691.5619,-452.9351 708.9509,-465.0073"/>
<text text-anchor="middle" x="671.7238" y="-432.8223" font-family="Times,serif" font-size="14.00" fill="#000000">22</text>
</g>
<!-- bus16&#45;&#45;bus5 -->
<g id="edge27" class="edge">
<title>bus16&#45;&#45;bus5</title>
<path fill="none" stroke="#000000" d="M307.1015,-177.3507C296.2694,-166.9069 281.883,-153.0362 271.0694,-142.6102"/>
<text text-anchor="middle" x="282.0855" y="-163.7805" font-family="Times,serif" font-size="14.00" fill="#000000">37</text>
</g>
<!-- bus16&#45;&#45;bus29 -->
<g id="edge26" class="edge">
<title>bus16&#45;&#45;bus29</title>
<path fill="none" stroke="#000000" d="M321.6882,-174.2864C320.8024,-157.7019 319.4967,-133.2569 318.6119,-116.6899"/>
<text text-anchor="middle" x="313.15" y="-149.2882" font-family="Times,serif" font-size="14.00" fill="#000000">38</text>
</g>
<!-- bus17&#45;&#45;bus16 -->
<g id="edge28" class="edge">
<title>bus17&#45;&#45;bus16</title>
<path fill="none" stroke="#000000" d="M294.2349,-305.3588C300.5052,-280.4226 311.7947,-235.5255 318.0922,-210.4812"/>
<text text-anchor="middle" x="299.1635" y="-261.72" font-family="Times,serif" font-size="14.00" fill="#000000">36</text>
</g>
<!-- bus24 -->
<g id="node24" class="node">
<title>bus24</title>
<ellipse fill="none" stroke="#000000" cx="457.0316" cy="-613.256" rx="27" ry="18"/>
<text text-anchor="middle" x="457.0316" y="-609.556" font-family="Times,serif" font-size="14.00" fill="#000000">17</text>
</g>
<!-- bus18&#45;&#45;bus24 -->
<g id="edge29" class="edge">
<title>bus18&#45;&#45;bus24</title>
<path fill="none" stroke="#000000" d="M496.3083,-596.3299C490.9154,-598.654 485.1625,-601.1331 479.7698,-603.4571"/>
<text text-anchor="middle" x="484.539" y="-588.6935" font-family="Times,serif" font-size="14.00" fill="#000000">21</text>
</g>
<!-- bus19&#45;&#45;bus15 -->
<g id="edge30" class="edge">
<title>bus19&#45;&#45;bus15</title>
<path fill="none" stroke="#000000" d="M612.9397,-440.7877C615.3689,-436.2655 617.9915,-431.3831 620.419,-426.8638"/>
<text text-anchor="middle" x="609.6794" y="-437.6258" font-family="Times,serif" font-size="14.00" fill="#000000">20</text>
</g>
<!-- bus20 -->
<g id="node20" class="node">
<title>bus20</title>
<ellipse fill="none" stroke="#000000" cx="421.1767" cy="-419.8393" rx="27" ry="18"/>
<text text-anchor="middle" x="421.1767" y="-416.1393" font-family="Times,serif" font-size="14.00" fill="#000000">21</text>
</g>
<!-- bus20&#45;&#45;bus11 -->
<g id="edge31" class="edge">
<title>bus20&#45;&#45;bus11</title>
<path fill="none" stroke="#000000" d="M437.1053,-405.1769C442.2148,-400.4735 447.8739,-395.2642 452.9902,-390.5547"/>
<text text-anchor="middle" x="438.0477" y="-386.6658" font-family="Times,serif" font-size="14.00" fill="#000000">29</text>
</g>
<!-- bus22&#45;&#45;bus17 -->
<g id="edge32" class="edge">
<title>bus22&#45;&#45;bus17</title>
<path fill="none" stroke="#000000" d="M248.9861,-345.0733C255.303,-341.696 262.2136,-338.0012 268.5196,-334.6297"/>
<text text-anchor="middle" x="255.2529" y="-328.6515" font-family="Times,serif" font-size="14.00" fill="#000000">40</text>
</g>
<!-- bus25&#45;&#45;bus6 -->
<g id="edge33" class="edge">
<title>bus25&#45;&#45;bus6</title>
<path fill="none" stroke="#000000" d="M452.0304,-514.7064C480.6819,-524.9527 528.4156,-542.0231 557.1044,-552.2827"/>
<text text-anchor="middle" x="497.5674" y="-537.2946" font-family="Times,serif" font-size="14.00" fill="#000000">25</text>
</g>
<!-- bus25&#45;&#45;bus11 -->
<g id="edge35" class="edge">
<title>bus25&#45;&#45;bus11</title>
<path fill="none" stroke="#000000" d="M433.7295,-488.3078C441.5582,-463.3453 455.6889,-418.2885 463.4812,-393.4424"/>
<text text-anchor="middle" x="441.6053" y="-444.6751" font-family="Times,serif" font-size="14.00" fill="#000000">28</text>
</g>
<!-- bus25&#45;&#45;bus20 -->
<g id="edge34" class="edge">
<title>bus25&#45;&#45;bus20</title>
<path fill="none" stroke="#000000" d="M426.6561,-487.8532C425.468,-473.1054 423.8067,-452.4845 422.6256,-437.8232"/>
<text text-anchor="middle" x="417.6408" y="-451.6382" font-family="Times,serif" font-size="14.00" fill="#000000">27</text>
</g>
<!-- bus25&#45;&#45;bus24 -->
<g id="edge36" class="edge">
<title>bus25&#45;&#45;bus24</title>
<path fill="none" stroke="#000000" d="M433.0335,-524.327C438.3802,-544.1401 446.8834,-575.6502 452.2014,-595.3569"/>
<text text-anchor="middle" x="449.6174" y="-563.6419" font-family="Times,serif" font-size="14.00" fill="#000000">26</text>
</g>
<!-- bus26 -->
<g id="node26" class="node">
<title>bus26</title>
<ellipse fill="none" stroke="#000000" cx="688.3762" cy="-559.411" rx="27" ry="18"/>
<text text-anchor="middle" x="688.3762" y="-555.711" font-family="Times,serif" font-size="14.00" fill="#000000">19</text>
</g>
<!-- bus26&#45;&#45;bus6 -->
<g id="edge37" class="edge">
<title>bus26&#45;&#45;bus6</title>
<path fill="none" stroke="#000000" d="M661.3029,-559.7766C645.0388,-559.9962 624.4152,-560.2746 608.1527,-560.4942"/>
<text text-anchor="middle" x="627.7278" y="-563.9354" font-family="Times,serif" font-size="14.00" fill="#000000">24</text>
</g>
<!-- bus27&#45;&#45;bus12 -->
<g id="edge38" class="edge">
<title>bus27&#45;&#45;bus12</title>
<path fill="none" stroke="#000000" d="M344.5836,-575.8887C341.1629,-594.4675 335.8912,-623.0992 332.481,-641.6208"/>
<text text-anchor="middle" x="331.5323" y="-612.5547" font-family="Times,serif" font-size="14.00" fill="#000000">13</text>
</g>
<!-- bus27&#45;&#45;bus25 -->
<g id="edge39" class="edge">
<title>bus27&#45;&#45;bus25</title>
<path fill="none" stroke="#000000" d="M367.765,-544.9149C380.1945,-536.9351 396.1513,-526.6907 408.5372,-518.7388"/>
<text text-anchor="middle" x="381.1511" y="-535.6269" font-family="Times,serif" font-size="14.00" fill="#000000">14</text>
</g>
<!-- bus28&#45;&#45;bus26 -->
<g id="edge40" class="edge">
<title>bus28&#45;&#45;bus26</title>
<path fill="none" stroke="#000000" d="M719.476,-495.3642C712.7778,-509.1586 703.4299,-528.4095 696.7348,-542.1973"/>
<text text-anchor="middle" x="701.1054" y="-522.5808" font-family="Times,serif" font-size="14.00" fill="#000000">23</text>
</g>
<!-- bus30&#45;&#45;bus2 -->
<g id="edge41" class="edge">
<title>bus30&#45;&#45;bus2</title>
<path fill="none" stroke="#000000" d="M248.1912,-456.5826C269.8283,-462.9169 301.0539,-472.0583 322.6782,-478.3889"/>
<text text-anchor="middle" x="281.9347" y="-471.2858" font-family="Times,serif" font-size="14.00" fill="#000000">4</text>
</g>
<!-- load1 -->
<g id="node31" class="node">
<title>load1</title>
<polygon fill="none" stroke="#b03060" points="70.6053,-639.9775 16.6053,-639.9775 16.6053,-603.9775 70.6053,-603.9775 70.6053,-639.9775"/>
<text text-anchor="middle" x="43.6053" y="-618.2775" font-family="Times,serif" font-size="14.00" fill="#000000">5</text>
</g>
<!-- load1&#45;&#45;bus14 -->
<g id="edge42" class="edge">
<title>load1&#45;&#45;bus14</title>
<path fill="none" stroke="#b03060" stroke-dasharray="1,5" d="M63.5016,-603.7987C72.7797,-595.3215 83.6833,-585.3591 92.4609,-577.3392"/>
</g>
<!-- load2 -->
<g id="node32" class="node">
<title>load2</title>
<polygon fill="none" stroke="#b03060" points="276.1774,-619.615 222.1774,-619.615 222.1774,-583.615 276.1774,-583.615 276.1774,-619.615"/>
<text text-anchor="middle" x="249.1774" y="-597.915" font-family="Times,serif" font-size="14.00" fill="#000000">2</text>
</g>
<!-- load2&#45;&#45;bus7 -->
<g id="edge43" class="edge">
<title>load2&#45;&#45;bus7</title>
<path fill="none" stroke="#b03060" stroke-dasharray="1,5" d="M246.7338,-583.5697C244.9092,-570.0952 242.4266,-551.7622 240.6037,-538.2999"/>
</g>
<!-- load3 -->
<g id="node33" class="node">
<title>load3</title>
<polygon fill="none" stroke="#b03060" points="484.5297,-714.4752 430.5297,-714.4752 430.5297,-678.4752 484.5297,-678.4752 484.5297,-714.4752"/>
<text text-anchor="middle" x="457.5297" y="-692.7752" font-family="Times,serif" font-size="14.00" fill="#000000">17</text>
</g>
<!-- load3&#45;&#45;bus24 -->
<g id="edge44" class="edge">
<title>load3&#45;&#45;bus24</title>
<path fill="none" stroke="#b03060" stroke-dasharray="1,5" d="M457.4216,-678.4179C457.3381,-664.4593 457.223,-645.2279 457.1395,-631.2781"/>
</g>
<!-- load4 -->
<g id="node34" class="node">
<title>load4</title>
<polygon fill="none" stroke="#b03060" points="239.5996,-85.5537 185.5996,-85.5537 185.5996,-49.5537 239.5996,-49.5537 239.5996,-85.5537"/>
<text text-anchor="middle" x="212.5996" y="-63.8537" font-family="Times,serif" font-size="14.00" fill="#000000">29</text>
</g>
<!-- load4&#45;&#45;bus5 -->
<g id="edge45" class="edge">
<title>load4&#45;&#45;bus5</title>
<path fill="none" stroke="#b03060" stroke-dasharray="1,5" d="M225.5019,-85.5989C231.3405,-93.7648 238.1919,-103.3472 243.882,-111.3053"/>
</g>
<!-- load5 -->
<g id="node35" class="node">
<title>load5</title>
<polygon fill="none" stroke="#b03060" points="179.3127,-425.448 125.3127,-425.448 125.3127,-389.448 179.3127,-389.448 179.3127,-425.448"/>
<text text-anchor="middle" x="152.3127" y="-403.748" font-family="Times,serif" font-size="14.00" fill="#000000">3</text>
</g>
<!-- load5&#45;&#45;bus30 -->
<g id="edge46" class="edge">
<title>load5&#45;&#45;bus30</title>
<path fill="none" stroke="#b03060" stroke-dasharray="1,5" d="M179.5877,-423.5172C187.4168,-428.1298 195.8123,-433.0761 203.1371,-437.3915"/>
</g>
<!-- load6 -->
<g id="node36" class="node">
<title>load6</title>
<polygon fill="none" stroke="#b03060" points="171.7899,-331.0258 117.7899,-331.0258 117.7899,-295.0258 171.7899,-295.0258 171.7899,-331.0258"/>
<text text-anchor="middle" x="144.7899" y="-309.3258" font-family="Times,serif" font-size="14.00" fill="#000000">8</text>
</g>
<!-- load6&#45;&#45;bus22 -->
<g id="edge47" class="edge">
<title>load6&#45;&#45;bus22</title>
<path fill="none" stroke="#b03060" stroke-dasharray="1,5" d="M171.9081,-327.2617C183.0413,-333.1062 195.7456,-339.7754 206.2071,-345.2673"/>
</g>
<!-- load7 -->
<g id="node37" class="node">
<title>load7</title>
<polygon fill="none" stroke="#b03060" points="573.724,-685.2875 519.724,-685.2875 519.724,-649.2875 573.724,-649.2875 573.724,-685.2875"/>
<text text-anchor="middle" x="546.724" y="-663.5875" font-family="Times,serif" font-size="14.00" fill="#000000">16</text>
</g>
<!-- load7&#45;&#45;bus18 -->
<g id="edge48" class="edge">
<title>load7&#45;&#45;bus18</title>
<path fill="none" stroke="#b03060" stroke-dasharray="1,5" d="M540.4442,-648.9624C535.8512,-635.5597 529.6558,-617.481 525.114,-604.2275"/>
</g>
<!-- load8 -->
<g id="node38" class="node">
<title>load8</title>
<polygon fill="none" stroke="#b03060" points="833.5586,-495.064 779.5586,-495.064 779.5586,-459.064 833.5586,-459.064 833.5586,-495.064"/>
<text text-anchor="middle" x="806.5586" y="-473.364" font-family="Times,serif" font-size="14.00" fill="#000000">18</text>
</g>
<!-- load8&#45;&#45;bus28 -->
<g id="edge49" class="edge">
<title>load8&#45;&#45;bus28</title>
<path fill="none" stroke="#b03060" stroke-dasharray="1,5" d="M779.4704,-477.4294C771.5548,-477.5362 762.9035,-477.6528 754.9848,-477.7596"/>
</g>
<!-- load9 -->
<g id="node39" class="node">
<title>load9</title>
<polygon fill="none" stroke="#b03060" points="152.1232,-645.2177 98.1232,-645.2177 98.1232,-609.2177 152.1232,-609.2177 152.1232,-645.2177"/>
<text text-anchor="middle" x="125.1232" y="-623.5177" font-family="Times,serif" font-size="14.00" fill="#000000">7</text>
</g>
<!-- load9&#45;&#45;bus21 -->
<g id="edge50" class="edge">
<title>load9&#45;&#45;bus21</title>
<path fill="none" stroke="#b03060" stroke-dasharray="1,5" d="M136.1974,-608.8043C145.0511,-594.0828 157.3638,-573.6101 165.9745,-559.2927"/>
</g>
<!-- load10 -->
<g id="node40" class="node">
<title>load10</title>
<polygon fill="none" stroke="#b03060" points="653.1433,-647.0316 599.1433,-647.0316 599.1433,-611.0316 653.1433,-611.0316 653.1433,-647.0316"/>
<text text-anchor="middle" x="626.1433" y="-625.3316" font-family="Times,serif" font-size="14.00" fill="#000000">20</text>
</g>
<!-- load10&#45;&#45;bus6 -->
<g id="edge51" class="edge">
<title>load10&#45;&#45;bus6</title>
<path fill="none" stroke="#b03060" stroke-dasharray="1,5" d="M614.0693,-610.7628C607.2921,-600.5083 598.893,-587.7999 592.2669,-577.7741"/>
</g>
<!-- load11 -->
<g id="node41" class="node">
<title>load11</title>
<polygon fill="none" stroke="#b03060" points="429.4154,-363.0068 375.4154,-363.0068 375.4154,-327.0068 429.4154,-327.0068 429.4154,-363.0068"/>
<text text-anchor="middle" x="402.4154" y="-341.3068" font-family="Times,serif" font-size="14.00" fill="#000000">21</text>
</g>
<!-- load11&#45;&#45;bus20 -->
<g id="edge52" class="edge">
<title>load11&#45;&#45;bus20</title>
<path fill="none" stroke="#b03060" stroke-dasharray="1,5" d="M406.957,-363.1216C409.9067,-374.8872 413.7356,-390.159 416.677,-401.8912"/>
</g>
<!-- load12 -->
<g id="node42" class="node">
<title>load12</title>
<polygon fill="none" stroke="#b03060" points="780.1838,-627.1138 726.1838,-627.1138 726.1838,-591.1138 780.1838,-591.1138 780.1838,-627.1138"/>
<text text-anchor="middle" x="753.1838" y="-605.4138" font-family="Times,serif" font-size="14.00" fill="#000000">19</text>
</g>
<!-- load12&#45;&#45;bus26 -->
<g id="edge53" class="edge">
<title>load12&#45;&#45;bus26</title>
<path fill="none" stroke="#b03060" stroke-dasharray="1,5" d="M729.4198,-590.8886C721.7613,-585.015 713.4082,-578.6088 706.2487,-573.1179"/>
</g>
<!-- load13 -->
<g id="node43" class="node">
<title>load13</title>
<polygon fill="none" stroke="#b03060" points="338.7465,-40.0588 284.7465,-40.0588 284.7465,-4.0588 338.7465,-4.0588 338.7465,-40.0588"/>
<text text-anchor="middle" x="311.7465" y="-18.3588" font-family="Times,serif" font-size="14.00" fill="#000000">30</text>
</g>
<!-- load13&#45;&#45;bus29 -->
<g id="edge54" class="edge">
<title>load13&#45;&#45;bus29</title>
<path fill="none" stroke="#b03060" stroke-dasharray="1,5" d="M313.1456,-40.2187C314.0867,-52.4339 315.3222,-68.4699 316.2612,-80.6577"/>
</g>
<!-- load14 -->
<g id="node44" class="node">
<title>load14</title>
<polygon fill="none" stroke="#b03060" points="437.6083,-587.2023 383.6083,-587.2023 383.6083,-551.2023 437.6083,-551.2023 437.6083,-587.2023"/>
<text text-anchor="middle" x="410.6083" y="-565.5023" font-family="Times,serif" font-size="14.00" fill="#000000">10</text>
</g>
<!-- load14&#45;&#45;bus25 -->
<g id="edge55" class="edge">
<title>load14&#45;&#45;bus25</title>
<path fill="none" stroke="#b03060" stroke-dasharray="1,5" d="M415.6765,-550.9677C418.0215,-542.531 420.7985,-532.54 423.1345,-524.1354"/>
</g>
<!-- load15 -->
<g id="node45" class="node">
<title>load15</title>
<polygon fill="none" stroke="#b03060" points="595.6135,-528.4556 541.6135,-528.4556 541.6135,-492.4556 595.6135,-492.4556 595.6135,-528.4556"/>
<text text-anchor="middle" x="568.6135" y="-506.7556" font-family="Times,serif" font-size="14.00" fill="#000000">12</text>
</g>
<!-- load15&#45;&#45;bus4 -->
<g id="edge56" class="edge">
<title>load15&#45;&#45;bus4</title>
<path fill="none" stroke="#b03060" stroke-dasharray="1,5" d="M541.5815,-493.8866C536.618,-490.8442 531.516,-487.717 526.7952,-484.8235"/>
</g>
<!-- load16 -->
<g id="node46" class="node">
<title>load16</title>
<polygon fill="none" stroke="#b03060" points="695.1672,-265.0862 641.1672,-265.0862 641.1672,-229.0862 695.1672,-229.0862 695.1672,-265.0862"/>
<text text-anchor="middle" x="668.1672" y="-243.3862" font-family="Times,serif" font-size="14.00" fill="#000000">23</text>
</g>
<!-- load16&#45;&#45;bus10 -->
<g id="edge57" class="edge">
<title>load16&#45;&#45;bus10</title>
<path fill="none" stroke="#b03060" stroke-dasharray="1,5" d="M647.9583,-265.347C640.0964,-272.451 631.2089,-280.4817 623.7683,-287.2051"/>
</g>
<!-- load17 -->
<g id="node47" class="node">
<title>load17</title>
<polygon fill="none" stroke="#b03060" points="727.8474,-392.453 673.8474,-392.453 673.8474,-356.453 727.8474,-356.453 727.8474,-392.453"/>
<text text-anchor="middle" x="700.8474" y="-370.753" font-family="Times,serif" font-size="14.00" fill="#000000">15</text>
</g>
<!-- load17&#45;&#45;bus15 -->
<g id="edge58" class="edge">
<title>load17&#45;&#45;bus15</title>
<path fill="none" stroke="#b03060" stroke-dasharray="1,5" d="M673.4831,-388.0481C666.2567,-391.6384 658.5493,-395.4675 651.64,-398.9002"/>
</g>
<!-- load18 -->
<g id="node48" class="node">
<title>load18</title>
<polygon fill="none" stroke="#b03060" points="512.9667,-36 458.9667,-36 458.9667,0 512.9667,0 512.9667,-36"/>
<text text-anchor="middle" x="485.9667" y="-14.3" font-family="Times,serif" font-size="14.00" fill="#000000">26</text>
</g>
<!-- load18&#45;&#45;bus23 -->
<g id="edge59" class="edge">
<title>load18&#45;&#45;bus23</title>
<path fill="none" stroke="#b03060" stroke-dasharray="1,5" d="M479.8175,-36.0025C476.2247,-46.5206 471.7091,-59.7407 468.1343,-70.2063"/>
</g>
<!-- load19 -->
<g id="node49" class="node">
<title>load19</title>
<polygon fill="none" stroke="#b03060" points="692.835,-486.6575 638.835,-486.6575 638.835,-450.6575 692.835,-450.6575 692.835,-486.6575"/>
<text text-anchor="middle" x="665.835" y="-464.9575" font-family="Times,serif" font-size="14.00" fill="#000000">14</text>
</g>
<!-- load19&#45;&#45;bus19 -->
<g id="edge60" class="edge">
<title>load19&#45;&#45;bus19</title>
<path fill="none" stroke="#b03060" stroke-dasharray="1,5" d="M638.8002,-463.939C635.9263,-463.4374 633.0059,-462.9277 630.14,-462.4275"/>
</g>
<!-- load20 -->
<g id="node50" class="node">
<title>load20</title>
<polygon fill="none" stroke="#b03060" points="569.0098,-216.2576 515.0098,-216.2576 515.0098,-180.2576 569.0098,-180.2576 569.0098,-216.2576"/>
<text text-anchor="middle" x="542.0098" y="-194.5576" font-family="Times,serif" font-size="14.00" fill="#000000">24</text>
</g>
<!-- load20&#45;&#45;bus1 -->
<g id="edge61" class="edge">
<title>load20&#45;&#45;bus1</title>
<path fill="none" stroke="#b03060" stroke-dasharray="1,5" d="M532.1364,-216.3644C526.8709,-226.0208 520.4274,-237.8376 515.241,-247.3488"/>
</g>
<!-- load21 -->
<g id="node51" class="node">
<title>load21</title>
<polygon fill="none" stroke="#b03060" points="362.8309,-437.5302 308.8309,-437.5302 308.8309,-401.5302 362.8309,-401.5302 362.8309,-437.5302"/>
<text text-anchor="middle" x="335.8309" y="-415.8302" font-family="Times,serif" font-size="14.00" fill="#000000">4</text>
</g>
<!-- load21&#45;&#45;bus2 -->
<g id="edge62" class="edge">
<title>load21&#45;&#45;bus2</title>
<path fill="none" stroke="#b03060" stroke-dasharray="1,5" d="M339.0036,-437.5946C340.642,-446.9226 342.6352,-458.2712 344.273,-467.596"/>
</g>
<!-- thermal1 -->
<g id="node52" class="node">
<title>thermal1</title>
<polygon fill="none" stroke="#cd853f" points="206.8391,-303.6264 179.8391,-285.6264 206.8391,-267.6264 233.8391,-285.6264 206.8391,-303.6264"/>
<text text-anchor="middle" x="206.8391" y="-281.9264" font-family="Times,serif" font-size="14.00" fill="#000000">4</text>
</g>
<!-- thermal1&#45;&#45;bus22 -->
<g id="edge63" class="edge">
<title>thermal1&#45;&#45;bus22</title>
<path fill="none" stroke="#cd853f" stroke-dasharray="5,2" d="M211.3459,-301.0055C214.5911,-312.0795 218.9782,-327.0501 222.3781,-338.6518"/>
</g>
<!-- thermal2 -->
<g id="node53" class="node">
<title>thermal2</title>
<polygon fill="none" stroke="#cd853f" points="67.4497,-466.4949 40.4497,-448.4949 67.4497,-430.4949 94.4497,-448.4949 67.4497,-466.4949"/>
<text text-anchor="middle" x="67.4497" y="-444.7949" font-family="Times,serif" font-size="14.00" fill="#000000">1</text>
</g>
<!-- thermal2&#45;&#45;bus3 -->
<g id="edge64" class="edge">
<title>thermal2&#45;&#45;bus3</title>
<path fill="none" stroke="#cd853f" stroke-dasharray="5,2" d="M86.2147,-454.2139C97.3249,-457.5998 111.5336,-461.9302 123.5596,-465.5953"/>
</g>
<!-- thermal3 -->
<g id="node54" class="node">
<title>thermal3</title>
<polygon fill="none" stroke="#cd853f" points="313.1892,-756.1439 286.1892,-738.1439 313.1892,-720.1439 340.1892,-738.1439 313.1892,-756.1439"/>
<text text-anchor="middle" x="313.1892" y="-734.4439" font-family="Times,serif" font-size="14.00" fill="#000000">5</text>
</g>
<!-- thermal3&#45;&#45;bus12 -->
<g id="edge65" class="edge">
<title>thermal3&#45;&#45;bus12</title>
<path fill="none" stroke="#cd853f" stroke-dasharray="5,2" d="M316.4192,-722.2718C319.0426,-709.3802 322.7429,-691.197 325.4785,-677.7542"/>
</g>
<!-- thermal4 -->
<g id="node55" class="node">
<title>thermal4</title>
<polygon fill="none" stroke="#cd853f" points="187.1294,-604.3831 160.1294,-586.3831 187.1294,-568.3831 214.1294,-586.3831 187.1294,-604.3831"/>
<text text-anchor="middle" x="187.1294" y="-582.6831" font-family="Times,serif" font-size="14.00" fill="#000000">2</text>
</g>
<!-- thermal4&#45;&#45;bus7 -->
<g id="edge66" class="edge">
<title>thermal4&#45;&#45;bus7</title>
<path fill="none" stroke="#cd853f" stroke-dasharray="5,2" d="M196.4905,-574.2634C204.6633,-563.682 216.5923,-548.2376 225.5959,-536.5806"/>
</g>
<!-- thermal5 -->
<g id="node56" class="node">
<title>thermal5</title>
<polygon fill="none" stroke="#cd853f" points="545.3505,-369.451 518.3505,-351.451 545.3505,-333.451 572.3505,-351.451 545.3505,-369.451"/>
<text text-anchor="middle" x="545.3505" y="-347.751" font-family="Times,serif" font-size="14.00" fill="#000000">6</text>
</g>
<!-- thermal5&#45;&#45;bus13 -->
<g id="edge67" class="edge">
<title>thermal5&#45;&#45;bus13</title>
<path fill="none" stroke="#cd853f" stroke-dasharray="5,2" d="M542.4144,-367.6103C541.0743,-374.9858 539.4819,-383.7502 538.1014,-391.348"/>
</g>
<!-- thermal6 -->
<g id="node57" class="node">
<title>thermal6</title>
<polygon fill="none" stroke="#cd853f" points="27,-576.4075 0,-558.4075 27,-540.4075 54,-558.4075 27,-576.4075"/>
<text text-anchor="middle" x="27" y="-554.7075" font-family="Times,serif" font-size="14.00" fill="#000000">3</text>
</g>
<!-- thermal6&#45;&#45;bus14 -->
<g id="edge68" class="edge">
<title>thermal6&#45;&#45;bus14</title>
<path fill="none" stroke="#cd853f" stroke-dasharray="5,2" d="M52.4148,-559.6693C61.694,-560.13 72.2198,-560.6526 81.6402,-561.1203"/>
</g>
</g>
</svg>
