<?xml version="1.0" encoding="UTF-8" standalone="no"?>
<!DOCTYPE svg PUBLIC "-//W3C//DTD SVG 1.1//EN"
 "http://www.w3.org/Graphics/SVG/1.1/DTD/svg11.dtd">
<!-- Generated by graphviz version 2.40.1 (20161225.0304)
 -->
<!-- Title: %3 Pages: 1 -->
<svg width="923pt" height="657pt"
 viewBox="0.00 0.00 922.95 657.21" xmlns="http://www.w3.org/2000/svg" xmlns:xlink="http://www.w3.org/1999/xlink">
<g id="graph0" class="graph" transform="scale(1 1) rotate(0) translate(4 653.2091)">
<title>%3</title>
<polygon fill="#ffffff" stroke="transparent" points="-4,4 -4,-653.2091 918.9498,-653.2091 918.9498,4 -4,4"/>
<!-- bus1 -->
<g id="node1" class="node">
<title>bus1</title>
<ellipse fill="none" stroke="#000000" cx="454.2789" cy="-168.727" rx="27" ry="18"/>
<text text-anchor="middle" x="454.2789" y="-165.027" font-family="Times,serif" font-size="14.00" fill="#000000">24</text>
</g>
<!-- bus2 -->
<g id="node2" class="node">
<title>bus2</title>
<ellipse fill="none" stroke="#000000" cx="707.0966" cy="-231.3261" rx="27" ry="18"/>
<text text-anchor="middle" x="707.0966" y="-227.6261" font-family="Times,serif" font-size="14.00" fill="#000000">4</text>
</g>
<!-- bus22 -->
<g id="node22" class="node">
<title>bus22</title>
<ellipse fill="none" stroke="#000000" cx="594.6546" cy="-253.381" rx="27" ry="18"/>
<text text-anchor="middle" x="594.6546" y="-249.681" font-family="Times,serif" font-size="14.00" fill="#000000">9</text>
</g>
<!-- bus2&#45;&#45;bus22 -->
<g id="edge1" class="edge">
<title>bus2&#45;&#45;bus22</title>
<path fill="none" stroke="#000000" d="M681.0175,-236.4413C662.8522,-240.0044 638.7265,-244.7365 620.5922,-248.2935"/>
<text text-anchor="middle" x="647.3049" y="-231.1674" font-family="Times,serif" font-size="14.00" fill="#000000">8</text>
</g>
<!-- bus3 -->
<g id="node3" class="node">
<title>bus3</title>
<ellipse fill="none" stroke="#000000" cx="660.6838" cy="-121.3264" rx="27" ry="18"/>
<text text-anchor="middle" x="660.6838" y="-117.6264" font-family="Times,serif" font-size="14.00" fill="#000000">1</text>
</g>
<!-- bus6 -->
<g id="node6" class="node">
<title>bus6</title>
<ellipse fill="none" stroke="#000000" cx="795.0082" cy="-167.8097" rx="27" ry="18"/>
<text text-anchor="middle" x="795.0082" y="-164.1097" font-family="Times,serif" font-size="14.00" fill="#000000">2</text>
</g>
<!-- bus3&#45;&#45;bus6 -->
<g id="edge2" class="edge">
<title>bus3&#45;&#45;bus6</title>
<path fill="none" stroke="#000000" d="M684.6983,-129.6367C708.997,-138.0453 746.3626,-150.9757 770.7487,-159.4146"/>
<text text-anchor="middle" x="724.2235" y="-148.3256" font-family="Times,serif" font-size="14.00" fill="#000000">1</text>
</g>
<!-- bus12 -->
<g id="node12" class="node">
<title>bus12</title>
<ellipse fill="none" stroke="#000000" cx="638.9518" cy="-209.3548" rx="27" ry="18"/>
<text text-anchor="middle" x="638.9518" y="-205.6548" font-family="Times,serif" font-size="14.00" fill="#000000">5</text>
</g>
<!-- bus3&#45;&#45;bus12 -->
<g id="edge4" class="edge">
<title>bus3&#45;&#45;bus12</title>
<path fill="none" stroke="#000000" d="M656.286,-139.1402C652.5156,-154.4128 647.1115,-176.3026 643.343,-191.5675"/>
<text text-anchor="middle" x="646.3145" y="-169.1539" font-family="Times,serif" font-size="14.00" fill="#000000">3</text>
</g>
<!-- bus24 -->
<g id="node24" class="node">
<title>bus24</title>
<ellipse fill="none" stroke="#000000" cx="547.8275" cy="-162.9889" rx="27" ry="18"/>
<text text-anchor="middle" x="547.8275" y="-159.2889" font-family="Times,serif" font-size="14.00" fill="#000000">3</text>
</g>
<!-- bus3&#45;&#45;bus24 -->
<g id="edge3" class="edge">
<title>bus3&#45;&#45;bus24</title>
<path fill="none" stroke="#000000" d="M637.0254,-130.0602C617.7642,-137.1708 590.7075,-147.1591 571.4547,-154.2666"/>
<text text-anchor="middle" x="600.74" y="-145.9634" font-family="Times,serif" font-size="14.00" fill="#000000">2</text>
</g>
<!-- bus4 -->
<g id="node4" class="node">
<title>bus4</title>
<ellipse fill="none" stroke="#000000" cx="583.0181" cy="-337.344" rx="27" ry="18"/>
<text text-anchor="middle" x="583.0181" y="-333.644" font-family="Times,serif" font-size="14.00" fill="#000000">12</text>
</g>
<!-- bus8 -->
<g id="node8" class="node">
<title>bus8</title>
<ellipse fill="none" stroke="#000000" cx="527.186" cy="-420.4993" rx="27" ry="18"/>
<text text-anchor="middle" x="527.186" y="-416.7993" font-family="Times,serif" font-size="14.00" fill="#000000">23</text>
</g>
<!-- bus4&#45;&#45;bus8 -->
<g id="edge6" class="edge">
<title>bus4&#45;&#45;bus8</title>
<path fill="none" stroke="#000000" d="M571.7196,-354.1717C561.9693,-368.6937 547.9666,-389.5491 538.2771,-403.9804"/>
<text text-anchor="middle" x="547.9984" y="-382.876" font-family="Times,serif" font-size="14.00" fill="#000000">21</text>
</g>
<!-- bus11 -->
<g id="node11" class="node">
<title>bus11</title>
<ellipse fill="none" stroke="#000000" cx="589.2269" cy="-388.9865" rx="27" ry="18"/>
<text text-anchor="middle" x="589.2269" y="-385.2865" font-family="Times,serif" font-size="14.00" fill="#000000">13</text>
</g>
<!-- bus4&#45;&#45;bus11 -->
<g id="edge5" class="edge">
<title>bus4&#45;&#45;bus11</title>
<path fill="none" stroke="#000000" d="M585.1896,-355.406C585.7911,-360.4089 586.4441,-365.8401 587.0461,-370.8473"/>
<text text-anchor="middle" x="579.1179" y="-351.9267" font-family="Times,serif" font-size="14.00" fill="#000000">20</text>
</g>
<!-- bus5 -->
<g id="node5" class="node">
<title>bus5</title>
<ellipse fill="none" stroke="#000000" cx="401.9387" cy="-426.64" rx="27" ry="18"/>
<text text-anchor="middle" x="401.9387" y="-422.94" font-family="Times,serif" font-size="14.00" fill="#000000">20</text>
</g>
<!-- bus5&#45;&#45;bus8 -->
<g id="edge7" class="edge">
<title>bus5&#45;&#45;bus8</title>
<path fill="none" stroke="#000000" d="M428.1639,-430.9536C449.8788,-431.445 480.5367,-429.9307 501.9687,-427.3016"/>
<text text-anchor="middle" x="458.0663" y="-432.9276" font-family="Times,serif" font-size="14.00" fill="#000000">36</text>
</g>
<!-- bus5&#45;&#45;bus8 -->
<g id="edge8" class="edge">
<title>bus5&#45;&#45;bus8</title>
<path fill="none" stroke="#000000" d="M427.0126,-419.8553C448.3791,-417.2242 478.991,-415.7034 500.7412,-416.1807"/>
<text text-anchor="middle" x="456.8769" y="-406.818" font-family="Times,serif" font-size="14.00" fill="#000000">37</text>
</g>
<!-- bus6&#45;&#45;bus2 -->
<g id="edge9" class="edge">
<title>bus6&#45;&#45;bus2</title>
<path fill="none" stroke="#000000" d="M776.3644,-181.2799C761.3447,-192.1316 740.3437,-207.3049 725.4121,-218.0931"/>
<text text-anchor="middle" x="747.3882" y="-203.4865" font-family="Times,serif" font-size="14.00" fill="#000000">4</text>
</g>
<!-- bus7 -->
<g id="node7" class="node">
<title>bus7</title>
<ellipse fill="none" stroke="#000000" cx="753.2447" cy="-275.3708" rx="27" ry="18"/>
<text text-anchor="middle" x="753.2447" y="-271.6708" font-family="Times,serif" font-size="14.00" fill="#000000">6</text>
</g>
<!-- bus6&#45;&#45;bus7 -->
<g id="edge10" class="edge">
<title>bus6&#45;&#45;bus7</title>
<path fill="none" stroke="#000000" d="M788.1118,-185.5712C780.3273,-205.6199 767.744,-238.0281 760.0127,-257.9398"/>
<text text-anchor="middle" x="770.5623" y="-225.5555" font-family="Times,serif" font-size="14.00" fill="#000000">5</text>
</g>
<!-- bus20 -->
<g id="node20" class="node">
<title>bus20</title>
<ellipse fill="none" stroke="#000000" cx="659.8051" cy="-293.9985" rx="27" ry="18"/>
<text text-anchor="middle" x="659.8051" y="-290.2985" font-family="Times,serif" font-size="14.00" fill="#000000">10</text>
</g>
<!-- bus7&#45;&#45;bus20 -->
<g id="edge11" class="edge">
<title>bus7&#45;&#45;bus20</title>
<path fill="none" stroke="#000000" d="M727.2165,-280.5596C714.2565,-283.1433 698.6344,-286.2576 685.6936,-288.8374"/>
<text text-anchor="middle" x="699.4551" y="-288.4985" font-family="Times,serif" font-size="14.00" fill="#000000">10</text>
</g>
<!-- bus9 -->
<g id="node9" class="node">
<title>bus9</title>
<ellipse fill="none" stroke="#000000" cx="153.3648" cy="-292.8791" rx="27" ry="18"/>
<text text-anchor="middle" x="153.3648" y="-289.1791" font-family="Times,serif" font-size="14.00" fill="#000000">22</text>
</g>
<!-- bus10 -->
<g id="node10" class="node">
<title>bus10</title>
<ellipse fill="none" stroke="#000000" cx="532.6085" cy="-293.3431" rx="27" ry="18"/>
<text text-anchor="middle" x="532.6085" y="-289.6431" font-family="Times,serif" font-size="14.00" fill="#000000">11</text>
</g>
<!-- bus10&#45;&#45;bus11 -->
<g id="edge13" class="edge">
<title>bus10&#45;&#45;bus11</title>
<path fill="none" stroke="#000000" d="M542.7308,-310.4422C553.0364,-327.8512 568.9184,-354.6801 579.1923,-372.0354"/>
<text text-anchor="middle" x="553.9616" y="-345.0388" font-family="Times,serif" font-size="14.00" fill="#000000">18</text>
</g>
<!-- bus15 -->
<g id="node15" class="node">
<title>bus15</title>
<ellipse fill="none" stroke="#000000" cx="463.6202" cy="-301.939" rx="27" ry="18"/>
<text text-anchor="middle" x="463.6202" y="-298.239" font-family="Times,serif" font-size="14.00" fill="#000000">14</text>
</g>
<!-- bus10&#45;&#45;bus15 -->
<g id="edge12" class="edge">
<title>bus10&#45;&#45;bus15</title>
<path fill="none" stroke="#000000" d="M505.7383,-296.6911C500.7443,-297.3134 495.5258,-297.9636 490.5306,-298.586"/>
<text text-anchor="middle" x="498.1344" y="-286.4386" font-family="Times,serif" font-size="14.00" fill="#000000">19</text>
</g>
<!-- bus11&#45;&#45;bus8 -->
<g id="edge14" class="edge">
<title>bus11&#45;&#45;bus8</title>
<path fill="none" stroke="#000000" d="M567.528,-400.0081C561.5179,-403.0609 554.993,-406.3751 548.9776,-409.4306"/>
<text text-anchor="middle" x="565.2528" y="-408.5194" font-family="Times,serif" font-size="14.00" fill="#000000">22</text>
</g>
<!-- bus12&#45;&#45;bus20 -->
<g id="edge15" class="edge">
<title>bus12&#45;&#45;bus20</title>
<path fill="none" stroke="#000000" d="M643.3742,-227.3056C646.9131,-241.6699 651.8518,-261.7161 655.389,-276.0736"/>
<text text-anchor="middle" x="645.8816" y="-255.4896" font-family="Times,serif" font-size="14.00" fill="#000000">9</text>
</g>
<!-- bus13 -->
<g id="node13" class="node">
<title>bus13</title>
<ellipse fill="none" stroke="#000000" cx="304.0596" cy="-183.4211" rx="27" ry="18"/>
<text text-anchor="middle" x="304.0596" y="-179.7211" font-family="Times,serif" font-size="14.00" fill="#000000">15</text>
</g>
<!-- bus13&#45;&#45;bus1 -->
<g id="edge18" class="edge">
<title>bus13&#45;&#45;bus1</title>
<path fill="none" stroke="#000000" d="M330.9158,-180.7941C358.1742,-178.1277 400.1367,-174.0231 427.4024,-171.356"/>
<text text-anchor="middle" x="372.1591" y="-164.8751" font-family="Times,serif" font-size="14.00" fill="#000000">27</text>
</g>
<!-- bus14 -->
<g id="node14" class="node">
<title>bus14</title>
<ellipse fill="none" stroke="#000000" cx="339.4193" cy="-275.0052" rx="27" ry="18"/>
<text text-anchor="middle" x="339.4193" y="-271.3052" font-family="Times,serif" font-size="14.00" fill="#000000">16</text>
</g>
<!-- bus13&#45;&#45;bus14 -->
<g id="edge16" class="edge">
<title>bus13&#45;&#45;bus14</title>
<path fill="none" stroke="#000000" d="M310.8773,-201.0794C317.1387,-217.2969 326.3677,-241.2008 332.6225,-257.4011"/>
<text text-anchor="middle" x="314.7499" y="-233.0403" font-family="Times,serif" font-size="14.00" fill="#000000">24</text>
</g>
<!-- bus16 -->
<g id="node16" class="node">
<title>bus16</title>
<ellipse fill="none" stroke="#000000" cx="202.5494" cy="-218.5597" rx="27" ry="18"/>
<text text-anchor="middle" x="202.5494" y="-214.8597" font-family="Times,serif" font-size="14.00" fill="#000000">21</text>
</g>
<!-- bus13&#45;&#45;bus16 -->
<g id="edge17" class="edge">
<title>bus13&#45;&#45;bus16</title>
<path fill="none" stroke="#000000" d="M277.2984,-186.4443C259.8751,-191.1759 237.5683,-199.0015 221.8624,-205.9455"/>
<text text-anchor="middle" x="242.5804" y="-199.9949" font-family="Times,serif" font-size="14.00" fill="#000000">25</text>
</g>
<!-- bus13&#45;&#45;bus16 -->
<g id="edge19" class="edge">
<title>bus13&#45;&#45;bus16</title>
<path fill="none" stroke="#000000" d="M284.3755,-196.199C268.6531,-203.1186 246.4909,-210.8792 229.1861,-215.5703"/>
<text text-anchor="middle" x="263.7808" y="-194.6846" font-family="Times,serif" font-size="14.00" fill="#000000">26</text>
</g>
<!-- bus19 -->
<g id="node19" class="node">
<title>bus19</title>
<ellipse fill="none" stroke="#000000" cx="215.3738" cy="-273.3068" rx="27" ry="18"/>
<text text-anchor="middle" x="215.3738" y="-269.6068" font-family="Times,serif" font-size="14.00" fill="#000000">17</text>
</g>
<!-- bus14&#45;&#45;bus19 -->
<g id="edge21" class="edge">
<title>bus14&#45;&#45;bus19</title>
<path fill="none" stroke="#000000" d="M312.197,-274.6325C291.5148,-274.3493 263.1992,-273.9616 242.5326,-273.6787"/>
<text text-anchor="middle" x="270.3648" y="-277.9556" font-family="Times,serif" font-size="14.00" fill="#000000">28</text>
</g>
<!-- bus21 -->
<g id="node21" class="node">
<title>bus21</title>
<ellipse fill="none" stroke="#000000" cx="358.6552" cy="-379.9924" rx="27" ry="18"/>
<text text-anchor="middle" x="358.6552" y="-376.2924" font-family="Times,serif" font-size="14.00" fill="#000000">19</text>
</g>
<!-- bus14&#45;&#45;bus21 -->
<g id="edge20" class="edge">
<title>bus14&#45;&#45;bus21</title>
<path fill="none" stroke="#000000" d="M342.7699,-293.2926C346.3006,-312.5623 351.8269,-342.7243 355.343,-361.9146"/>
<text text-anchor="middle" x="342.0565" y="-316.4036" font-family="Times,serif" font-size="14.00" fill="#000000">29</text>
</g>
<!-- bus15&#45;&#45;bus14 -->
<g id="edge22" class="edge">
<title>bus15&#45;&#45;bus14</title>
<path fill="none" stroke="#000000" d="M437.8857,-296.3583C416.5697,-291.7358 386.4277,-285.1993 365.1208,-280.5788"/>
<text text-anchor="middle" x="394.5032" y="-292.2685" font-family="Times,serif" font-size="14.00" fill="#000000">23</text>
</g>
<!-- bus16&#45;&#45;bus9 -->
<g id="edge23" class="edge">
<title>bus16&#45;&#45;bus9</title>
<path fill="none" stroke="#000000" d="M191.6338,-235.0536C183.5396,-247.284 172.5472,-263.8939 164.42,-276.1743"/>
<text text-anchor="middle" x="171.0269" y="-259.4139" font-family="Times,serif" font-size="14.00" fill="#000000">38</text>
</g>
<!-- bus17 -->
<g id="node17" class="node">
<title>bus17</title>
<ellipse fill="none" stroke="#000000" cx="678.3271" cy="-530.6702" rx="27" ry="18"/>
<text text-anchor="middle" x="678.3271" y="-526.9702" font-family="Times,serif" font-size="14.00" fill="#000000">7</text>
</g>
<!-- bus18 -->
<g id="node18" class="node">
<title>bus18</title>
<ellipse fill="none" stroke="#000000" cx="651.2526" cy="-354.5965" rx="27" ry="18"/>
<text text-anchor="middle" x="651.2526" y="-350.8965" font-family="Times,serif" font-size="14.00" fill="#000000">8</text>
</g>
<!-- bus17&#45;&#45;bus18 -->
<g id="edge24" class="edge">
<title>bus17&#45;&#45;bus18</title>
<path fill="none" stroke="#000000" d="M675.5316,-512.4904C670.33,-478.6627 659.2229,-406.4302 654.0328,-372.6774"/>
<text text-anchor="middle" x="657.7822" y="-446.3839" font-family="Times,serif" font-size="14.00" fill="#000000">11</text>
</g>
<!-- bus18&#45;&#45;bus20 -->
<g id="edge26" class="edge">
<title>bus18&#45;&#45;bus20</title>
<path fill="none" stroke="#000000" d="M653.8186,-336.4151C654.9011,-328.7454 656.1586,-319.8354 657.2408,-312.167"/>
<text text-anchor="middle" x="648.5297" y="-313.0911" font-family="Times,serif" font-size="14.00" fill="#000000">13</text>
</g>
<!-- bus18&#45;&#45;bus22 -->
<g id="edge25" class="edge">
<title>bus18&#45;&#45;bus22</title>
<path fill="none" stroke="#000000" d="M641.6515,-337.4267C631.1807,-318.7016 614.5284,-288.9218 604.1138,-270.2973"/>
<text text-anchor="middle" x="615.8827" y="-292.662" font-family="Times,serif" font-size="14.00" fill="#000000">12</text>
</g>
<!-- bus19&#45;&#45;bus9 -->
<g id="edge27" class="edge">
<title>bus19&#45;&#45;bus9</title>
<path fill="none" stroke="#000000" d="M190.8662,-281.0423C186.6685,-282.3673 182.3044,-283.7447 178.1007,-285.0715"/>
<text text-anchor="middle" x="191.4835" y="-286.8569" font-family="Times,serif" font-size="14.00" fill="#000000">31</text>
</g>
<!-- bus23 -->
<g id="node23" class="node">
<title>bus23</title>
<ellipse fill="none" stroke="#000000" cx="140.5035" cy="-220.8924" rx="27" ry="18"/>
<text text-anchor="middle" x="140.5035" y="-217.1924" font-family="Times,serif" font-size="14.00" fill="#000000">18</text>
</g>
<!-- bus19&#45;&#45;bus23 -->
<g id="edge28" class="edge">
<title>bus19&#45;&#45;bus23</title>
<path fill="none" stroke="#000000" d="M196.4809,-260.0804C185.0445,-252.0742 170.5192,-241.9055 159.1311,-233.933"/>
<text text-anchor="middle" x="174.306" y="-235.8067" font-family="Times,serif" font-size="14.00" fill="#000000">30</text>
</g>
<!-- bus20&#45;&#45;bus4 -->
<g id="edge29" class="edge">
<title>bus20&#45;&#45;bus4</title>
<path fill="none" stroke="#000000" d="M638.8227,-305.8428C627.8991,-312.0091 614.5899,-319.522 603.7092,-325.664"/>
<text text-anchor="middle" x="628.2659" y="-319.5534" font-family="Times,serif" font-size="14.00" fill="#000000">17</text>
</g>
<!-- bus20&#45;&#45;bus10 -->
<g id="edge30" class="edge">
<title>bus20&#45;&#45;bus10</title>
<path fill="none" stroke="#000000" d="M632.5182,-293.8579C611.0571,-293.7473 581.2998,-293.594 559.8503,-293.4835"/>
<text text-anchor="middle" x="589.1842" y="-282.4707" font-family="Times,serif" font-size="14.00" fill="#000000">16</text>
</g>
<!-- bus21&#45;&#45;bus5 -->
<g id="edge31" class="edge">
<title>bus21&#45;&#45;bus5</title>
<path fill="none" stroke="#000000" d="M366.4308,-397.4216C370.7532,-403.0351 376.2255,-409.1056 381.603,-414.2915"/>
<text text-anchor="middle" x="367.0169" y="-409.6565" font-family="Times,serif" font-size="14.00" fill="#000000">35</text>
</g>
<!-- bus21&#45;&#45;bus5 -->
<g id="edge32" class="edge">
<title>bus21&#45;&#45;bus5</title>
<path fill="none" stroke="#000000" d="M378.7965,-392.1539C384.2667,-397.4097 389.8506,-403.5983 394.2362,-409.3059"/>
<text text-anchor="middle" x="393.5164" y="-389.5299" font-family="Times,serif" font-size="14.00" fill="#000000">34</text>
</g>
<!-- bus22&#45;&#45;bus4 -->
<g id="edge33" class="edge">
<title>bus22&#45;&#45;bus4</title>
<path fill="none" stroke="#000000" d="M592.1296,-271.5997C590.1778,-285.6831 587.4887,-305.0864 585.5381,-319.1608"/>
<text text-anchor="middle" x="581.8338" y="-299.1803" font-family="Times,serif" font-size="14.00" fill="#000000">15</text>
</g>
<!-- bus22&#45;&#45;bus10 -->
<g id="edge34" class="edge">
<title>bus22&#45;&#45;bus10</title>
<path fill="none" stroke="#000000" d="M575.0228,-266.0253C567.7802,-270.69 559.5757,-275.9744 552.3255,-280.644"/>
<text text-anchor="middle" x="556.6742" y="-262.1346" font-family="Times,serif" font-size="14.00" fill="#000000">14</text>
</g>
<!-- bus23&#45;&#45;bus16 -->
<g id="edge35" class="edge">
<title>bus23&#45;&#45;bus16</title>
<path fill="none" stroke="#000000" d="M166.3483,-226.5827C170.0919,-226.571 173.9389,-226.4208 177.6631,-226.1408"/>
<text text-anchor="middle" x="168.5057" y="-215.1618" font-family="Times,serif" font-size="14.00" fill="#000000">32</text>
</g>
<!-- bus23&#45;&#45;bus16 -->
<g id="edge36" class="edge">
<title>bus23&#45;&#45;bus16</title>
<path fill="none" stroke="#000000" d="M165.1333,-213.3308C168.9038,-213.0408 172.8059,-212.8842 176.6037,-212.8697"/>
<text text-anchor="middle" x="170.8685" y="-201.9003" font-family="Times,serif" font-size="14.00" fill="#000000">33</text>
</g>
<!-- bus24&#45;&#45;bus1 -->
<g id="edge37" class="edge">
<title>bus24&#45;&#45;bus1</title>
<path fill="none" stroke="#000000" d="M520.7694,-164.6486C508.3581,-165.4099 493.68,-166.3102 481.2762,-167.0711"/>
<text text-anchor="middle" x="497.5228" y="-169.6598" font-family="Times,serif" font-size="14.00" fill="#000000">7</text>
</g>
<!-- bus24&#45;&#45;bus22 -->
<g id="edge38" class="edge">
<title>bus24&#45;&#45;bus22</title>
<path fill="none" stroke="#000000" d="M556.8562,-180.4174C565.2014,-196.5264 577.5272,-220.3194 585.8123,-236.3126"/>
<text text-anchor="middle" x="567.8343" y="-212.165" font-family="Times,serif" font-size="14.00" fill="#000000">6</text>
</g>
<!-- load1 -->
<g id="node25" class="node">
<title>load1</title>
<polygon fill="none" stroke="#b03060" points="834.8257,-248.3589 780.8257,-248.3589 780.8257,-212.3589 834.8257,-212.3589 834.8257,-248.3589"/>
<text text-anchor="middle" x="807.8257" y="-226.6589" font-family="Times,serif" font-size="14.00" fill="#000000">4</text>
</g>
<!-- load1&#45;&#45;bus2 -->
<g id="edge39" class="edge">
<title>load1&#45;&#45;bus2</title>
<path fill="none" stroke="#b03060" stroke-dasharray="1,5" d="M780.567,-230.6206C766.2339,-230.7582 748.7134,-230.9265 734.3771,-231.0641"/>
</g>
<!-- load2 -->
<g id="node26" class="node">
<title>load2</title>
<polygon fill="none" stroke="#b03060" points="749.714,-102.9842 695.714,-102.9842 695.714,-66.9842 749.714,-66.9842 749.714,-102.9842"/>
<text text-anchor="middle" x="722.714" y="-81.2842" font-family="Times,serif" font-size="14.00" fill="#000000">1</text>
</g>
<!-- load2&#45;&#45;bus3 -->
<g id="edge40" class="edge">
<title>load2&#45;&#45;bus3</title>
<path fill="none" stroke="#b03060" stroke-dasharray="1,5" d="M695.6871,-100.8187C690.8552,-103.6496 685.8919,-106.5575 681.277,-109.2613"/>
</g>
<!-- load3 -->
<g id="node27" class="node">
<title>load3</title>
<polygon fill="none" stroke="#b03060" points="428.4553,-300.6754 374.4553,-300.6754 374.4553,-264.6754 428.4553,-264.6754 428.4553,-300.6754"/>
<text text-anchor="middle" x="401.4553" y="-278.9754" font-family="Times,serif" font-size="14.00" fill="#000000">14</text>
</g>
<!-- load3&#45;&#45;bus15 -->
<g id="edge41" class="edge">
<title>load3&#45;&#45;bus15</title>
<path fill="none" stroke="#b03060" stroke-dasharray="1,5" d="M428.5408,-291.0687C431.9436,-292.1231 435.4114,-293.1977 438.7774,-294.2408"/>
</g>
<!-- load4 -->
<g id="node28" class="node">
<title>load4</title>
<polygon fill="none" stroke="#b03060" points="811.7792,-122.7111 757.7792,-122.7111 757.7792,-86.7111 811.7792,-86.7111 811.7792,-122.7111"/>
<text text-anchor="middle" x="784.7792" y="-101.0111" font-family="Times,serif" font-size="14.00" fill="#000000">2</text>
</g>
<!-- load4&#45;&#45;bus6 -->
<g id="edge42" class="edge">
<title>load4&#45;&#45;bus6</title>
<path fill="none" stroke="#b03060" stroke-dasharray="1,5" d="M787.7379,-122.9618C789.1068,-131.406 790.7278,-141.4059 792.0915,-149.8179"/>
</g>
<!-- load5 -->
<g id="node29" class="node">
<title>load5</title>
<polygon fill="none" stroke="#b03060" points="849.5064,-327.7444 795.5064,-327.7444 795.5064,-291.7444 849.5064,-291.7444 849.5064,-327.7444"/>
<text text-anchor="middle" x="822.5064" y="-306.0444" font-family="Times,serif" font-size="14.00" fill="#000000">6</text>
</g>
<!-- load5&#45;&#45;bus7 -->
<g id="edge43" class="edge">
<title>load5&#45;&#45;bus7</title>
<path fill="none" stroke="#b03060" stroke-dasharray="1,5" d="M795.1323,-296.159C788.4774,-292.8563 781.4481,-289.3677 775.0882,-286.2114"/>
</g>
<!-- load6 -->
<g id="node30" class="node">
<title>load6</title>
<polygon fill="none" stroke="#b03060" points="725.1399,-416.6288 671.1399,-416.6288 671.1399,-380.6288 725.1399,-380.6288 725.1399,-416.6288"/>
<text text-anchor="middle" x="698.1399" y="-394.9288" font-family="Times,serif" font-size="14.00" fill="#000000">13</text>
</g>
<!-- load6&#45;&#45;bus11 -->
<g id="edge44" class="edge">
<title>load6&#45;&#45;bus11</title>
<path fill="none" stroke="#b03060" stroke-dasharray="1,5" d="M670.9375,-396.2205C654.1778,-394.7367 632.7778,-392.8421 616.0826,-391.3641"/>
</g>
<!-- load7 -->
<g id="node31" class="node">
<title>load7</title>
<polygon fill="none" stroke="#b03060" points="393.1514,-208.574 339.1514,-208.574 339.1514,-172.574 393.1514,-172.574 393.1514,-208.574"/>
<text text-anchor="middle" x="366.1514" y="-186.874" font-family="Times,serif" font-size="14.00" fill="#000000">15</text>
</g>
<!-- load7&#45;&#45;bus13 -->
<g id="edge45" class="edge">
<title>load7&#45;&#45;bus13</title>
<path fill="none" stroke="#b03060" stroke-dasharray="1,5" d="M339.0977,-187.4574C336.3525,-187.1412 333.565,-186.8201 330.8229,-186.5042"/>
</g>
<!-- load8 -->
<g id="node32" class="node">
<title>load8</title>
<polygon fill="none" stroke="#b03060" points="688.6478,-183.3507 634.6478,-183.3507 634.6478,-147.3507 688.6478,-147.3507 688.6478,-183.3507"/>
<text text-anchor="middle" x="661.6478" y="-161.6507" font-family="Times,serif" font-size="14.00" fill="#000000">5</text>
</g>
<!-- load8&#45;&#45;bus12 -->
<g id="edge46" class="edge">
<title>load8&#45;&#45;bus12</title>
<path fill="none" stroke="#b03060" stroke-dasharray="1,5" d="M652.2854,-183.5029C650.8201,-186.3439 649.3092,-189.2732 647.8546,-192.0935"/>
</g>
<!-- load9 -->
<g id="node33" class="node">
<title>load9</title>
<polygon fill="none" stroke="#b03060" points="105.4441,-226.5661 51.4441,-226.5661 51.4441,-190.5661 105.4441,-190.5661 105.4441,-226.5661"/>
<text text-anchor="middle" x="78.4441" y="-204.8661" font-family="Times,serif" font-size="14.00" fill="#000000">18</text>
</g>
<!-- load9&#45;&#45;bus23 -->
<g id="edge47" class="edge">
<title>load9&#45;&#45;bus23</title>
<path fill="none" stroke="#b03060" stroke-dasharray="1,5" d="M105.4837,-213.9368C108.4888,-214.5336 111.5446,-215.1406 114.5359,-215.7347"/>
</g>
<!-- load10 -->
<g id="node34" class="node">
<title>load10</title>
<polygon fill="none" stroke="#b03060" points="346.3787,-449.4687 292.3787,-449.4687 292.3787,-413.4687 346.3787,-413.4687 346.3787,-449.4687"/>
<text text-anchor="middle" x="319.3787" y="-427.7687" font-family="Times,serif" font-size="14.00" fill="#000000">19</text>
</g>
<!-- load10&#45;&#45;bus21 -->
<g id="edge48" class="edge">
<title>load10&#45;&#45;bus21</title>
<path fill="none" stroke="#b03060" stroke-dasharray="1,5" d="M333.1157,-413.4648C337.3631,-407.8982 342.0164,-401.7995 346.1739,-396.3506"/>
</g>
<!-- load11 -->
<g id="node35" class="node">
<title>load11</title>
<polygon fill="none" stroke="#b03060" points="304.3977,-330.1387 250.3977,-330.1387 250.3977,-294.1387 304.3977,-294.1387 304.3977,-330.1387"/>
<text text-anchor="middle" x="277.3977" y="-308.4387" font-family="Times,serif" font-size="14.00" fill="#000000">16</text>
</g>
<!-- load11&#45;&#45;bus14 -->
<g id="edge49" class="edge">
<title>load11&#45;&#45;bus14</title>
<path fill="none" stroke="#b03060" stroke-dasharray="1,5" d="M304.4209,-295.9594C309.3827,-292.9887 314.483,-289.935 319.2023,-287.1095"/>
</g>
<!-- load12 -->
<g id="node36" class="node">
<title>load12</title>
<polygon fill="none" stroke="#b03060" points="651.6921,-605.6815 597.6921,-605.6815 597.6921,-569.6815 651.6921,-569.6815 651.6921,-605.6815"/>
<text text-anchor="middle" x="624.6921" y="-583.9815" font-family="Times,serif" font-size="14.00" fill="#000000">7</text>
</g>
<!-- load12&#45;&#45;bus17 -->
<g id="edge50" class="edge">
<title>load12&#45;&#45;bus17</title>
<path fill="none" stroke="#b03060" stroke-dasharray="1,5" d="M641.6626,-569.6428C648.7827,-562.0745 656.9782,-553.363 663.8127,-546.0983"/>
</g>
<!-- load13 -->
<g id="node37" class="node">
<title>load13</title>
<polygon fill="none" stroke="#b03060" points="616.8985,-454.4469 562.8985,-454.4469 562.8985,-418.4469 616.8985,-418.4469 616.8985,-454.4469"/>
<text text-anchor="middle" x="589.8985" y="-432.7469" font-family="Times,serif" font-size="14.00" fill="#000000">8</text>
</g>
<!-- load13&#45;&#45;bus18 -->
<g id="edge51" class="edge">
<title>load13&#45;&#45;bus18</title>
<path fill="none" stroke="#b03060" stroke-dasharray="1,5" d="M603.5149,-418.2817C614.1766,-404.0583 628.8695,-384.457 639.1287,-370.7706"/>
</g>
<!-- load14 -->
<g id="node38" class="node">
<title>load14</title>
<polygon fill="none" stroke="#b03060" points="390.7479,-502.1619 336.7479,-502.1619 336.7479,-466.1619 390.7479,-466.1619 390.7479,-502.1619"/>
<text text-anchor="middle" x="363.7479" y="-480.4619" font-family="Times,serif" font-size="14.00" fill="#000000">20</text>
</g>
<!-- load14&#45;&#45;bus5 -->
<g id="edge52" class="edge">
<title>load14&#45;&#45;bus5</title>
<path fill="none" stroke="#b03060" stroke-dasharray="1,5" d="M375.8317,-465.9616C380.6393,-458.7205 386.1356,-450.4422 390.841,-443.355"/>
</g>
<!-- load15 -->
<g id="node39" class="node">
<title>load15</title>
<polygon fill="none" stroke="#b03060" points="749.7738,-337.6082 695.7738,-337.6082 695.7738,-301.6082 749.7738,-301.6082 749.7738,-337.6082"/>
<text text-anchor="middle" x="722.7738" y="-315.9082" font-family="Times,serif" font-size="14.00" fill="#000000">10</text>
</g>
<!-- load15&#45;&#45;bus20 -->
<g id="edge53" class="edge">
<title>load15&#45;&#45;bus20</title>
<path fill="none" stroke="#b03060" stroke-dasharray="1,5" d="M695.7039,-308.5987C691.4373,-306.8634 687.0603,-305.0833 682.8947,-303.3891"/>
</g>
<!-- load16 -->
<g id="node40" class="node">
<title>load16</title>
<polygon fill="none" stroke="#b03060" points="579.4523,-226.9132 525.4523,-226.9132 525.4523,-190.9132 579.4523,-190.9132 579.4523,-226.9132"/>
<text text-anchor="middle" x="552.4523" y="-205.2132" font-family="Times,serif" font-size="14.00" fill="#000000">9</text>
</g>
<!-- load16&#45;&#45;bus22 -->
<g id="edge54" class="edge">
<title>load16&#45;&#45;bus22</title>
<path fill="none" stroke="#b03060" stroke-dasharray="1,5" d="M569.6175,-227C573.0862,-230.6549 576.702,-234.4647 580.0718,-238.0155"/>
</g>
<!-- load17 -->
<g id="node41" class="node">
<title>load17</title>
<polygon fill="none" stroke="#b03060" points="553.0117,-135.0738 499.0117,-135.0738 499.0117,-99.0738 553.0117,-99.0738 553.0117,-135.0738"/>
<text text-anchor="middle" x="526.0117" y="-113.3738" font-family="Times,serif" font-size="14.00" fill="#000000">3</text>
</g>
<!-- load17&#45;&#45;bus24 -->
<g id="edge55" class="edge">
<title>load17&#45;&#45;bus24</title>
<path fill="none" stroke="#b03060" stroke-dasharray="1,5" d="M534.6339,-135.2207C536.2536,-138.6297 537.9438,-142.187 539.5527,-145.5731"/>
</g>
<!-- thermal1 -->
<g id="node42" class="node">
<title>thermal1</title>
<polygon fill="none" stroke="#cd853f" points="163.0404,-183.7207 135.3907,-165.7207 163.0404,-147.7207 190.69,-165.7207 163.0404,-183.7207"/>
<text text-anchor="middle" x="163.0404" y="-162.0207" font-family="Times,serif" font-size="14.00" fill="#000000">24</text>
</g>
<!-- thermal1&#45;&#45;bus16 -->
<g id="edge56" class="edge">
<title>thermal1&#45;&#45;bus16</title>
<path fill="none" stroke="#cd853f" stroke-dasharray="5,2" d="M172.2038,-177.9758C177.5836,-185.1707 184.4512,-194.3553 190.2921,-202.1668"/>
</g>
<!-- thermal2 -->
<g id="node43" class="node">
<title>thermal2</title>
<polygon fill="none" stroke="#cd853f" points="666.0651,-36 639.0651,-18 666.0651,0 693.0651,-18 666.0651,-36"/>
<text text-anchor="middle" x="666.0651" y="-14.3" font-family="Times,serif" font-size="14.00" fill="#000000">4</text>
</g>
<!-- thermal2&#45;&#45;bus3 -->
<g id="edge57" class="edge">
<title>thermal2&#45;&#45;bus3</title>
<path fill="none" stroke="#cd853f" stroke-dasharray="5,2" d="M665.1522,-35.5279C664.1747,-54.298 662.6304,-83.9492 661.6374,-103.0155"/>
</g>
<!-- thermal3 -->
<g id="node44" class="node">
<title>thermal3</title>
<polygon fill="none" stroke="#cd853f" points="728.412,-58.9523 701.412,-40.9523 728.412,-22.9523 755.412,-40.9523 728.412,-58.9523"/>
<text text-anchor="middle" x="728.412" y="-37.2523" font-family="Times,serif" font-size="14.00" fill="#000000">1</text>
</g>
<!-- thermal3&#45;&#45;bus3 -->
<g id="edge58" class="edge">
<title>thermal3&#45;&#45;bus3</title>
<path fill="none" stroke="#cd853f" stroke-dasharray="5,2" d="M718.4185,-52.8118C706.6436,-66.7852 687.0347,-90.0553 673.9839,-105.5429"/>
</g>
<!-- thermal4 -->
<g id="node45" class="node">
<title>thermal4</title>
<polygon fill="none" stroke="#cd853f" points="555.6881,-503.3884 528.0385,-485.3884 555.6881,-467.3884 583.3377,-485.3884 555.6881,-503.3884"/>
<text text-anchor="middle" x="555.6881" y="-481.6884" font-family="Times,serif" font-size="14.00" fill="#000000">12</text>
</g>
<!-- thermal4&#45;&#45;bus11 -->
<g id="edge59" class="edge">
<title>thermal4&#45;&#45;bus11</title>
<path fill="none" stroke="#cd853f" stroke-dasharray="5,2" d="M560.9285,-470.3256C566.9346,-453.0622 576.7648,-424.8069 583.1144,-406.556"/>
</g>
<!-- thermal5 -->
<g id="node46" class="node">
<title>thermal5</title>
<polygon fill="none" stroke="#cd853f" points="76.2915,-402.1494 48.6419,-384.1494 76.2915,-366.1494 103.9412,-384.1494 76.2915,-402.1494"/>
<text text-anchor="middle" x="76.2915" y="-380.4494" font-family="Times,serif" font-size="14.00" fill="#000000">29</text>
</g>
<!-- thermal5&#45;&#45;bus9 -->
<g id="edge60" class="edge">
<title>thermal5&#45;&#45;bus9</title>
<path fill="none" stroke="#cd853f" stroke-dasharray="5,2" d="M86.3675,-372.2174C100.0776,-355.9819 124.6465,-326.8873 139.9176,-308.8033"/>
</g>
<!-- thermal6 -->
<g id="node47" class="node">
<title>thermal6</title>
<polygon fill="none" stroke="#cd853f" points="241.3294,-185.5666 213.6797,-167.5666 241.3294,-149.5666 268.979,-167.5666 241.3294,-185.5666"/>
<text text-anchor="middle" x="241.3294" y="-163.8666" font-family="Times,serif" font-size="14.00" fill="#000000">20</text>
</g>
<!-- thermal6&#45;&#45;bus13 -->
<g id="edge61" class="edge">
<title>thermal6&#45;&#45;bus13</title>
<path fill="none" stroke="#cd853f" stroke-dasharray="5,2" d="M261.5229,-172.6704C266.967,-174.0463 272.9276,-175.5528 278.6183,-176.9911"/>
</g>
<!-- thermal7 -->
<g id="node48" class="node">
<title>thermal7</title>
<polygon fill="none" stroke="#cd853f" points="492.3936,-529.2648 464.744,-511.2648 492.3936,-493.2648 520.0433,-511.2648 492.3936,-529.2648"/>
<text text-anchor="middle" x="492.3936" y="-507.5648" font-family="Times,serif" font-size="14.00" fill="#000000">32</text>
</g>
<!-- thermal7&#45;&#45;bus8 -->
<g id="edge62" class="edge">
<title>thermal7&#45;&#45;bus8</title>
<path fill="none" stroke="#cd853f" stroke-dasharray="5,2" d="M497.9836,-496.6818C504.0921,-480.7462 513.8778,-455.2176 520.4165,-438.1596"/>
</g>
<!-- thermal8 -->
<g id="node49" class="node">
<title>thermal8</title>
<polygon fill="none" stroke="#cd853f" points="602.5186,-57.6289 575.5186,-39.6289 602.5186,-21.6289 629.5186,-39.6289 602.5186,-57.6289"/>
<text text-anchor="middle" x="602.5186" y="-35.9289" font-family="Times,serif" font-size="14.00" fill="#000000">2</text>
</g>
<!-- thermal8&#45;&#45;bus3 -->
<g id="edge63" class="edge">
<title>thermal8&#45;&#45;bus3</title>
<path fill="none" stroke="#cd853f" stroke-dasharray="5,2" d="M611.3526,-52.037C621.3952,-66.1425 637.8327,-89.2303 648.946,-104.8398"/>
</g>
<!-- thermal9 -->
<g id="node50" class="node">
<title>thermal9</title>
<polygon fill="none" stroke="#cd853f" points="871.1098,-228.9592 844.1098,-210.9592 871.1098,-192.9592 898.1098,-210.9592 871.1098,-228.9592"/>
<text text-anchor="middle" x="871.1098" y="-207.2592" font-family="Times,serif" font-size="14.00" fill="#000000">6</text>
</g>
<!-- thermal9&#45;&#45;bus6 -->
<g id="edge64" class="edge">
<title>thermal9&#45;&#45;bus6</title>
<path fill="none" stroke="#cd853f" stroke-dasharray="5,2" d="M856.4367,-202.6396C844.8612,-196.0763 828.5732,-186.841 815.6777,-179.5292"/>
</g>
<!-- thermal10 -->
<g id="node51" class="node">
<title>thermal10</title>
<polygon fill="none" stroke="#cd853f" points="189.6072,-358.3839 161.9576,-340.3839 189.6072,-322.3839 217.2569,-340.3839 189.6072,-358.3839"/>
<text text-anchor="middle" x="189.6072" y="-336.6839" font-family="Times,serif" font-size="14.00" fill="#000000">25</text>
</g>
<!-- thermal10&#45;&#45;bus9 -->
<g id="edge65" class="edge">
<title>thermal10&#45;&#45;bus9</title>
<path fill="none" stroke="#cd853f" stroke-dasharray="5,2" d="M180.0849,-327.9025C175.7226,-322.1846 170.4948,-315.3323 165.8247,-309.2109"/>
</g>
<!-- thermal11 -->
<g id="node52" class="node">
<title>thermal11</title>
<polygon fill="none" stroke="#cd853f" points="98.8131,-182.5452 71.1635,-164.5452 98.8131,-146.5452 126.4627,-164.5452 98.8131,-182.5452"/>
<text text-anchor="middle" x="98.8131" y="-160.8452" font-family="Times,serif" font-size="14.00" fill="#000000">23</text>
</g>
<!-- thermal11&#45;&#45;bus23 -->
<g id="edge66" class="edge">
<title>thermal11&#45;&#45;bus23</title>
<path fill="none" stroke="#cd853f" stroke-dasharray="5,2" d="M107.8593,-176.7717C113.8943,-184.9284 121.8966,-195.744 128.4677,-204.6252"/>
</g>
<!-- thermal12 -->
<g id="node53" class="node">
<title>thermal12</title>
<polygon fill="none" stroke="#cd853f" points="340.0322,-352.7582 312.3825,-334.7582 340.0322,-316.7582 367.6818,-334.7582 340.0322,-352.7582"/>
<text text-anchor="middle" x="340.0322" y="-331.0582" font-family="Times,serif" font-size="14.00" fill="#000000">22</text>
</g>
<!-- thermal12&#45;&#45;bus14 -->
<g id="edge67" class="edge">
<title>thermal12&#45;&#45;bus14</title>
<path fill="none" stroke="#cd853f" stroke-dasharray="5,2" d="M339.8483,-316.8303C339.7721,-309.4051 339.6839,-300.8009 339.6073,-293.334"/>
</g>
<!-- thermal13 -->
<g id="node54" class="node">
<title>thermal13</title>
<polygon fill="none" stroke="#cd853f" points="690.0545,-649.2091 662.4048,-631.2091 690.0545,-613.2091 717.7041,-631.2091 690.0545,-649.2091"/>
<text text-anchor="middle" x="690.0545" y="-627.5091" font-family="Times,serif" font-size="14.00" fill="#000000">11</text>
</g>
<!-- thermal13&#45;&#45;bus17 -->
<g id="edge68" class="edge">
<title>thermal13&#45;&#45;bus17</title>
<path fill="none" stroke="#cd853f" stroke-dasharray="5,2" d="M688.0651,-614.1541C685.9478,-596.0024 682.6106,-567.3927 680.4453,-548.8298"/>
</g>
<!-- thermal14 -->
<g id="node55" class="node">
<title>thermal14</title>
<polygon fill="none" stroke="#cd853f" points="676.6438,-460.6366 648.9942,-442.6366 676.6438,-424.6366 704.2935,-442.6366 676.6438,-460.6366"/>
<text text-anchor="middle" x="676.6438" y="-438.9366" font-family="Times,serif" font-size="14.00" fill="#000000">13</text>
</g>
<!-- thermal14&#45;&#45;bus11 -->
<g id="edge69" class="edge">
<title>thermal14&#45;&#45;bus11</title>
<path fill="none" stroke="#cd853f" stroke-dasharray="5,2" d="M662.2087,-433.7773C647.7576,-424.9083 625.4051,-411.19 609.2445,-401.2718"/>
</g>
<!-- thermal15 -->
<g id="node56" class="node">
<title>thermal15</title>
<polygon fill="none" stroke="#cd853f" points="857.8771,-184.6158 830.8771,-166.6158 857.8771,-148.6158 884.8771,-166.6158 857.8771,-184.6158"/>
<text text-anchor="middle" x="857.8771" y="-162.9158" font-family="Times,serif" font-size="14.00" fill="#000000">5</text>
</g>
<!-- thermal15&#45;&#45;bus6 -->
<g id="edge70" class="edge">
<title>thermal15&#45;&#45;bus6</title>
<path fill="none" stroke="#cd853f" stroke-dasharray="5,2" d="M831.5793,-167.1152C828.4837,-167.174 825.3198,-167.2341 822.2121,-167.2931"/>
</g>
<!-- thermal16 -->
<g id="node57" class="node">
<title>thermal16</title>
<polygon fill="none" stroke="#cd853f" points="464.0561,-264.1021 436.4065,-246.1021 464.0561,-228.1021 491.7058,-246.1021 464.0561,-264.1021"/>
<text text-anchor="middle" x="464.0561" y="-242.4021" font-family="Times,serif" font-size="14.00" fill="#000000">15</text>
</g>
<!-- thermal16&#45;&#45;bus15 -->
<g id="edge71" class="edge">
<title>thermal16&#45;&#45;bus15</title>
<path fill="none" stroke="#cd853f" stroke-dasharray="5,2" d="M463.9158,-264.0766C463.867,-270.3252 463.8122,-277.3383 463.7632,-283.6148"/>
</g>
<!-- thermal17 -->
<g id="node58" class="node">
<title>thermal17</title>
<polygon fill="none" stroke="#cd853f" points="27.5747,-358.1178 -.0749,-340.1178 27.5747,-322.1178 55.2244,-340.1178 27.5747,-358.1178"/>
<text text-anchor="middle" x="27.5747" y="-336.4178" font-family="Times,serif" font-size="14.00" fill="#000000">27</text>
</g>
<!-- thermal17&#45;&#45;bus9 -->
<g id="edge72" class="edge">
<title>thermal17&#45;&#45;bus9</title>
<path fill="none" stroke="#cd853f" stroke-dasharray="5,2" d="M45.3306,-333.4498C67.4082,-325.1589 105.1696,-310.9781 129.6919,-301.7691"/>
</g>
<!-- thermal18 -->
<g id="node59" class="node">
<title>thermal18</title>
<polygon fill="none" stroke="#cd853f" points="464.5799,-442.164 436.9302,-424.164 464.5799,-406.164 492.2295,-424.164 464.5799,-442.164"/>
<text text-anchor="middle" x="464.5799" y="-420.464" font-family="Times,serif" font-size="14.00" fill="#000000">31</text>
</g>
<!-- thermal18&#45;&#45;bus8 -->
<g id="edge73" class="edge">
<title>thermal18&#45;&#45;bus8</title>
<path fill="none" stroke="#cd853f" stroke-dasharray="5,2" d="M490.0442,-422.6734C493.2941,-422.4832 496.6311,-422.2879 499.9082,-422.096"/>
</g>
<!-- thermal19 -->
<g id="node60" class="node">
<title>thermal19</title>
<polygon fill="none" stroke="#cd853f" points="429.0544,-491.5086 401.4048,-473.5086 429.0544,-455.5086 456.7041,-473.5086 429.0544,-491.5086"/>
<text text-anchor="middle" x="429.0544" y="-469.8086" font-family="Times,serif" font-size="14.00" fill="#000000">33</text>
</g>
<!-- thermal19&#45;&#45;bus8 -->
<g id="edge74" class="edge">
<title>thermal19&#45;&#45;bus8</title>
<path fill="none" stroke="#cd853f" stroke-dasharray="5,2" d="M444.3875,-465.2259C460.9903,-456.2573 487.5808,-441.8935 506.1344,-431.8711"/>
</g>
<!-- thermal20 -->
<g id="node61" class="node">
<title>thermal20</title>
<polygon fill="none" stroke="#cd853f" points="139.7304,-409.5178 112.0808,-391.5178 139.7304,-373.5178 167.3801,-391.5178 139.7304,-409.5178"/>
<text text-anchor="middle" x="139.7304" y="-387.8178" font-family="Times,serif" font-size="14.00" fill="#000000">28</text>
</g>
<!-- thermal20&#45;&#45;bus9 -->
<g id="edge75" class="edge">
<title>thermal20&#45;&#45;bus9</title>
<path fill="none" stroke="#cd853f" stroke-dasharray="5,2" d="M142.0433,-374.7851C144.4897,-357.0864 148.3369,-329.2536 150.8553,-311.0338"/>
</g>
<!-- thermal21 -->
<g id="node62" class="node">
<title>thermal21</title>
<polygon fill="none" stroke="#cd853f" points="265.1851,-245.527 237.5355,-227.527 265.1851,-209.527 292.8348,-227.527 265.1851,-245.527"/>
<text text-anchor="middle" x="265.1851" y="-223.827" font-family="Times,serif" font-size="14.00" fill="#000000">16</text>
</g>
<!-- thermal21&#45;&#45;bus13 -->
<g id="edge76" class="edge">
<title>thermal21&#45;&#45;bus13</title>
<path fill="none" stroke="#cd853f" stroke-dasharray="5,2" d="M275.3989,-215.9387C279.8981,-210.8341 285.2555,-204.7556 290.1142,-199.2431"/>
</g>
<!-- thermal22 -->
<g id="node63" class="node">
<title>thermal22</title>
<polygon fill="none" stroke="#cd853f" points="618.8733,-504.6587 591.2237,-486.6587 618.8733,-468.6587 646.5229,-486.6587 618.8733,-504.6587"/>
<text text-anchor="middle" x="618.8733" y="-482.9587" font-family="Times,serif" font-size="14.00" fill="#000000">14</text>
</g>
<!-- thermal22&#45;&#45;bus11 -->
<g id="edge77" class="edge">
<title>thermal22&#45;&#45;bus11</title>
<path fill="none" stroke="#cd853f" stroke-dasharray="5,2" d="M614.241,-471.3974C608.9321,-453.9066 600.2428,-425.2789 594.6301,-406.7875"/>
</g>
<!-- thermal23 -->
<g id="node64" class="node">
<title>thermal23</title>
<polygon fill="none" stroke="#cd853f" points="254.3436,-140.2762 226.6939,-122.2762 254.3436,-104.2762 281.9932,-122.2762 254.3436,-140.2762"/>
<text text-anchor="middle" x="254.3436" y="-118.5762" font-family="Times,serif" font-size="14.00" fill="#000000">21</text>
</g>
<!-- thermal23&#45;&#45;bus13 -->
<g id="edge78" class="edge">
<title>thermal23&#45;&#45;bus13</title>
<path fill="none" stroke="#cd853f" stroke-dasharray="5,2" d="M263.9293,-134.0655C271.6042,-143.5048 282.4504,-156.8443 290.9323,-167.276"/>
</g>
<!-- thermal24 -->
<g id="node65" class="node">
<title>thermal24</title>
<polygon fill="none" stroke="#cd853f" points="887.9498,-140.1601 860.9498,-122.1601 887.9498,-104.1601 914.9498,-122.1601 887.9498,-140.1601"/>
<text text-anchor="middle" x="887.9498" y="-118.4601" font-family="Times,serif" font-size="14.00" fill="#000000">7</text>
</g>
<!-- thermal24&#45;&#45;bus6 -->
<g id="edge79" class="edge">
<title>thermal24&#45;&#45;bus6</title>
<path fill="none" stroke="#cd853f" stroke-dasharray="5,2" d="M872.1835,-129.9039C856.9571,-137.3825 833.7705,-148.771 816.786,-157.1132"/>
</g>
<!-- thermal25 -->
<g id="node66" class="node">
<title>thermal25</title>
<polygon fill="none" stroke="#cd853f" points="846.7895,-95.4668 819.7895,-77.4668 846.7895,-59.4668 873.7895,-77.4668 846.7895,-95.4668"/>
<text text-anchor="middle" x="846.7895" y="-73.7668" font-family="Times,serif" font-size="14.00" fill="#000000">8</text>
</g>
<!-- thermal25&#45;&#45;bus6 -->
<g id="edge80" class="edge">
<title>thermal25&#45;&#45;bus6</title>
<path fill="none" stroke="#cd853f" stroke-dasharray="5,2" d="M839.149,-90.7972C830.0341,-106.7 814.779,-133.3156 804.8049,-150.7173"/>
</g>
<!-- thermal26 -->
<g id="node67" class="node">
<title>thermal26</title>
<polygon fill="none" stroke="#cd853f" points="90.7534,-329.9501 63.1038,-311.9501 90.7534,-293.9501 118.403,-311.9501 90.7534,-329.9501"/>
<text text-anchor="middle" x="90.7534" y="-308.2501" font-family="Times,serif" font-size="14.00" fill="#000000">26</text>
</g>
<!-- thermal26&#45;&#45;bus9 -->
<g id="edge81" class="edge">
<title>thermal26&#45;&#45;bus9</title>
<path fill="none" stroke="#cd853f" stroke-dasharray="5,2" d="M109.8791,-306.1246C115.777,-304.3281 122.3581,-302.3235 128.5798,-300.4285"/>
</g>
<!-- thermal27 -->
<g id="node68" class="node">
<title>thermal27</title>
<polygon fill="none" stroke="#cd853f" points="344.9268,-98.2774 317.2771,-80.2774 344.9268,-62.2774 372.5764,-80.2774 344.9268,-98.2774"/>
<text text-anchor="middle" x="344.9268" y="-76.5774" font-family="Times,serif" font-size="14.00" fill="#000000">17</text>
</g>
<!-- thermal27&#45;&#45;bus13 -->
<g id="edge82" class="edge">
<title>thermal27&#45;&#45;bus13</title>
<path fill="none" stroke="#cd853f" stroke-dasharray="5,2" d="M339.2444,-94.6191C331.8752,-113.2179 319.0253,-145.6496 311.0617,-165.7487"/>
</g>
<!-- thermal28 -->
<g id="node69" class="node">
<title>thermal28</title>
<polygon fill="none" stroke="#cd853f" points="726.6505,-592.6775 699.0009,-574.6775 726.6505,-556.6775 754.3001,-574.6775 726.6505,-592.6775"/>
<text text-anchor="middle" x="726.6505" y="-570.9775" font-family="Times,serif" font-size="14.00" fill="#000000">10</text>
</g>
<!-- thermal28&#45;&#45;bus17 -->
<g id="edge83" class="edge">
<title>thermal28&#45;&#45;bus17</title>
<path fill="none" stroke="#cd853f" stroke-dasharray="5,2" d="M714.9528,-564.0246C708.8076,-558.4283 701.1812,-551.4831 694.4811,-545.3814"/>
</g>
<!-- thermal29 -->
<g id="node70" class="node">
<title>thermal29</title>
<polygon fill="none" stroke="#cd853f" points="396.3061,-142.4792 368.6564,-124.4792 396.3061,-106.4792 423.9557,-124.4792 396.3061,-142.4792"/>
<text text-anchor="middle" x="396.3061" y="-120.7792" font-family="Times,serif" font-size="14.00" fill="#000000">19</text>
</g>
<!-- thermal29&#45;&#45;bus13 -->
<g id="edge84" class="edge">
<title>thermal29&#45;&#45;bus13</title>
<path fill="none" stroke="#cd853f" stroke-dasharray="5,2" d="M382.2958,-133.4312C366.6713,-143.4147 341.2863,-159.6347 323.688,-170.8793"/>
</g>
<!-- thermal30 -->
<g id="node71" class="node">
<title>thermal30</title>
<polygon fill="none" stroke="#cd853f" points="757.0363,-636.6798 730.0363,-618.6798 757.0363,-600.6798 784.0363,-618.6798 757.0363,-636.6798"/>
<text text-anchor="middle" x="757.0363" y="-614.9798" font-family="Times,serif" font-size="14.00" fill="#000000">9</text>
</g>
<!-- thermal30&#45;&#45;bus17 -->
<g id="edge85" class="edge">
<title>thermal30&#45;&#45;bus17</title>
<path fill="none" stroke="#cd853f" stroke-dasharray="5,2" d="M746.7464,-607.1741C732.8286,-591.6118 707.9532,-563.797 692.3392,-546.338"/>
</g>
<!-- thermal31 -->
<g id="node72" class="node">
<title>thermal31</title>
<polygon fill="none" stroke="#cd853f" points="281.6903,-91.4409 254.0407,-73.4409 281.6903,-55.4409 309.34,-73.4409 281.6903,-91.4409"/>
<text text-anchor="middle" x="281.6903" y="-69.7409" font-family="Times,serif" font-size="14.00" fill="#000000">18</text>
</g>
<!-- thermal31&#45;&#45;bus13 -->
<g id="edge86" class="edge">
<title>thermal31&#45;&#45;bus13</title>
<path fill="none" stroke="#cd853f" stroke-dasharray="5,2" d="M284.991,-89.6688C289.0987,-109.8649 296.0932,-144.2537 300.3728,-165.2948"/>
</g>
<!-- thermal32 -->
<g id="node73" class="node">
<title>thermal32</title>
<polygon fill="none" stroke="#cd853f" points="62.1482,-285.876 34.4986,-267.876 62.1482,-249.876 89.7978,-267.876 62.1482,-285.876"/>
<text text-anchor="middle" x="62.1482" y="-264.176" font-family="Times,serif" font-size="14.00" fill="#000000">30</text>
</g>
<!-- thermal32&#45;&#45;bus9 -->
<g id="edge87" class="edge">
<title>thermal32&#45;&#45;bus9</title>
<path fill="none" stroke="#cd853f" stroke-dasharray="5,2" d="M81.9408,-273.3013C95.5642,-277.0355 113.7697,-282.0258 128.3904,-286.0335"/>
</g>
<!-- thermal33 -->
<g id="node74" class="node">
<title>thermal33</title>
<polygon fill="none" stroke="#cd853f" points="590.6112,-105.8409 563.6112,-87.8409 590.6112,-69.8409 617.6112,-87.8409 590.6112,-105.8409"/>
<text text-anchor="middle" x="590.6112" y="-84.1409" font-family="Times,serif" font-size="14.00" fill="#000000">3</text>
</g>
<!-- thermal33&#45;&#45;bus3 -->
<g id="edge88" class="edge">
<title>thermal33&#45;&#45;bus3</title>
<path fill="none" stroke="#cd853f" stroke-dasharray="5,2" d="M606.5118,-95.4393C616.0414,-99.9932 628.2954,-105.849 638.7376,-110.839"/>
</g>
</g>
</svg>
