<?xml version="1.0" encoding="UTF-8" standalone="no"?>
<!DOCTYPE svg PUBLIC "-//W3C//DTD SVG 1.1//EN"
 "http://www.w3.org/Graphics/SVG/1.1/DTD/svg11.dtd">
<!-- Generated by graphviz version 2.40.1 (20161225.0304)
 -->
<!-- Title: %3 Pages: 1 -->
<svg width="833pt" height="1234pt"
 viewBox="0.00 0.00 833.00 1234.00" xmlns="http://www.w3.org/2000/svg" xmlns:xlink="http://www.w3.org/1999/xlink">
<g id="graph0" class="graph" transform="scale(1 1) rotate(0) translate(4 1230)">
<title>%3</title>
<polygon fill="#ffffff" stroke="transparent" points="-4,4 -4,-1230 829,-1230 829,4 -4,4"/>
<!-- bus1 -->
<g id="node1" class="node">
<title>bus1</title>
<ellipse fill="none" stroke="#000000" cx="529" cy="-439" rx="27" ry="18"/>
<text text-anchor="middle" x="529" y="-435.3" font-family="Times,serif" font-size="14.00" fill="#000000">24</text>
</g>
<!-- bus9 -->
<g id="node9" class="node">
<title>bus9</title>
<ellipse fill="none" stroke="#000000" cx="534" cy="-352" rx="27" ry="18"/>
<text text-anchor="middle" x="534" y="-348.3" font-family="Times,serif" font-size="14.00" fill="#000000">25</text>
</g>
<!-- bus1&#45;&gt;bus9 -->
<g id="edge1" class="edge">
<title>bus1&#45;&gt;bus9</title>
<path fill="none" stroke="#000000" d="M530.036,-420.9735C530.7131,-409.1918 531.6115,-393.5607 532.3817,-380.1581"/>
<polygon fill="#000000" stroke="#000000" points="535.8857,-380.1877 532.9653,-370.0034 528.8972,-379.786 535.8857,-380.1877"/>
<text text-anchor="middle" x="539" y="-391.8" font-family="Times,serif" font-size="14.00" fill="#000000">33</text>
</g>
<!-- load20 -->
<g id="node50" class="node">
<title>load20</title>
<polygon fill="none" stroke="#b03060" points="489,-370 435,-370 435,-334 489,-334 489,-370"/>
<text text-anchor="middle" x="462" y="-348.3" font-family="Times,serif" font-size="14.00" fill="#000000">24</text>
</g>
<!-- bus1&#45;&gt;load20 -->
<g id="edge61" class="edge">
<title>bus1&#45;&gt;load20</title>
<path fill="none" stroke="#b03060" stroke-dasharray="1,5" d="M516.3978,-422.636C506.7648,-410.1274 493.2932,-392.6345 482.1667,-378.1866"/>
<polygon fill="#b03060" stroke="#b03060" points="484.8078,-375.8798 475.9333,-370.0925 479.2618,-380.1509 484.8078,-375.8798"/>
</g>
<!-- bus2 -->
<g id="node2" class="node">
<title>bus2</title>
<ellipse fill="none" stroke="#000000" cx="494" cy="-961" rx="27" ry="18"/>
<text text-anchor="middle" x="494" y="-957.3" font-family="Times,serif" font-size="14.00" fill="#000000">4</text>
</g>
<!-- bus4 -->
<g id="node4" class="node">
<title>bus4</title>
<ellipse fill="none" stroke="#000000" cx="232" cy="-874" rx="27" ry="18"/>
<text text-anchor="middle" x="232" y="-870.3" font-family="Times,serif" font-size="14.00" fill="#000000">12</text>
</g>
<!-- bus2&#45;&gt;bus4 -->
<g id="edge2" class="edge">
<title>bus2&#45;&gt;bus4</title>
<path fill="none" stroke="#000000" d="M472.5665,-949.5507C467.836,-947.2311 462.8021,-944.9179 458,-943 392.2589,-916.7434 312.4606,-894.5333 267.4254,-882.8444"/>
<polygon fill="#000000" stroke="#000000" points="268.1138,-879.4076 257.5572,-880.3074 266.3708,-886.1872 268.1138,-879.4076"/>
<text text-anchor="middle" x="411" y="-913.8" font-family="Times,serif" font-size="14.00" fill="#000000">15</text>
</g>
<!-- bus8 -->
<g id="node8" class="node">
<title>bus8</title>
<ellipse fill="none" stroke="#000000" cx="597" cy="-874" rx="27" ry="18"/>
<text text-anchor="middle" x="597" y="-870.3" font-family="Times,serif" font-size="14.00" fill="#000000">6</text>
</g>
<!-- bus2&#45;&gt;bus8 -->
<g id="edge3" class="edge">
<title>bus2&#45;&gt;bus8</title>
<path fill="none" stroke="#000000" d="M511.0084,-946.6337C527.7071,-932.529 553.3597,-910.8612 572.3039,-894.8598"/>
<polygon fill="#000000" stroke="#000000" points="574.5853,-897.5143 579.9664,-888.3876 570.0684,-892.1666 574.5853,-897.5143"/>
<text text-anchor="middle" x="554.5" y="-913.8" font-family="Times,serif" font-size="14.00" fill="#000000">7</text>
</g>
<!-- load21 -->
<g id="node51" class="node">
<title>load21</title>
<polygon fill="none" stroke="#b03060" points="521,-892 467,-892 467,-856 521,-856 521,-892"/>
<text text-anchor="middle" x="494" y="-870.3" font-family="Times,serif" font-size="14.00" fill="#000000">4</text>
</g>
<!-- bus2&#45;&gt;load21 -->
<g id="edge62" class="edge">
<title>bus2&#45;&gt;load21</title>
<path fill="none" stroke="#b03060" stroke-dasharray="1,5" d="M494,-942.9735C494,-931.1918 494,-915.5607 494,-902.1581"/>
<polygon fill="#b03060" stroke="#b03060" points="497.5001,-902.0033 494,-892.0034 490.5001,-902.0034 497.5001,-902.0033"/>
</g>
<!-- bus3 -->
<g id="node3" class="node">
<title>bus3</title>
<ellipse fill="none" stroke="#000000" cx="494" cy="-1135" rx="27" ry="18"/>
<text text-anchor="middle" x="494" y="-1131.3" font-family="Times,serif" font-size="14.00" fill="#000000">1</text>
</g>
<!-- bus7 -->
<g id="node7" class="node">
<title>bus7</title>
<ellipse fill="none" stroke="#000000" cx="566" cy="-1048" rx="27" ry="18"/>
<text text-anchor="middle" x="566" y="-1044.3" font-family="Times,serif" font-size="14.00" fill="#000000">2</text>
</g>
<!-- bus3&#45;&gt;bus7 -->
<g id="edge4" class="edge">
<title>bus3&#45;&gt;bus7</title>
<path fill="none" stroke="#000000" d="M507.2059,-1119.0429C518.1672,-1105.798 533.9179,-1086.7659 546.3584,-1071.7336"/>
<polygon fill="#000000" stroke="#000000" points="549.1985,-1073.7914 552.8778,-1063.856 543.8057,-1069.3284 549.1985,-1073.7914"/>
<text text-anchor="middle" x="538.5" y="-1087.8" font-family="Times,serif" font-size="14.00" fill="#000000">1</text>
</g>
<!-- bus30 -->
<g id="node30" class="node">
<title>bus30</title>
<ellipse fill="none" stroke="#000000" cx="494" cy="-1048" rx="27" ry="18"/>
<text text-anchor="middle" x="494" y="-1044.3" font-family="Times,serif" font-size="14.00" fill="#000000">3</text>
</g>
<!-- bus3&#45;&gt;bus30 -->
<g id="edge5" class="edge">
<title>bus3&#45;&gt;bus30</title>
<path fill="none" stroke="#000000" d="M494,-1116.9735C494,-1105.1918 494,-1089.5607 494,-1076.1581"/>
<polygon fill="#000000" stroke="#000000" points="497.5001,-1076.0033 494,-1066.0034 490.5001,-1076.0034 497.5001,-1076.0033"/>
<text text-anchor="middle" x="497.5" y="-1087.8" font-family="Times,serif" font-size="14.00" fill="#000000">2</text>
</g>
<!-- bus13 -->
<g id="node13" class="node">
<title>bus13</title>
<ellipse fill="none" stroke="#000000" cx="340" cy="-787" rx="27" ry="18"/>
<text text-anchor="middle" x="340" y="-783.3" font-family="Times,serif" font-size="14.00" fill="#000000">13</text>
</g>
<!-- bus4&#45;&gt;bus13 -->
<g id="edge6" class="edge">
<title>bus4&#45;&gt;bus13</title>
<path fill="none" stroke="#000000" d="M249.3521,-860.0219C267.0655,-845.7528 294.7404,-823.4592 314.8539,-807.2566"/>
<polygon fill="#000000" stroke="#000000" points="317.0991,-809.9423 322.691,-800.9434 312.7078,-804.4911 317.0991,-809.9423"/>
<text text-anchor="middle" x="300" y="-826.8" font-family="Times,serif" font-size="14.00" fill="#000000">16</text>
</g>
<!-- bus15 -->
<g id="node15" class="node">
<title>bus15</title>
<ellipse fill="none" stroke="#000000" cx="137" cy="-700" rx="27" ry="18"/>
<text text-anchor="middle" x="137" y="-696.3" font-family="Times,serif" font-size="14.00" fill="#000000">15</text>
</g>
<!-- bus4&#45;&gt;bus15 -->
<g id="edge9" class="edge">
<title>bus4&#45;&gt;bus15</title>
<path fill="none" stroke="#000000" d="M210.099,-863.1384C189.6585,-851.714 160.2358,-831.6848 146,-805 133.4188,-781.4167 132.2662,-750.5546 133.5954,-728.4019"/>
<polygon fill="#000000" stroke="#000000" points="137.0951,-728.545 134.4081,-718.2966 130.1176,-727.9838 137.0951,-728.545"/>
<text text-anchor="middle" x="153" y="-783.3" font-family="Times,serif" font-size="14.00" fill="#000000">18</text>
</g>
<!-- bus18 -->
<g id="node18" class="node">
<title>bus18</title>
<ellipse fill="none" stroke="#000000" cx="268" cy="-787" rx="27" ry="18"/>
<text text-anchor="middle" x="268" y="-783.3" font-family="Times,serif" font-size="14.00" fill="#000000">16</text>
</g>
<!-- bus4&#45;&gt;bus18 -->
<g id="edge8" class="edge">
<title>bus4&#45;&gt;bus18</title>
<path fill="none" stroke="#000000" d="M239.2851,-856.3943C244.3111,-844.2482 251.0893,-827.8674 256.7982,-814.0711"/>
<polygon fill="#000000" stroke="#000000" points="260.1362,-815.158 260.7257,-804.5796 253.6681,-812.4815 260.1362,-815.158"/>
<text text-anchor="middle" x="260" y="-826.8" font-family="Times,serif" font-size="14.00" fill="#000000">19</text>
</g>
<!-- bus19 -->
<g id="node19" class="node">
<title>bus19</title>
<ellipse fill="none" stroke="#000000" cx="74" cy="-787" rx="27" ry="18"/>
<text text-anchor="middle" x="74" y="-783.3" font-family="Times,serif" font-size="14.00" fill="#000000">14</text>
</g>
<!-- bus4&#45;&gt;bus19 -->
<g id="edge7" class="edge">
<title>bus4&#45;&gt;bus19</title>
<path fill="none" stroke="#000000" d="M205.2438,-871.4216C178.6677,-867.7287 137.8278,-858.8882 109,-838 100.1302,-831.5731 92.7722,-822.1713 87.1294,-813.1854"/>
<polygon fill="#000000" stroke="#000000" points="90.1137,-811.3547 82.0658,-804.4638 84.06,-814.8693 90.1137,-811.3547"/>
<text text-anchor="middle" x="116" y="-826.8" font-family="Times,serif" font-size="14.00" fill="#000000">17</text>
</g>
<!-- load15 -->
<g id="node45" class="node">
<title>load15</title>
<polygon fill="none" stroke="#b03060" points="223,-805 169,-805 169,-769 223,-769 223,-805"/>
<text text-anchor="middle" x="196" y="-783.3" font-family="Times,serif" font-size="14.00" fill="#000000">12</text>
</g>
<!-- bus4&#45;&gt;load15 -->
<g id="edge56" class="edge">
<title>bus4&#45;&gt;load15</title>
<path fill="none" stroke="#b03060" stroke-dasharray="1,5" d="M224.7149,-856.3943C219.755,-844.408 213.0887,-828.2978 207.4277,-814.617"/>
<polygon fill="#b03060" stroke="#b03060" points="210.5798,-813.0804 203.5221,-805.1785 204.1116,-815.7569 210.5798,-813.0804"/>
</g>
<!-- bus5 -->
<g id="node5" class="node">
<title>bus5</title>
<ellipse fill="none" stroke="#000000" cx="475" cy="-178" rx="27" ry="18"/>
<text text-anchor="middle" x="475" y="-174.3" font-family="Times,serif" font-size="14.00" fill="#000000">29</text>
</g>
<!-- bus29 -->
<g id="node29" class="node">
<title>bus29</title>
<ellipse fill="none" stroke="#000000" cx="538" cy="-91" rx="27" ry="18"/>
<text text-anchor="middle" x="538" y="-87.3" font-family="Times,serif" font-size="14.00" fill="#000000">30</text>
</g>
<!-- bus5&#45;&gt;bus29 -->
<g id="edge10" class="edge">
<title>bus5&#45;&gt;bus29</title>
<path fill="none" stroke="#000000" d="M486.1024,-161.288C492.8645,-151.2454 501.7613,-138.27 510,-127 512.8854,-123.0529 516.008,-118.9154 519.0854,-114.909"/>
<polygon fill="#000000" stroke="#000000" points="521.8795,-117.0174 525.2483,-106.9724 516.3506,-112.7241 521.8795,-117.0174"/>
<text text-anchor="middle" x="517" y="-130.8" font-family="Times,serif" font-size="14.00" fill="#000000">39</text>
</g>
<!-- load4 -->
<g id="node34" class="node">
<title>load4</title>
<polygon fill="none" stroke="#b03060" points="493,-109 439,-109 439,-73 493,-73 493,-109"/>
<text text-anchor="middle" x="466" y="-87.3" font-family="Times,serif" font-size="14.00" fill="#000000">29</text>
</g>
<!-- bus5&#45;&gt;load4 -->
<g id="edge45" class="edge">
<title>bus5&#45;&gt;load4</title>
<path fill="none" stroke="#b03060" stroke-dasharray="1,5" d="M473.1352,-159.9735C471.9164,-148.1918 470.2994,-132.5607 468.9129,-119.1581"/>
<polygon fill="#b03060" stroke="#b03060" points="472.3729,-118.5901 467.8624,-109.0034 465.4101,-119.3105 472.3729,-118.5901"/>
</g>
<!-- bus6 -->
<g id="node6" class="node">
<title>bus6</title>
<ellipse fill="none" stroke="#000000" cx="190" cy="-439" rx="27" ry="18"/>
<text text-anchor="middle" x="190" y="-435.3" font-family="Times,serif" font-size="14.00" fill="#000000">20</text>
</g>
<!-- load10 -->
<g id="node40" class="node">
<title>load10</title>
<polygon fill="none" stroke="#b03060" points="217,-370 163,-370 163,-334 217,-334 217,-370"/>
<text text-anchor="middle" x="190" y="-348.3" font-family="Times,serif" font-size="14.00" fill="#000000">20</text>
</g>
<!-- bus6&#45;&gt;load10 -->
<g id="edge51" class="edge">
<title>bus6&#45;&gt;load10</title>
<path fill="none" stroke="#b03060" stroke-dasharray="1,5" d="M190,-420.9735C190,-409.1918 190,-393.5607 190,-380.1581"/>
<polygon fill="#b03060" stroke="#b03060" points="193.5001,-380.0033 190,-370.0034 186.5001,-380.0034 193.5001,-380.0033"/>
</g>
<!-- bus7&#45;&gt;bus2 -->
<g id="edge13" class="edge">
<title>bus7&#45;&gt;bus2</title>
<path fill="none" stroke="#000000" d="M552.7941,-1032.0429C541.8328,-1018.798 526.0821,-999.7659 513.6416,-984.7336"/>
<polygon fill="#000000" stroke="#000000" points="516.1943,-982.3284 507.1222,-976.856 510.8015,-986.7914 516.1943,-982.3284"/>
<text text-anchor="middle" x="538.5" y="-1000.8" font-family="Times,serif" font-size="14.00" fill="#000000">3</text>
</g>
<!-- bus7&#45;&gt;bus8 -->
<g id="edge11" class="edge">
<title>bus7&#45;&gt;bus8</title>
<path fill="none" stroke="#000000" d="M577.4492,-1031.6168C586.1021,-1018.1784 597.2702,-998.2906 602,-979 608.2459,-953.5261 605.903,-923.5614 602.6463,-902.1768"/>
<polygon fill="#000000" stroke="#000000" points="606.0674,-901.4152 600.9545,-892.1358 599.1647,-902.5783 606.0674,-901.4152"/>
<text text-anchor="middle" x="608.5" y="-957.3" font-family="Times,serif" font-size="14.00" fill="#000000">6</text>
</g>
<!-- bus14 -->
<g id="node14" class="node">
<title>bus14</title>
<ellipse fill="none" stroke="#000000" cx="746" cy="-961" rx="27" ry="18"/>
<text text-anchor="middle" x="746" y="-957.3" font-family="Times,serif" font-size="14.00" fill="#000000">5</text>
</g>
<!-- bus7&#45;&gt;bus14 -->
<g id="edge12" class="edge">
<title>bus7&#45;&gt;bus14</title>
<path fill="none" stroke="#000000" d="M588.3013,-1037.734C603.7082,-1030.6025 624.6499,-1020.8312 643,-1012 667.3693,-1000.2719 694.8057,-986.667 715.2308,-976.46"/>
<polygon fill="#000000" stroke="#000000" points="716.9914,-979.4927 724.3674,-971.8871 713.8584,-973.233 716.9914,-979.4927"/>
<text text-anchor="middle" x="674.5" y="-1000.8" font-family="Times,serif" font-size="14.00" fill="#000000">5</text>
</g>
<!-- load2 -->
<g id="node32" class="node">
<title>load2</title>
<polygon fill="none" stroke="#b03060" points="593,-979 539,-979 539,-943 593,-943 593,-979"/>
<text text-anchor="middle" x="566" y="-957.3" font-family="Times,serif" font-size="14.00" fill="#000000">2</text>
</g>
<!-- bus7&#45;&gt;load2 -->
<g id="edge43" class="edge">
<title>bus7&#45;&gt;load2</title>
<path fill="none" stroke="#b03060" stroke-dasharray="1,5" d="M566,-1029.9735C566,-1018.1918 566,-1002.5607 566,-989.1581"/>
<polygon fill="#b03060" stroke="#b03060" points="569.5001,-989.0033 566,-979.0034 562.5001,-989.0034 569.5001,-989.0033"/>
</g>
<!-- bus17 -->
<g id="node17" class="node">
<title>bus17</title>
<ellipse fill="none" stroke="#000000" cx="597" cy="-700" rx="27" ry="18"/>
<text text-anchor="middle" x="597" y="-696.3" font-family="Times,serif" font-size="14.00" fill="#000000">28</text>
</g>
<!-- bus8&#45;&gt;bus17 -->
<g id="edge16" class="edge">
<title>bus8&#45;&gt;bus17</title>
<path fill="none" stroke="#000000" d="M597,-855.7078C597,-825.3436 597,-764.3226 597,-728.3464"/>
<polygon fill="#000000" stroke="#000000" points="600.5001,-728.0471 597,-718.0471 593.5001,-728.0471 600.5001,-728.0471"/>
<text text-anchor="middle" x="604" y="-783.3" font-family="Times,serif" font-size="14.00" fill="#000000">41</text>
</g>
<!-- bus21 -->
<g id="node21" class="node">
<title>bus21</title>
<ellipse fill="none" stroke="#000000" cx="741" cy="-787" rx="27" ry="18"/>
<text text-anchor="middle" x="741" y="-783.3" font-family="Times,serif" font-size="14.00" fill="#000000">7</text>
</g>
<!-- bus8&#45;&gt;bus21 -->
<g id="edge18" class="edge">
<title>bus8&#45;&gt;bus21</title>
<path fill="none" stroke="#000000" d="M617.0226,-861.903C641.708,-846.9889 683.8479,-821.5294 712.0546,-804.4878"/>
<polygon fill="#000000" stroke="#000000" points="713.934,-807.4416 720.6832,-799.2747 710.3142,-801.4502 713.934,-807.4416"/>
<text text-anchor="middle" x="680.5" y="-826.8" font-family="Times,serif" font-size="14.00" fill="#000000">9</text>
</g>
<!-- bus22 -->
<g id="node22" class="node">
<title>bus22</title>
<ellipse fill="none" stroke="#000000" cx="663" cy="-787" rx="27" ry="18"/>
<text text-anchor="middle" x="663" y="-783.3" font-family="Times,serif" font-size="14.00" fill="#000000">8</text>
</g>
<!-- bus8&#45;&gt;bus22 -->
<g id="edge17" class="edge">
<title>bus8&#45;&gt;bus22</title>
<path fill="none" stroke="#000000" d="M607.4588,-857.0564C613.9119,-846.9317 622.5476,-833.9513 631,-823 634.3003,-818.724 637.9724,-814.3139 641.6186,-810.1096"/>
<polygon fill="#000000" stroke="#000000" points="644.4707,-812.169 648.4938,-802.3677 639.2366,-807.5209 644.4707,-812.169"/>
<text text-anchor="middle" x="638" y="-826.8" font-family="Times,serif" font-size="14.00" fill="#000000">10</text>
</g>
<!-- bus25 -->
<g id="node25" class="node">
<title>bus25</title>
<ellipse fill="none" stroke="#000000" cx="403" cy="-700" rx="27" ry="18"/>
<text text-anchor="middle" x="403" y="-696.3" font-family="Times,serif" font-size="14.00" fill="#000000">10</text>
</g>
<!-- bus8&#45;&gt;bus25 -->
<g id="edge14" class="edge">
<title>bus8&#45;&gt;bus25</title>
<path fill="none" stroke="#000000" d="M572.2159,-866.3806C524.1573,-851.3765 422.1088,-818.307 412,-805 395.471,-783.2416 395.1646,-751.1344 397.7781,-728.1585"/>
<polygon fill="#000000" stroke="#000000" points="401.2791,-728.393 399.1867,-718.0068 394.3455,-727.4308 401.2791,-728.393"/>
<text text-anchor="middle" x="419" y="-783.3" font-family="Times,serif" font-size="14.00" fill="#000000">12</text>
</g>
<!-- bus27 -->
<g id="node27" class="node">
<title>bus27</title>
<ellipse fill="none" stroke="#000000" cx="462" cy="-787" rx="27" ry="18"/>
<text text-anchor="middle" x="462" y="-783.3" font-family="Times,serif" font-size="14.00" fill="#000000">9</text>
</g>
<!-- bus8&#45;&gt;bus27 -->
<g id="edge15" class="edge">
<title>bus8&#45;&gt;bus27</title>
<path fill="none" stroke="#000000" d="M577.3698,-861.3495C554.4743,-846.5945 516.4398,-822.0835 490.3426,-805.2652"/>
<polygon fill="#000000" stroke="#000000" points="491.9555,-802.1409 481.6539,-799.6658 488.1636,-808.0249 491.9555,-802.1409"/>
<text text-anchor="middle" x="545" y="-826.8" font-family="Times,serif" font-size="14.00" fill="#000000">11</text>
</g>
<!-- bus16 -->
<g id="node16" class="node">
<title>bus16</title>
<ellipse fill="none" stroke="#000000" cx="531" cy="-265" rx="27" ry="18"/>
<text text-anchor="middle" x="531" y="-261.3" font-family="Times,serif" font-size="14.00" fill="#000000">27</text>
</g>
<!-- bus9&#45;&gt;bus16 -->
<g id="edge19" class="edge">
<title>bus9&#45;&gt;bus16</title>
<path fill="none" stroke="#000000" d="M532.8554,-333.6918C532.5353,-328.0228 532.2162,-321.7548 532,-316 531.7275,-308.7461 531.5269,-300.9088 531.3802,-293.6054"/>
<polygon fill="#000000" stroke="#000000" points="534.8765,-293.3544 531.2017,-283.4173 527.8776,-293.4771 534.8765,-293.3544"/>
<text text-anchor="middle" x="539" y="-304.8" font-family="Times,serif" font-size="14.00" fill="#000000">35</text>
</g>
<!-- bus23 -->
<g id="node23" class="node">
<title>bus23</title>
<ellipse fill="none" stroke="#000000" cx="603" cy="-265" rx="27" ry="18"/>
<text text-anchor="middle" x="603" y="-261.3" font-family="Times,serif" font-size="14.00" fill="#000000">26</text>
</g>
<!-- bus9&#45;&gt;bus23 -->
<g id="edge20" class="edge">
<title>bus9&#45;&gt;bus23</title>
<path fill="none" stroke="#000000" d="M546.6557,-336.0429C557.0945,-322.8808 572.0661,-304.0036 583.9529,-289.0159"/>
<polygon fill="#000000" stroke="#000000" points="586.7192,-291.1605 590.1909,-281.1506 581.2347,-286.8107 586.7192,-291.1605"/>
<text text-anchor="middle" x="579" y="-304.8" font-family="Times,serif" font-size="14.00" fill="#000000">34</text>
</g>
<!-- bus10 -->
<g id="node10" class="node">
<title>bus10</title>
<ellipse fill="none" stroke="#000000" cx="209" cy="-613" rx="27" ry="18"/>
<text text-anchor="middle" x="209" y="-609.3" font-family="Times,serif" font-size="14.00" fill="#000000">23</text>
</g>
<!-- bus10&#45;&gt;bus1 -->
<g id="edge21" class="edge">
<title>bus10&#45;&gt;bus1</title>
<path fill="none" stroke="#000000" d="M216.4271,-595.274C227.1881,-571.7667 249.351,-530.6204 281,-508 345.6294,-461.8075 440.0744,-446.4961 491.7707,-441.4517"/>
<polygon fill="#000000" stroke="#000000" points="492.1763,-444.9294 501.8229,-440.5485 491.5498,-437.9575 492.1763,-444.9294"/>
<text text-anchor="middle" x="288" y="-522.3" font-family="Times,serif" font-size="14.00" fill="#000000">32</text>
</g>
<!-- load16 -->
<g id="node46" class="node">
<title>load16</title>
<polygon fill="none" stroke="#b03060" points="198,-544 144,-544 144,-508 198,-508 198,-544"/>
<text text-anchor="middle" x="171" y="-522.3" font-family="Times,serif" font-size="14.00" fill="#000000">23</text>
</g>
<!-- bus10&#45;&gt;load16 -->
<g id="edge57" class="edge">
<title>bus10&#45;&gt;load16</title>
<path fill="none" stroke="#b03060" stroke-dasharray="1,5" d="M201.3101,-595.3943C196.0748,-583.408 189.0381,-567.2978 183.0626,-553.617"/>
<polygon fill="#b03060" stroke="#b03060" points="186.1501,-551.9415 178.94,-544.1785 179.7353,-554.7434 186.1501,-551.9415"/>
</g>
<!-- bus11 -->
<g id="node11" class="node">
<title>bus11</title>
<ellipse fill="none" stroke="#000000" cx="536" cy="-526" rx="27" ry="18"/>
<text text-anchor="middle" x="536" y="-522.3" font-family="Times,serif" font-size="14.00" fill="#000000">22</text>
</g>
<!-- bus11&#45;&gt;bus1 -->
<g id="edge22" class="edge">
<title>bus11&#45;&gt;bus1</title>
<path fill="none" stroke="#000000" d="M534.5496,-507.9735C533.6016,-496.1918 532.344,-480.5607 531.2656,-467.1581"/>
<polygon fill="#000000" stroke="#000000" points="534.7394,-466.6904 530.4485,-457.0034 527.7619,-467.2519 534.7394,-466.6904"/>
<text text-anchor="middle" x="540" y="-478.8" font-family="Times,serif" font-size="14.00" fill="#000000">31</text>
</g>
<!-- bus12 -->
<g id="node12" class="node">
<title>bus12</title>
<ellipse fill="none" stroke="#000000" cx="507" cy="-700" rx="27" ry="18"/>
<text text-anchor="middle" x="507" y="-696.3" font-family="Times,serif" font-size="14.00" fill="#000000">11</text>
</g>
<!-- bus14&#45;&gt;bus21 -->
<g id="edge23" class="edge">
<title>bus14&#45;&gt;bus21</title>
<path fill="none" stroke="#000000" d="M745.4744,-942.7078C744.6018,-912.3436 742.8484,-851.3226 741.8146,-815.3464"/>
<polygon fill="#000000" stroke="#000000" points="745.3045,-814.9424 741.5186,-805.0471 738.3074,-815.1435 745.3045,-814.9424"/>
<text text-anchor="middle" x="746.5" y="-870.3" font-family="Times,serif" font-size="14.00" fill="#000000">8</text>
</g>
<!-- load1 -->
<g id="node31" class="node">
<title>load1</title>
<polygon fill="none" stroke="#b03060" points="825,-892 771,-892 771,-856 825,-856 825,-892"/>
<text text-anchor="middle" x="798" y="-870.3" font-family="Times,serif" font-size="14.00" fill="#000000">5</text>
</g>
<!-- bus14&#45;&gt;load1 -->
<g id="edge42" class="edge">
<title>bus14&#45;&gt;load1</title>
<path fill="none" stroke="#b03060" stroke-dasharray="1,5" d="M756.0261,-944.2255C763.3375,-931.9931 773.4003,-915.1571 781.8403,-901.0364"/>
<polygon fill="#b03060" stroke="#b03060" points="784.9808,-902.6041 787.107,-892.2248 778.9723,-899.0128 784.9808,-902.6041"/>
</g>
<!-- bus15&#45;&gt;bus10 -->
<g id="edge25" class="edge">
<title>bus15&#45;&gt;bus10</title>
<path fill="none" stroke="#000000" d="M150.2059,-684.0429C161.1672,-670.798 176.9179,-651.7659 189.3584,-636.7336"/>
<polygon fill="#000000" stroke="#000000" points="192.1985,-638.7914 195.8778,-628.856 186.8057,-634.3284 192.1985,-638.7914"/>
<text text-anchor="middle" x="185" y="-652.8" font-family="Times,serif" font-size="14.00" fill="#000000">30</text>
</g>
<!-- bus28 -->
<g id="node28" class="node">
<title>bus28</title>
<ellipse fill="none" stroke="#000000" cx="65" cy="-613" rx="27" ry="18"/>
<text text-anchor="middle" x="65" y="-609.3" font-family="Times,serif" font-size="14.00" fill="#000000">18</text>
</g>
<!-- bus15&#45;&gt;bus28 -->
<g id="edge24" class="edge">
<title>bus15&#45;&gt;bus28</title>
<path fill="none" stroke="#000000" d="M123.7941,-684.0429C112.8328,-670.798 97.0821,-651.7659 84.6416,-636.7336"/>
<polygon fill="#000000" stroke="#000000" points="87.1943,-634.3284 78.1222,-628.856 81.8015,-638.7914 87.1943,-634.3284"/>
<text text-anchor="middle" x="113" y="-652.8" font-family="Times,serif" font-size="14.00" fill="#000000">22</text>
</g>
<!-- load17 -->
<g id="node47" class="node">
<title>load17</title>
<polygon fill="none" stroke="#b03060" points="164,-631 110,-631 110,-595 164,-595 164,-631"/>
<text text-anchor="middle" x="137" y="-609.3" font-family="Times,serif" font-size="14.00" fill="#000000">15</text>
</g>
<!-- bus15&#45;&gt;load17 -->
<g id="edge58" class="edge">
<title>bus15&#45;&gt;load17</title>
<path fill="none" stroke="#b03060" stroke-dasharray="1,5" d="M137,-681.9735C137,-670.1918 137,-654.5607 137,-641.1581"/>
<polygon fill="#b03060" stroke="#b03060" points="140.5001,-641.0033 137,-631.0034 133.5001,-641.0034 140.5001,-641.0033"/>
</g>
<!-- bus16&#45;&gt;bus5 -->
<g id="edge27" class="edge">
<title>bus16&#45;&gt;bus5</title>
<path fill="none" stroke="#000000" d="M520.2026,-248.2255C511.9907,-235.4677 500.5556,-217.7024 491.2416,-203.2325"/>
<polygon fill="#000000" stroke="#000000" points="494.1198,-201.2373 485.7642,-194.723 488.2337,-205.026 494.1198,-201.2373"/>
<text text-anchor="middle" x="514" y="-217.8" font-family="Times,serif" font-size="14.00" fill="#000000">37</text>
</g>
<!-- bus16&#45;&gt;bus29 -->
<g id="edge26" class="edge">
<title>bus16&#45;&gt;bus29</title>
<path fill="none" stroke="#000000" d="M531.7359,-246.7078C532.9574,-216.3436 535.4123,-155.3226 536.8596,-119.3464"/>
<polygon fill="#000000" stroke="#000000" points="540.3691,-119.1797 537.274,-109.0471 533.3747,-118.8983 540.3691,-119.1797"/>
<text text-anchor="middle" x="543" y="-174.3" font-family="Times,serif" font-size="14.00" fill="#000000">38</text>
</g>
<!-- bus17&#45;&gt;bus16 -->
<g id="edge28" class="edge">
<title>bus17&#45;&gt;bus16</title>
<path fill="none" stroke="#000000" d="M597,-681.6694C597,-664.0629 597,-636.7135 597,-613 597,-613 597,-613 597,-352 597,-328.4948 596.5919,-320.1769 583,-301 577.4047,-293.1055 569.4997,-286.3802 561.5381,-280.9546"/>
<polygon fill="#000000" stroke="#000000" points="563.3136,-277.9368 552.9834,-275.5836 559.5914,-283.8651 563.3136,-277.9368"/>
<text text-anchor="middle" x="604" y="-478.8" font-family="Times,serif" font-size="14.00" fill="#000000">36</text>
</g>
<!-- bus24 -->
<g id="node24" class="node">
<title>bus24</title>
<ellipse fill="none" stroke="#000000" cx="331" cy="-613" rx="27" ry="18"/>
<text text-anchor="middle" x="331" y="-609.3" font-family="Times,serif" font-size="14.00" fill="#000000">17</text>
</g>
<!-- bus18&#45;&gt;bus24 -->
<g id="edge29" class="edge">
<title>bus18&#45;&gt;bus24</title>
<path fill="none" stroke="#000000" d="M278.1527,-770.211C286.0721,-756.5429 296.8864,-736.5444 304,-718 313.6884,-692.7435 321.0083,-662.752 325.5655,-641.3022"/>
<polygon fill="#000000" stroke="#000000" points="329.0515,-641.7258 327.6368,-631.2258 322.1949,-640.3162 329.0515,-641.7258"/>
<text text-anchor="middle" x="323" y="-696.3" font-family="Times,serif" font-size="14.00" fill="#000000">21</text>
</g>
<!-- load7 -->
<g id="node37" class="node">
<title>load7</title>
<polygon fill="none" stroke="#b03060" points="295,-718 241,-718 241,-682 295,-682 295,-718"/>
<text text-anchor="middle" x="268" y="-696.3" font-family="Times,serif" font-size="14.00" fill="#000000">16</text>
</g>
<!-- bus18&#45;&gt;load7 -->
<g id="edge48" class="edge">
<title>bus18&#45;&gt;load7</title>
<path fill="none" stroke="#b03060" stroke-dasharray="1,5" d="M268,-768.9735C268,-757.1918 268,-741.5607 268,-728.1581"/>
<polygon fill="#b03060" stroke="#b03060" points="271.5001,-728.0033 268,-718.0034 264.5001,-728.0034 271.5001,-728.0033"/>
</g>
<!-- bus19&#45;&gt;bus15 -->
<g id="edge30" class="edge">
<title>bus19&#45;&gt;bus15</title>
<path fill="none" stroke="#000000" d="M85.1024,-770.288C91.8645,-760.2454 100.7613,-747.27 109,-736 111.8854,-732.0529 115.008,-727.9154 118.0854,-723.909"/>
<polygon fill="#000000" stroke="#000000" points="120.8795,-726.0174 124.2483,-715.9724 115.3506,-721.7241 120.8795,-726.0174"/>
<text text-anchor="middle" x="116" y="-739.8" font-family="Times,serif" font-size="14.00" fill="#000000">20</text>
</g>
<!-- load19 -->
<g id="node49" class="node">
<title>load19</title>
<polygon fill="none" stroke="#b03060" points="92,-718 38,-718 38,-682 92,-682 92,-718"/>
<text text-anchor="middle" x="65" y="-696.3" font-family="Times,serif" font-size="14.00" fill="#000000">14</text>
</g>
<!-- bus19&#45;&gt;load19 -->
<g id="edge60" class="edge">
<title>bus19&#45;&gt;load19</title>
<path fill="none" stroke="#b03060" stroke-dasharray="1,5" d="M72.1352,-768.9735C70.9164,-757.1918 69.2994,-741.5607 67.9129,-728.1581"/>
<polygon fill="#b03060" stroke="#b03060" points="71.3729,-727.5901 66.8624,-718.0034 64.4101,-728.3105 71.3729,-727.5901"/>
</g>
<!-- bus20 -->
<g id="node20" class="node">
<title>bus20</title>
<ellipse fill="none" stroke="#000000" cx="475" cy="-613" rx="27" ry="18"/>
<text text-anchor="middle" x="475" y="-609.3" font-family="Times,serif" font-size="14.00" fill="#000000">21</text>
</g>
<!-- bus20&#45;&gt;bus11 -->
<g id="edge31" class="edge">
<title>bus20&#45;&gt;bus11</title>
<path fill="none" stroke="#000000" d="M486.249,-596.3932C493.063,-586.3879 501.963,-573.4147 510,-562 512.6173,-558.2827 515.4084,-554.3678 518.1543,-550.5436"/>
<polygon fill="#000000" stroke="#000000" points="520.9965,-552.5862 524.0085,-542.4285 515.3195,-548.4908 520.9965,-552.5862"/>
<text text-anchor="middle" x="517" y="-565.8" font-family="Times,serif" font-size="14.00" fill="#000000">29</text>
</g>
<!-- load11 -->
<g id="node41" class="node">
<title>load11</title>
<polygon fill="none" stroke="#b03060" points="491,-544 437,-544 437,-508 491,-508 491,-544"/>
<text text-anchor="middle" x="464" y="-522.3" font-family="Times,serif" font-size="14.00" fill="#000000">21</text>
</g>
<!-- bus20&#45;&gt;load11 -->
<g id="edge52" class="edge">
<title>bus20&#45;&gt;load11</title>
<path fill="none" stroke="#b03060" stroke-dasharray="1,5" d="M472.7208,-594.9735C471.2311,-583.1918 469.2548,-567.5607 467.5602,-554.1581"/>
<polygon fill="#b03060" stroke="#b03060" points="471.0031,-553.4853 466.2763,-544.0034 464.0584,-554.3634 471.0031,-553.4853"/>
</g>
<!-- load9 -->
<g id="node39" class="node">
<title>load9</title>
<polygon fill="none" stroke="#b03060" points="768,-718 714,-718 714,-682 768,-682 768,-718"/>
<text text-anchor="middle" x="741" y="-696.3" font-family="Times,serif" font-size="14.00" fill="#000000">7</text>
</g>
<!-- bus21&#45;&gt;load9 -->
<g id="edge50" class="edge">
<title>bus21&#45;&gt;load9</title>
<path fill="none" stroke="#b03060" stroke-dasharray="1,5" d="M741,-768.9735C741,-757.1918 741,-741.5607 741,-728.1581"/>
<polygon fill="#b03060" stroke="#b03060" points="744.5001,-728.0033 741,-718.0034 737.5001,-728.0034 744.5001,-728.0033"/>
</g>
<!-- bus22&#45;&gt;bus17 -->
<g id="edge32" class="edge">
<title>bus22&#45;&gt;bus17</title>
<path fill="none" stroke="#000000" d="M650.5859,-770.636C640.722,-757.6336 626.7726,-739.2457 615.5789,-724.4904"/>
<polygon fill="#000000" stroke="#000000" points="618.1908,-722.1422 609.3584,-716.2907 612.6139,-726.373 618.1908,-722.1422"/>
<text text-anchor="middle" x="640" y="-739.8" font-family="Times,serif" font-size="14.00" fill="#000000">40</text>
</g>
<!-- load6 -->
<g id="node36" class="node">
<title>load6</title>
<polygon fill="none" stroke="#b03060" points="696,-718 642,-718 642,-682 696,-682 696,-718"/>
<text text-anchor="middle" x="669" y="-696.3" font-family="Times,serif" font-size="14.00" fill="#000000">8</text>
</g>
<!-- bus22&#45;&gt;load6 -->
<g id="edge47" class="edge">
<title>bus22&#45;&gt;load6</title>
<path fill="none" stroke="#b03060" stroke-dasharray="1,5" d="M664.2432,-768.9735C665.0557,-757.1918 666.1337,-741.5607 667.0581,-728.1581"/>
<polygon fill="#b03060" stroke="#b03060" points="670.562,-728.2205 667.7584,-718.0034 663.5786,-727.7388 670.562,-728.2205"/>
</g>
<!-- load18 -->
<g id="node48" class="node">
<title>load18</title>
<polygon fill="none" stroke="#b03060" points="630,-196 576,-196 576,-160 630,-160 630,-196"/>
<text text-anchor="middle" x="603" y="-174.3" font-family="Times,serif" font-size="14.00" fill="#000000">26</text>
</g>
<!-- bus23&#45;&gt;load18 -->
<g id="edge59" class="edge">
<title>bus23&#45;&gt;load18</title>
<path fill="none" stroke="#b03060" stroke-dasharray="1,5" d="M603,-246.9735C603,-235.1918 603,-219.5607 603,-206.1581"/>
<polygon fill="#b03060" stroke="#b03060" points="606.5001,-206.0033 603,-196.0034 599.5001,-206.0034 606.5001,-206.0033"/>
</g>
<!-- load3 -->
<g id="node33" class="node">
<title>load3</title>
<polygon fill="none" stroke="#b03060" points="358,-544 304,-544 304,-508 358,-508 358,-544"/>
<text text-anchor="middle" x="331" y="-522.3" font-family="Times,serif" font-size="14.00" fill="#000000">17</text>
</g>
<!-- bus24&#45;&gt;load3 -->
<g id="edge44" class="edge">
<title>bus24&#45;&gt;load3</title>
<path fill="none" stroke="#b03060" stroke-dasharray="1,5" d="M331,-594.9735C331,-583.1918 331,-567.5607 331,-554.1581"/>
<polygon fill="#b03060" stroke="#b03060" points="334.5001,-554.0033 331,-544.0034 327.5001,-554.0034 334.5001,-554.0033"/>
</g>
<!-- bus25&#45;&gt;bus6 -->
<g id="edge33" class="edge">
<title>bus25&#45;&gt;bus6</title>
<path fill="none" stroke="#000000" d="M379.535,-691.0766C354.8214,-680.4759 316.5626,-660.4377 295,-631 261.5541,-585.339 290.8276,-556.7086 262,-508 250.5421,-488.6401 232.1665,-471.1569 216.8474,-458.633"/>
<polygon fill="#000000" stroke="#000000" points="218.7303,-455.66 208.7146,-452.2051 214.3898,-461.1518 218.7303,-455.66"/>
<text text-anchor="middle" x="284" y="-565.8" font-family="Times,serif" font-size="14.00" fill="#000000">25</text>
</g>
<!-- bus25&#45;&gt;bus11 -->
<g id="edge35" class="edge">
<title>bus25&#45;&gt;bus11</title>
<path fill="none" stroke="#000000" d="M426.753,-691.282C451.7129,-680.8571 490.1807,-660.968 511,-631 526.7827,-608.2819 532.6763,-576.8498 534.8378,-554.3077"/>
<polygon fill="#000000" stroke="#000000" points="538.3274,-554.5765 535.6084,-544.3365 531.3482,-554.0371 538.3274,-554.5765"/>
<text text-anchor="middle" x="535" y="-609.3" font-family="Times,serif" font-size="14.00" fill="#000000">28</text>
</g>
<!-- bus25&#45;&gt;bus20 -->
<g id="edge34" class="edge">
<title>bus25&#45;&gt;bus20</title>
<path fill="none" stroke="#000000" d="M416.2059,-684.0429C427.1672,-670.798 442.9179,-651.7659 455.3584,-636.7336"/>
<polygon fill="#000000" stroke="#000000" points="458.1985,-638.7914 461.8778,-628.856 452.8057,-634.3284 458.1985,-638.7914"/>
<text text-anchor="middle" x="451" y="-652.8" font-family="Times,serif" font-size="14.00" fill="#000000">27</text>
</g>
<!-- bus25&#45;&gt;bus24 -->
<g id="edge36" class="edge">
<title>bus25&#45;&gt;bus24</title>
<path fill="none" stroke="#000000" d="M389.7941,-684.0429C378.8328,-670.798 363.0821,-651.7659 350.6416,-636.7336"/>
<polygon fill="#000000" stroke="#000000" points="353.1943,-634.3284 344.1222,-628.856 347.8015,-638.7914 353.1943,-634.3284"/>
<text text-anchor="middle" x="379" y="-652.8" font-family="Times,serif" font-size="14.00" fill="#000000">26</text>
</g>
<!-- load14 -->
<g id="node44" class="node">
<title>load14</title>
<polygon fill="none" stroke="#b03060" points="430,-631 376,-631 376,-595 430,-595 430,-631"/>
<text text-anchor="middle" x="403" y="-609.3" font-family="Times,serif" font-size="14.00" fill="#000000">10</text>
</g>
<!-- bus25&#45;&gt;load14 -->
<g id="edge55" class="edge">
<title>bus25&#45;&gt;load14</title>
<path fill="none" stroke="#b03060" stroke-dasharray="1,5" d="M403,-681.9735C403,-670.1918 403,-654.5607 403,-641.1581"/>
<polygon fill="#b03060" stroke="#b03060" points="406.5001,-641.0033 403,-631.0034 399.5001,-641.0034 406.5001,-641.0033"/>
</g>
<!-- bus26 -->
<g id="node26" class="node">
<title>bus26</title>
<ellipse fill="none" stroke="#000000" cx="27" cy="-526" rx="27" ry="18"/>
<text text-anchor="middle" x="27" y="-522.3" font-family="Times,serif" font-size="14.00" fill="#000000">19</text>
</g>
<!-- bus26&#45;&gt;bus6 -->
<g id="edge37" class="edge">
<title>bus26&#45;&gt;bus6</title>
<path fill="none" stroke="#000000" d="M48.3094,-514.6263C76.7416,-499.4508 127.2557,-472.4893 159.658,-455.1948"/>
<polygon fill="#000000" stroke="#000000" points="161.5114,-458.173 168.6854,-450.3765 158.2153,-451.9976 161.5114,-458.173"/>
<text text-anchor="middle" x="126" y="-478.8" font-family="Times,serif" font-size="14.00" fill="#000000">24</text>
</g>
<!-- load12 -->
<g id="node42" class="node">
<title>load12</title>
<polygon fill="none" stroke="#b03060" points="54,-457 0,-457 0,-421 54,-421 54,-457"/>
<text text-anchor="middle" x="27" y="-435.3" font-family="Times,serif" font-size="14.00" fill="#000000">19</text>
</g>
<!-- bus26&#45;&gt;load12 -->
<g id="edge53" class="edge">
<title>bus26&#45;&gt;load12</title>
<path fill="none" stroke="#b03060" stroke-dasharray="1,5" d="M27,-507.9735C27,-496.1918 27,-480.5607 27,-467.1581"/>
<polygon fill="#b03060" stroke="#b03060" points="30.5001,-467.0033 27,-457.0034 23.5001,-467.0034 30.5001,-467.0033"/>
</g>
<!-- bus27&#45;&gt;bus12 -->
<g id="edge38" class="edge">
<title>bus27&#45;&gt;bus12</title>
<path fill="none" stroke="#000000" d="M470.8906,-769.8116C477.3005,-757.4191 486.0708,-740.4631 493.3629,-726.3651"/>
<polygon fill="#000000" stroke="#000000" points="496.6424,-727.6429 498.1279,-717.1527 490.4249,-724.4269 496.6424,-727.6429"/>
<text text-anchor="middle" x="495" y="-739.8" font-family="Times,serif" font-size="14.00" fill="#000000">13</text>
</g>
<!-- bus27&#45;&gt;bus25 -->
<g id="edge39" class="edge">
<title>bus27&#45;&gt;bus25</title>
<path fill="none" stroke="#000000" d="M450.6242,-770.2255C441.9169,-757.3859 429.77,-739.4744 419.9232,-724.9546"/>
<polygon fill="#000000" stroke="#000000" points="422.6502,-722.7398 414.1408,-716.4279 416.8568,-726.6687 422.6502,-722.7398"/>
<text text-anchor="middle" x="444" y="-739.8" font-family="Times,serif" font-size="14.00" fill="#000000">14</text>
</g>
<!-- bus28&#45;&gt;bus26 -->
<g id="edge40" class="edge">
<title>bus28&#45;&gt;bus26</title>
<path fill="none" stroke="#000000" d="M57.3101,-595.3943C51.9701,-583.1683 44.7559,-566.6517 38.7054,-552.7992"/>
<polygon fill="#000000" stroke="#000000" points="41.7589,-551.0457 34.5487,-543.2827 35.3441,-553.8476 41.7589,-551.0457"/>
<text text-anchor="middle" x="56" y="-565.8" font-family="Times,serif" font-size="14.00" fill="#000000">23</text>
</g>
<!-- load8 -->
<g id="node38" class="node">
<title>load8</title>
<polygon fill="none" stroke="#b03060" points="126,-544 72,-544 72,-508 126,-508 126,-544"/>
<text text-anchor="middle" x="99" y="-522.3" font-family="Times,serif" font-size="14.00" fill="#000000">18</text>
</g>
<!-- bus28&#45;&gt;load8 -->
<g id="edge49" class="edge">
<title>bus28&#45;&gt;load8</title>
<path fill="none" stroke="#b03060" stroke-dasharray="1,5" d="M71.8804,-595.3943C76.5647,-583.408 82.8606,-567.2978 88.2071,-553.617"/>
<polygon fill="#b03060" stroke="#b03060" points="91.5157,-554.7665 91.8958,-544.1785 84.9959,-552.2185 91.5157,-554.7665"/>
</g>
<!-- load13 -->
<g id="node43" class="node">
<title>load13</title>
<polygon fill="none" stroke="#b03060" points="565,-36 511,-36 511,0 565,0 565,-36"/>
<text text-anchor="middle" x="538" y="-14.3" font-family="Times,serif" font-size="14.00" fill="#000000">30</text>
</g>
<!-- bus29&#45;&gt;load13 -->
<g id="edge54" class="edge">
<title>bus29&#45;&gt;load13</title>
<path fill="none" stroke="#b03060" stroke-dasharray="1,5" d="M538,-72.9551C538,-64.8828 538,-55.1764 538,-46.1817"/>
<polygon fill="#b03060" stroke="#b03060" points="541.5001,-46.0903 538,-36.0904 534.5001,-46.0904 541.5001,-46.0903"/>
</g>
<!-- bus30&#45;&gt;bus2 -->
<g id="edge41" class="edge">
<title>bus30&#45;&gt;bus2</title>
<path fill="none" stroke="#000000" d="M494,-1029.9735C494,-1018.1918 494,-1002.5607 494,-989.1581"/>
<polygon fill="#000000" stroke="#000000" points="497.5001,-989.0033 494,-979.0034 490.5001,-989.0034 497.5001,-989.0033"/>
<text text-anchor="middle" x="497.5" y="-1000.8" font-family="Times,serif" font-size="14.00" fill="#000000">4</text>
</g>
<!-- load5 -->
<g id="node35" class="node">
<title>load5</title>
<polygon fill="none" stroke="#b03060" points="449,-979 395,-979 395,-943 449,-943 449,-979"/>
<text text-anchor="middle" x="422" y="-957.3" font-family="Times,serif" font-size="14.00" fill="#000000">3</text>
</g>
<!-- bus30&#45;&gt;load5 -->
<g id="edge46" class="edge">
<title>bus30&#45;&gt;load5</title>
<path fill="none" stroke="#b03060" stroke-dasharray="1,5" d="M480.7941,-1032.0429C470.3809,-1019.4603 455.6452,-1001.6547 443.5315,-987.0172"/>
<polygon fill="#b03060" stroke="#b03060" points="446.1876,-984.737 437.1155,-979.2646 440.7948,-989.2 446.1876,-984.737"/>
</g>
<!-- thermal1 -->
<g id="node52" class="node">
<title>thermal1</title>
<polygon fill="none" stroke="#cd853f" points="683,-892 656,-874 683,-856 710,-874 683,-892"/>
<text text-anchor="middle" x="683" y="-870.3" font-family="Times,serif" font-size="14.00" fill="#000000">4</text>
</g>
<!-- thermal1&#45;&gt;bus22 -->
<g id="edge63" class="edge">
<title>thermal1&#45;&gt;bus22</title>
<path fill="none" stroke="#cd853f" stroke-dasharray="5,2" d="M681.0341,-856.86C679.7121,-846.8967 677.7121,-834.1467 675,-823 674.3137,-820.1794 673.5082,-817.2633 672.6448,-814.3681"/>
<polygon fill="#cd853f" stroke="#cd853f" points="675.9563,-813.2323 669.5755,-804.7744 669.2891,-815.3653 675.9563,-813.2323"/>
</g>
<!-- thermal2 -->
<g id="node53" class="node">
<title>thermal2</title>
<polygon fill="none" stroke="#cd853f" points="494,-1226 467,-1208 494,-1190 521,-1208 494,-1226"/>
<text text-anchor="middle" x="494" y="-1204.3" font-family="Times,serif" font-size="14.00" fill="#000000">1</text>
</g>
<!-- thermal2&#45;&gt;bus3 -->
<g id="edge64" class="edge">
<title>thermal2&#45;&gt;bus3</title>
<path fill="none" stroke="#cd853f" stroke-dasharray="5,2" d="M494,-1189.9551C494,-1181.8828 494,-1172.1764 494,-1163.1817"/>
<polygon fill="#cd853f" stroke="#cd853f" points="497.5001,-1163.0903 494,-1153.0904 490.5001,-1163.0904 497.5001,-1163.0903"/>
</g>
<!-- thermal3 -->
<g id="node54" class="node">
<title>thermal3</title>
<polygon fill="none" stroke="#cd853f" points="534,-805 507,-787 534,-769 561,-787 534,-805"/>
<text text-anchor="middle" x="534" y="-783.3" font-family="Times,serif" font-size="14.00" fill="#000000">5</text>
</g>
<!-- thermal3&#45;&gt;bus12 -->
<g id="edge65" class="edge">
<title>thermal3&#45;&gt;bus12</title>
<path fill="none" stroke="#cd853f" stroke-dasharray="5,2" d="M529.297,-771.8458C525.4914,-759.5835 520.0341,-741.9987 515.4711,-727.2956"/>
<polygon fill="#cd853f" stroke="#cd853f" points="518.793,-726.191 512.4862,-717.6778 512.1076,-728.2659 518.793,-726.191"/>
</g>
<!-- thermal4 -->
<g id="node55" class="node">
<title>thermal4</title>
<polygon fill="none" stroke="#cd853f" points="566,-1153 539,-1135 566,-1117 593,-1135 566,-1153"/>
<text text-anchor="middle" x="566" y="-1131.3" font-family="Times,serif" font-size="14.00" fill="#000000">2</text>
</g>
<!-- thermal4&#45;&gt;bus7 -->
<g id="edge66" class="edge">
<title>thermal4&#45;&gt;bus7</title>
<path fill="none" stroke="#cd853f" stroke-dasharray="5,2" d="M566,-1116.9735C566,-1105.1918 566,-1089.5607 566,-1076.1581"/>
<polygon fill="#cd853f" stroke="#cd853f" points="569.5001,-1076.0033 566,-1066.0034 562.5001,-1076.0034 569.5001,-1076.0033"/>
</g>
<!-- thermal5 -->
<g id="node56" class="node">
<title>thermal5</title>
<polygon fill="none" stroke="#cd853f" points="340,-892 313,-874 340,-856 367,-874 340,-892"/>
<text text-anchor="middle" x="340" y="-870.3" font-family="Times,serif" font-size="14.00" fill="#000000">6</text>
</g>
<!-- thermal5&#45;&gt;bus13 -->
<g id="edge67" class="edge">
<title>thermal5&#45;&gt;bus13</title>
<path fill="none" stroke="#cd853f" stroke-dasharray="5,2" d="M340,-855.9735C340,-844.1918 340,-828.5607 340,-815.1581"/>
<polygon fill="#cd853f" stroke="#cd853f" points="343.5001,-815.0033 340,-805.0034 336.5001,-815.0034 343.5001,-815.0033"/>
</g>
<!-- thermal6 -->
<g id="node57" class="node">
<title>thermal6</title>
<polygon fill="none" stroke="#cd853f" points="746,-1066 719,-1048 746,-1030 773,-1048 746,-1066"/>
<text text-anchor="middle" x="746" y="-1044.3" font-family="Times,serif" font-size="14.00" fill="#000000">3</text>
</g>
<!-- thermal6&#45;&gt;bus14 -->
<g id="edge68" class="edge">
<title>thermal6&#45;&gt;bus14</title>
<path fill="none" stroke="#cd853f" stroke-dasharray="5,2" d="M746,-1029.9735C746,-1018.1918 746,-1002.5607 746,-989.1581"/>
<polygon fill="#cd853f" stroke="#cd853f" points="749.5001,-989.0033 746,-979.0034 742.5001,-989.0034 749.5001,-989.0033"/>
</g>
</g>
</svg>
